<?xml version="1.0" encoding="utf-8"?>
<!-- Generator: Adobe Illustrator 21.1.0, SVG Export Plug-In . SVG Version: 6.00 Build 0)  -->
<svg version="1.1" xmlns="http://www.w3.org/2000/svg" xmlns:xlink="http://www.w3.org/1999/xlink" x="0px" y="0px"
	 viewBox="0 0 48 48" style="enable-background:new 0 0 48 48;" xml:space="preserve">
<style type="text/css">
	.st0{fill:#FFD4C3;stroke:#504B46;stroke-linecap:round;stroke-linejoin:round;stroke-miterlimit:10;}
	.st1{fill:#FFC258;}
	.st2{fill:#4F4B45;}
	.st3{fill:#FABFA5;}
	.st4{fill:none;stroke:#504B46;stroke-linecap:round;stroke-linejoin:round;stroke-miterlimit:10;}
	.Graphic_x0020_Style{opacity:0.15;fill:#45413C;}
	.st5{fill:#FFE500;}
	.st6{fill:#EBCB00;}
	.st7{fill:none;stroke:#45413C;stroke-linecap:round;stroke-linejoin:round;stroke-miterlimit:10;}
	.st8{fill:#FFF48C;}
	.st9{fill:#FFB0CA;stroke:#45413C;stroke-linecap:round;stroke-linejoin:round;stroke-miterlimit:10;}
	.st10{fill:#FF87AF;stroke:#45413C;stroke-linecap:round;stroke-linejoin:round;stroke-miterlimit:10;}
	.st11{fill:#FFFFFF;stroke:#45413C;stroke-linecap:round;stroke-linejoin:round;stroke-miterlimit:10;}
	.st12{opacity:0.15;fill:#45413C;}
	.st13{fill:#FFAA54;}
	.st14{fill:#FFF48C;stroke:#45413C;stroke-linecap:round;stroke-linejoin:round;stroke-miterlimit:10;}
	.st15{fill:#FF6242;}
	.st16{fill:#FF866E;}
	.st17{fill:#4AEFF7;stroke:#45413C;stroke-linecap:round;stroke-linejoin:round;stroke-miterlimit:10;}
	.st18{fill:#FFFACF;}
	.st19{fill:#FFFFFF;}
	.st20{fill:none;stroke:#45413C;stroke-linejoin:round;stroke-miterlimit:10;}
	.st21{fill:#FF866E;stroke:#45413C;stroke-linecap:round;stroke-linejoin:round;stroke-miterlimit:10;}
	.st22{fill:#DABFF5;stroke:#45413C;stroke-linejoin:round;stroke-miterlimit:10;}
	.st23{fill:#EDDBFF;}
	.st24{fill:#BF8256;stroke:#45413C;stroke-miterlimit:10;}
	.st25{fill:#DEA47A;}
	.st26{fill:#45413C;stroke:#45413C;stroke-linecap:round;stroke-linejoin:round;stroke-miterlimit:10;}
	.st27{fill:none;stroke:#45413C;stroke-miterlimit:10;}
	.st28{fill:#915E3A;}
	.st29{fill:#E8F4FA;}
	.st30{fill:#525252;stroke:#45413C;stroke-linecap:round;stroke-linejoin:round;stroke-miterlimit:10;}
	.st31{fill:#87898C;}
	.st32{fill:#656769;}
	.st33{fill:none;stroke:#45413C;stroke-linecap:round;stroke-miterlimit:10;}
	.st34{fill:#00DBA8;}
	.st35{fill:#00AD85;}
	.st36{fill:#BF8DF2;}
	.st37{fill:#DABFF5;}
	.st38{fill:#00F5BC;}
	.st39{fill:#4CF4FC;stroke:#45413C;stroke-linecap:round;stroke-linejoin:round;stroke-miterlimit:10;}
	.st40{fill:#E04122;}
	.st41{fill:#00B8F0;}
	.st42{fill:#4ACFFF;}
	.st43{fill:#B89558;stroke:#45413C;stroke-linecap:round;stroke-linejoin:round;stroke-miterlimit:10;}
	.st44{fill:#FF6242;stroke:#45413C;stroke-linecap:round;stroke-linejoin:round;stroke-miterlimit:10;}
	.st45{fill:#009FD9;}
	.st46{fill:#FFFFFF;stroke:#45413C;stroke-linejoin:round;stroke-miterlimit:10;}
	.st47{fill:none;stroke:#48CF3E;stroke-linecap:round;stroke-linejoin:round;stroke-miterlimit:10;}
	.st48{fill:none;stroke:#FF4064;stroke-linecap:round;stroke-linejoin:round;stroke-miterlimit:10;}
	.st49{fill:none;stroke:#FFB700;stroke-linecap:round;stroke-linejoin:round;stroke-miterlimit:10;}
	.st50{fill:none;stroke:#00AED9;stroke-linecap:round;stroke-linejoin:round;stroke-miterlimit:10;}
	.st51{fill:#F0F0F0;}
	.st52{fill:#8CFFE4;stroke:#45413C;stroke-linecap:round;stroke-linejoin:round;stroke-miterlimit:10;}
	.st53{fill:#E5FFF9;}
	.st54{fill:#6DD627;}
	.st55{fill:#46B000;}
	.st56{fill:#9CEB60;}
	.st57{fill:#E0E0E0;}
	.st58{fill:#DAEDF7;}
	.st59{fill:#C0DCEB;}
	.st60{fill:#ADC4D9;}
	.st61{fill:#ADC4D9;stroke:#45413C;stroke-linecap:round;stroke-linejoin:round;stroke-miterlimit:10;}
	.st62{fill:#00DFEB;stroke:#45413C;stroke-linecap:round;stroke-linejoin:round;stroke-miterlimit:10;}
	.st63{fill:#627B8C;stroke:#45413C;stroke-linecap:round;stroke-linejoin:round;stroke-miterlimit:10;}
	.st64{fill:#FF8A14;}
	.st65{fill:#FF8A14;stroke:#45413C;stroke-linecap:round;stroke-linejoin:round;stroke-miterlimit:10;}
	.st66{fill:#6DD627;stroke:#45413C;stroke-linecap:round;stroke-linejoin:round;stroke-miterlimit:10;}
	.st67{fill:#45413C;}
	.st68{fill:#8CA4B8;}
	.st69{fill:#00DBA8;stroke:#45413C;stroke-linecap:round;stroke-linejoin:round;stroke-miterlimit:10;}
	.st70{fill:#00B8F0;stroke:#45413C;stroke-linecap:round;stroke-linejoin:round;stroke-miterlimit:10;}
	.st71{fill:#FFE500;stroke:#45413C;stroke-linecap:round;stroke-linejoin:round;stroke-miterlimit:10;}
	.st72{fill:#F0F0F0;stroke:#45413C;stroke-linecap:round;stroke-linejoin:round;stroke-miterlimit:10;}
	.st73{fill:#525252;}
	.st74{fill:#E5F8FF;}
	.st75{fill:none;stroke:#FF6242;stroke-linecap:round;stroke-linejoin:round;stroke-miterlimit:10;}
	.st76{fill:url(#XMLID_10_);}
	.st77{fill:url(#XMLID_11_);}
	.st78{fill:url(#XMLID_12_);}
	.st79{fill:url(#XMLID_13_);}
	.st80{fill:#E5FEFF;stroke:#45413C;stroke-linecap:round;stroke-linejoin:round;stroke-miterlimit:10;}
	.st81{fill:#EBCB00;stroke:#45413C;stroke-linecap:round;stroke-linejoin:round;stroke-miterlimit:10;}
	.st82{fill:#BDBEC0;stroke:#45413C;stroke-linecap:round;stroke-linejoin:round;stroke-miterlimit:10;}
	.st83{fill:#F0D5A8;}
	.st84{fill:#DEBB7E;}
	.st85{fill:#B89558;}
	.st86{fill:#FFFCE5;}
	.st87{fill:#FF87AF;}
	.st88{fill:#4ACFFF;stroke:#45413C;stroke-linecap:round;stroke-linejoin:round;stroke-miterlimit:10;}
	.st89{fill:#BDBEC0;}
	.st90{fill:#FFDA8F;}
	.st91{fill:#FFBE3D;}
	.st92{fill:#FFE9BD;}
	.st93{fill:#FF6196;}
	.st94{fill:#E0366F;}
	.st95{fill:#E0366F;stroke:#45413C;stroke-linecap:round;stroke-linejoin:round;stroke-miterlimit:10;}
	.st96{fill:#45413C;stroke:#45413C;stroke-miterlimit:10;}
</style>
<symbol  id="New_Symbol_14" viewBox="-6.5 -6.5 13 13">
	<path class="st0" d="M0-6c2.2,0,4.1,1.5,4.7,3.5c0,0,0,0,0,0C6.3-2.5,6.4,0,5,0v1c0,2.8-2.2,5-5,5c-2.8,0-5-2.2-5-5V0
		c-1.4,0-1.3-2.5,0.2-2.5c0,0,0,0,0,0C-4.1-4.5-2.2-6,0-6z"/>
	<g>
		<circle class="st1" cx="-1.6" cy="-0.1" r="0.1"/>
		<path class="st2" d="M-1.6,0.5c-0.3,0-0.6-0.3-0.6-0.6S-2-0.8-1.6-0.8C-1.3-0.8-1-0.5-1-0.1S-1.3,0.5-1.6,0.5L-1.6,0.5z"/>
	</g>
	<g>
		<circle class="st1" cx="1.6" cy="-0.1" r="0.1"/>
		<path class="st2" d="M1.6,0.5C1.3,0.5,1,0.2,1-0.1s0.3-0.6,0.6-0.6c0.3,0,0.6,0.3,0.6,0.6S2,0.5,1.6,0.5L1.6,0.5z"/>
	</g>
	<circle class="st3" cx="-3" cy="-1.5" r="0.5"/>
	<circle class="st3" cx="3" cy="-1.5" r="0.5"/>
	<path class="st4" d="M-1.2-3c0.8-0.5,1.7-0.5,2.5,0"/>
</symbol>
<g id="Bg">
</g>
<g id="Icons">
	<g id="XMLID_537_">
		<ellipse id="XMLID_585_" class="st12" cx="24.2" cy="44.1" rx="11" ry="1.5"/>
		<path id="XMLID_571_" class="st29" d="M24.2,2.4c-9.8,0-17.7,7.9-17.7,17.7c0,12.5,5.7,10.2,5.7,17.6c0,1.4,1.7,2.7,3.1,2.7
			c2.8,0,3.3-1.8,3.4-3.4c0.1-0.6,0.6-1,1.1-1c0.6,0,1.2,0.5,1.2,1.2v0.2c0,1.7,1.4,3.1,3.1,3.1s3.1-1.4,3.1-3.1v-0.2
			c0-0.6,0.5-1.1,1.1-1.1h0c0.6,0,1.1,0.4,1.1,1c0.2,1.6,0.7,3.4,3.4,3.4c1.4,0,3.1-1.2,3.1-2.7c0-7.5,5.7-5.2,5.7-17.6
			C41.9,10.3,34,2.4,24.2,2.4z"/>
		<path id="XMLID_570_" class="st7" d="M24.2,2.4c-9.8,0-17.7,7.9-17.7,17.7c0,12.5,5.7,10.2,5.7,17.6c0,1.4,1.7,2.7,3.1,2.7
			c2.8,0,3.3-1.8,3.4-3.4c0.1-0.6,0.6-1,1.1-1c0.6,0,1.2,0.5,1.2,1.2v0.2c0,1.7,1.4,3.1,3.1,3.1s3.1-1.4,3.1-3.1v-0.2
			c0-0.6,0.5-1.1,1.1-1.1h0c0.6,0,1.1,0.4,1.1,1c0.2,1.6,0.7,3.4,3.4,3.4c1.4,0,3.1-1.2,3.1-2.7c0-7.5,5.7-5.2,5.7-17.6
			C41.9,10.3,34,2.4,24.2,2.4z"/>
		<path id="XMLID_569_" class="st30" d="M25,29c-0.2-0.3-0.5-0.5-0.8-0.5s-0.6,0.2-0.8,0.5l-1.2,2.1c-0.1,0.3-0.1,0.6,0,0.9
			c0.2,0.3,0.4,0.4,0.8,0.4h2.3c0.3,0,0.6-0.2,0.8-0.4c0.2-0.3,0.2-0.6,0-0.9L25,29z"/>
		<g id="XMLID_565_">
			<circle id="XMLID_568_" class="st31" cx="16.5" cy="24.3" r="4.2"/>
			<path id="XMLID_567_" class="st32" d="M16.5,21.9c2,0,3.7,1.4,4.1,3.3c0.1-0.3,0.1-0.6,0.1-0.9c0-2.3-1.9-4.2-4.2-4.2
				s-4.2,1.9-4.2,4.2c0,0.3,0,0.6,0.1,0.9C12.8,23.3,14.5,21.9,16.5,21.9z"/>
			<circle id="XMLID_566_" class="st7" cx="16.5" cy="24.3" r="4.2"/>
		</g>
		<g id="XMLID_561_">
			<circle id="XMLID_564_" class="st31" cx="31.9" cy="24.3" r="4.2"/>
			<path id="XMLID_563_" class="st32" d="M31.9,21.9c2,0,3.7,1.4,4.1,3.3c0.1-0.3,0.1-0.6,0.1-0.9c0-2.3-1.9-4.2-4.2-4.2
				s-4.2,1.9-4.2,4.2c0,0.3,0,0.6,0.1,0.9C28.2,23.3,29.9,21.9,31.9,21.9z"/>
			<circle id="XMLID_562_" class="st7" cx="31.9" cy="24.3" r="4.2"/>
		</g>
		<ellipse id="XMLID_560_" class="st19" cx="24.2" cy="6" rx="5.3" ry="1.3"/>
	</g>
</g>
</svg>
