<?xml version="1.0" encoding="utf-8"?>
<!-- Generator: Adobe Illustrator 21.1.0, SVG Export Plug-In . SVG Version: 6.00 Build 0)  -->
<svg version="1.1" xmlns="http://www.w3.org/2000/svg" xmlns:xlink="http://www.w3.org/1999/xlink" x="0px" y="0px"
	 viewBox="0 0 48 48" style="enable-background:new 0 0 48 48;" xml:space="preserve">
<style type="text/css">
	.st0{fill:#FFD4C3;stroke:#504B46;stroke-linecap:round;stroke-linejoin:round;stroke-miterlimit:10;}
	.st1{fill:#FFC258;}
	.st2{fill:#4F4B45;}
	.st3{fill:#FABFA5;}
	.st4{fill:none;stroke:#504B46;stroke-linecap:round;stroke-linejoin:round;stroke-miterlimit:10;}
	.Graphic_x0020_Style{opacity:0.15;fill:#45413C;}
	.st5{fill:#FFE500;}
	.st6{fill:#EBCB00;}
	.st7{fill:none;stroke:#45413C;stroke-linecap:round;stroke-linejoin:round;stroke-miterlimit:10;}
	.st8{fill:#FFF48C;}
	.st9{fill:#FFB0CA;stroke:#45413C;stroke-linecap:round;stroke-linejoin:round;stroke-miterlimit:10;}
	.st10{fill:#FF87AF;stroke:#45413C;stroke-linecap:round;stroke-linejoin:round;stroke-miterlimit:10;}
	.st11{fill:#FFFFFF;stroke:#45413C;stroke-linecap:round;stroke-linejoin:round;stroke-miterlimit:10;}
	.st12{opacity:0.15;fill:#45413C;}
	.st13{fill:#FFAA54;}
	.st14{fill:#FFF48C;stroke:#45413C;stroke-linecap:round;stroke-linejoin:round;stroke-miterlimit:10;}
	.st15{fill:#FF6242;}
	.st16{fill:#FF866E;}
	.st17{fill:#4AEFF7;stroke:#45413C;stroke-linecap:round;stroke-linejoin:round;stroke-miterlimit:10;}
	.st18{fill:#FFFACF;}
	.st19{fill:#FFFFFF;}
	.st20{fill:none;stroke:#45413C;stroke-linejoin:round;stroke-miterlimit:10;}
	.st21{fill:#FF866E;stroke:#45413C;stroke-linecap:round;stroke-linejoin:round;stroke-miterlimit:10;}
	.st22{fill:#DABFF5;stroke:#45413C;stroke-linejoin:round;stroke-miterlimit:10;}
	.st23{fill:#EDDBFF;}
	.st24{fill:#BF8256;stroke:#45413C;stroke-miterlimit:10;}
	.st25{fill:#DEA47A;}
	.st26{fill:#45413C;stroke:#45413C;stroke-linecap:round;stroke-linejoin:round;stroke-miterlimit:10;}
	.st27{fill:none;stroke:#45413C;stroke-miterlimit:10;}
	.st28{fill:#915E3A;}
	.st29{fill:#E8F4FA;}
	.st30{fill:#525252;stroke:#45413C;stroke-linecap:round;stroke-linejoin:round;stroke-miterlimit:10;}
	.st31{fill:#87898C;}
	.st32{fill:#656769;}
	.st33{fill:none;stroke:#45413C;stroke-linecap:round;stroke-miterlimit:10;}
	.st34{fill:#00DBA8;}
	.st35{fill:#00AD85;}
	.st36{fill:#BF8DF2;}
	.st37{fill:#DABFF5;}
	.st38{fill:#00F5BC;}
	.st39{fill:#4CF4FC;stroke:#45413C;stroke-linecap:round;stroke-linejoin:round;stroke-miterlimit:10;}
	.st40{fill:#E04122;}
	.st41{fill:#00B8F0;}
	.st42{fill:#4ACFFF;}
	.st43{fill:#B89558;stroke:#45413C;stroke-linecap:round;stroke-linejoin:round;stroke-miterlimit:10;}
	.st44{fill:#FF6242;stroke:#45413C;stroke-linecap:round;stroke-linejoin:round;stroke-miterlimit:10;}
	.st45{fill:#009FD9;}
	.st46{fill:#FFFFFF;stroke:#45413C;stroke-linejoin:round;stroke-miterlimit:10;}
	.st47{fill:none;stroke:#48CF3E;stroke-linecap:round;stroke-linejoin:round;stroke-miterlimit:10;}
	.st48{fill:none;stroke:#FF4064;stroke-linecap:round;stroke-linejoin:round;stroke-miterlimit:10;}
	.st49{fill:none;stroke:#FFB700;stroke-linecap:round;stroke-linejoin:round;stroke-miterlimit:10;}
	.st50{fill:none;stroke:#00AED9;stroke-linecap:round;stroke-linejoin:round;stroke-miterlimit:10;}
	.st51{fill:#F0F0F0;}
	.st52{fill:#8CFFE4;stroke:#45413C;stroke-linecap:round;stroke-linejoin:round;stroke-miterlimit:10;}
	.st53{fill:#E5FFF9;}
	.st54{fill:#6DD627;}
	.st55{fill:#46B000;}
	.st56{fill:#9CEB60;}
	.st57{fill:#E0E0E0;}
	.st58{fill:#DAEDF7;}
	.st59{fill:#C0DCEB;}
	.st60{fill:#ADC4D9;}
	.st61{fill:#ADC4D9;stroke:#45413C;stroke-linecap:round;stroke-linejoin:round;stroke-miterlimit:10;}
	.st62{fill:#00DFEB;stroke:#45413C;stroke-linecap:round;stroke-linejoin:round;stroke-miterlimit:10;}
	.st63{fill:#627B8C;stroke:#45413C;stroke-linecap:round;stroke-linejoin:round;stroke-miterlimit:10;}
	.st64{fill:#FF8A14;}
	.st65{fill:#FF8A14;stroke:#45413C;stroke-linecap:round;stroke-linejoin:round;stroke-miterlimit:10;}
	.st66{fill:#6DD627;stroke:#45413C;stroke-linecap:round;stroke-linejoin:round;stroke-miterlimit:10;}
	.st67{fill:#45413C;}
	.st68{fill:#8CA4B8;}
	.st69{fill:#00DBA8;stroke:#45413C;stroke-linecap:round;stroke-linejoin:round;stroke-miterlimit:10;}
	.st70{fill:#00B8F0;stroke:#45413C;stroke-linecap:round;stroke-linejoin:round;stroke-miterlimit:10;}
	.st71{fill:#FFE500;stroke:#45413C;stroke-linecap:round;stroke-linejoin:round;stroke-miterlimit:10;}
	.st72{fill:#F0F0F0;stroke:#45413C;stroke-linecap:round;stroke-linejoin:round;stroke-miterlimit:10;}
	.st73{fill:#525252;}
	.st74{fill:#E5F8FF;}
	.st75{fill:none;stroke:#FF6242;stroke-linecap:round;stroke-linejoin:round;stroke-miterlimit:10;}
	.st76{fill:url(#XMLID_10_);}
	.st77{fill:url(#XMLID_11_);}
	.st78{fill:url(#XMLID_12_);}
	.st79{fill:url(#XMLID_13_);}
	.st80{fill:#E5FEFF;stroke:#45413C;stroke-linecap:round;stroke-linejoin:round;stroke-miterlimit:10;}
	.st81{fill:#EBCB00;stroke:#45413C;stroke-linecap:round;stroke-linejoin:round;stroke-miterlimit:10;}
	.st82{fill:#BDBEC0;stroke:#45413C;stroke-linecap:round;stroke-linejoin:round;stroke-miterlimit:10;}
	.st83{fill:#F0D5A8;}
	.st84{fill:#DEBB7E;}
	.st85{fill:#B89558;}
	.st86{fill:#FFFCE5;}
	.st87{fill:#FF87AF;}
	.st88{fill:#4ACFFF;stroke:#45413C;stroke-linecap:round;stroke-linejoin:round;stroke-miterlimit:10;}
	.st89{fill:#BDBEC0;}
	.st90{fill:#FFDA8F;}
	.st91{fill:#FFBE3D;}
	.st92{fill:#FFE9BD;}
	.st93{fill:#FF6196;}
	.st94{fill:#E0366F;}
	.st95{fill:#E0366F;stroke:#45413C;stroke-linecap:round;stroke-linejoin:round;stroke-miterlimit:10;}
	.st96{fill:#45413C;stroke:#45413C;stroke-miterlimit:10;}
</style>
<symbol  id="New_Symbol_14" viewBox="-6.5 -6.5 13 13">
	<path class="st0" d="M0-6c2.2,0,4.1,1.5,4.7,3.5c0,0,0,0,0,0C6.3-2.5,6.4,0,5,0v1c0,2.8-2.2,5-5,5c-2.8,0-5-2.2-5-5V0
		c-1.4,0-1.3-2.5,0.2-2.5c0,0,0,0,0,0C-4.1-4.5-2.2-6,0-6z"/>
	<g>
		<circle class="st1" cx="-1.6" cy="-0.1" r="0.1"/>
		<path class="st2" d="M-1.6,0.5c-0.3,0-0.6-0.3-0.6-0.6S-2-0.8-1.6-0.8C-1.3-0.8-1-0.5-1-0.1S-1.3,0.5-1.6,0.5L-1.6,0.5z"/>
	</g>
	<g>
		<circle class="st1" cx="1.6" cy="-0.1" r="0.1"/>
		<path class="st2" d="M1.6,0.5C1.3,0.5,1,0.2,1-0.1s0.3-0.6,0.6-0.6c0.3,0,0.6,0.3,0.6,0.6S2,0.5,1.6,0.5L1.6,0.5z"/>
	</g>
	<circle class="st3" cx="-3" cy="-1.5" r="0.5"/>
	<circle class="st3" cx="3" cy="-1.5" r="0.5"/>
	<path class="st4" d="M-1.2-3c0.8-0.5,1.7-0.5,2.5,0"/>
</symbol>
<g id="Bg">
</g>
<g id="Icons">
	<g id="XMLID_722_">
		
			<ellipse id="XMLID_1050_" transform="matrix(0.9655 -0.2603 0.2603 0.9655 -4.3891 6.9467)" class="st5" cx="24" cy="20" rx="16.1" ry="16.1"/>
		<path id="XMLID_1047_" class="st6" d="M19.8,4.5C11.3,6.9,6.2,15.7,8.5,24.2s11.1,13.6,19.7,11.3c8.6-2.3,13.6-11.1,11.3-19.7
			C37.2,7.3,28.4,2.2,19.8,4.5z M27.6,33.2c-7.8,2.1-15.8-2.5-18-10.3C7.5,15.1,12.1,7,20,4.9c7.8-2.1,15.8,2.5,18,10.3
			C40,23.1,35.4,31.1,27.6,33.2z"/>
		
			<ellipse id="XMLID_1046_" transform="matrix(0.9655 -0.2603 0.2603 0.9655 -1.2765 5.6487)" class="st8" cx="20.7" cy="7.6" rx="4.8" ry="1.2"/>
		<ellipse id="XMLID_1045_" class="st12" cx="24" cy="42.5" rx="12.8" ry="1.5"/>
		
			<ellipse id="XMLID_1044_" transform="matrix(0.9655 -0.2603 0.2603 0.9655 -4.3891 6.9467)" class="st7" cx="24" cy="20" rx="16.1" ry="16.1"/>
		
			<ellipse id="XMLID_1043_" transform="matrix(0.9655 -0.2603 0.2603 0.9655 -4.3883 9.6866)" class="st13" cx="34.4" cy="21.4" rx="2" ry="1.2"/>
		
			<ellipse id="XMLID_1042_" transform="matrix(0.9655 -0.2604 0.2604 0.9655 -6.3356 5.0181)" class="st13" cx="15.8" cy="26.4" rx="2" ry="1.2"/>
		<g id="XMLID_1039_">
			<path id="XMLID_1041_" class="st9" d="M21,27.5c-0.2,0.1-0.4,0.2-0.5,0.4c-0.1,0.2-0.1,0.4,0,0.6c1.1,2.5,3.9,3.9,6.7,3.1
				c2.7-0.7,4.5-3.3,4.2-6c0-0.2-0.1-0.4-0.3-0.5c-0.2-0.1-0.4-0.2-0.6-0.1L21,27.5z"/>
			<path id="XMLID_1040_" class="st10" d="M30.9,28.4c-1.2-0.3-2.9-0.3-4.6,0.1c-1.7,0.5-3.1,1.3-4,2.2c1.3,1,3.1,1.4,4.9,0.9
				C28.9,31.2,30.3,30,30.9,28.4z"/>
		</g>
		<g id="XMLID_1026_">
			<g id="XMLID_1035_">
				<path id="XMLID_1038_" class="st41" d="M46.9,22c-2.4,4.2-6.7-1.8-10.1-1.6C40.5,15.8,49.4,17.8,46.9,22z"/>
				<path id="XMLID_1037_" class="st42" d="M36.8,20.5c0.1,0,0.2,0,0.2,0c4.1-2.9,10.7-0.9,8.7,2.8c0.4-0.2,0.8-0.6,1.1-1.2
					C49.4,17.8,40.5,15.8,36.8,20.5z"/>
				<path id="XMLID_1036_" class="st7" d="M46.9,22c-2.4,4.2-6.7-1.8-10.1-1.6C40.5,15.8,49.4,17.8,46.9,22z"/>
			</g>
			<g id="XMLID_1031_">
				<path id="XMLID_1034_" class="st41" d="M40.5,11c1.8,2.6-2.9,3.5-3.7,5.6C35,13.1,38.7,8.4,40.5,11z"/>
				<path id="XMLID_1033_" class="st42" d="M36.8,16.6c0-0.1,0-0.1,0.1-0.1c-0.6-3.2,2.4-6.6,4.1-4.4c0-0.3-0.2-0.6-0.4-1
					C38.7,8.4,35,13.1,36.8,16.6z"/>
				<path id="XMLID_1032_" class="st7" d="M40.5,11c1.8,2.6-2.9,3.5-3.7,5.6C35,13.1,38.7,8.4,40.5,11z"/>
			</g>
			<g id="XMLID_1027_">
				<path id="XMLID_1030_" class="st41" d="M47.2,13.9c-0.3,2.2-3.2,0.4-4.6,1.1C43.4,12.4,47.5,11.7,47.2,13.9z"/>
				<path id="XMLID_1029_" class="st42" d="M42.6,15c0,0,0.1,0,0.1,0c1.2-1.9,4.4-2.3,4.2-0.3c0.1-0.2,0.2-0.4,0.3-0.7
					C47.5,11.7,43.4,12.4,42.6,15z"/>
				<path id="XMLID_1028_" class="st7" d="M47.2,13.9c-0.3,2.2-3.2,0.4-4.6,1.1C43.4,12.4,47.5,11.7,47.2,13.9z"/>
			</g>
		</g>
		<g id="XMLID_1013_">
			<g id="XMLID_1022_">
				<path id="XMLID_1025_" class="st41" d="M5.2,33.3c4.2,2.4,4.9-4.9,7.9-6.4C7.6,24.7,1,30.8,5.2,33.3z"/>
				<path id="XMLID_1024_" class="st42" d="M13.2,26.8c-0.1,0-0.1,0.1-0.2,0.1c-5-0.4-9.7,4.6-6.2,6.8c-0.5,0-1-0.1-1.6-0.5
					C1,30.8,7.6,24.7,13.2,26.8z"/>
				<path id="XMLID_1023_" class="st7" d="M5.2,33.3c4.2,2.4,4.9-4.9,7.9-6.4C7.6,24.7,1,30.8,5.2,33.3z"/>
			</g>
			<g id="XMLID_1018_">
				<path id="XMLID_1021_" class="st41" d="M5.2,20.5c-0.3,3.2,4.3,1.5,6,3C11,19.6,5.5,17.3,5.2,20.5z"/>
				<path id="XMLID_1020_" class="st42" d="M11.3,23.5c0,0-0.1-0.1-0.1-0.1c-1.1-3.1-5.4-4.5-5.7-1.8c-0.1-0.3-0.2-0.6-0.1-1.1
					C5.5,17.3,11,19.6,11.3,23.5z"/>
				<path id="XMLID_1019_" class="st7" d="M5.2,20.5c-0.3,3.2,4.3,1.5,6,3C11,19.6,5.5,17.3,5.2,20.5z"/>
			</g>
			<g id="XMLID_1014_">
				<path id="XMLID_1017_" class="st41" d="M0.9,26.4c1.4,1.8,2.9-1.2,4.5-1.4C3.5,23.1-0.5,24.6,0.9,26.4z"/>
				<path id="XMLID_1016_" class="st42" d="M5.5,25c0,0-0.1,0-0.1,0c-2.1-1-5,0.3-3.8,1.8c-0.2-0.1-0.4-0.2-0.6-0.5
					C-0.5,24.6,3.5,23.1,5.5,25z"/>
				<path id="XMLID_1015_" class="st7" d="M0.9,26.4c1.4,1.8,2.9-1.2,4.5-1.4C3.5,23.1-0.5,24.6,0.9,26.4z"/>
			</g>
		</g>
		<path id="XMLID_1012_" class="st7" d="M32.8,14.8l-2.2,1.9c-0.5,0.4-0.3,1.3,0.4,1.4l2.8,0.6"/>
		<path id="XMLID_1011_" class="st7" d="M13.8,19.9l2.8,0.6c0.6,0.1,0.9,0.9,0.4,1.4l-2.2,1.9"/>
	</g>
</g>
</svg>
