<?xml version="1.0" encoding="utf-8"?>
<!-- Generator: Adobe Illustrator 21.1.0, SVG Export Plug-In . SVG Version: 6.00 Build 0)  -->
<svg version="1.1" xmlns="http://www.w3.org/2000/svg" xmlns:xlink="http://www.w3.org/1999/xlink" x="0px" y="0px"
	 viewBox="0 0 48 48" style="enable-background:new 0 0 48 48;" xml:space="preserve">
<style type="text/css">
	.st0{fill:#FFD4C3;stroke:#504B46;stroke-linecap:round;stroke-linejoin:round;stroke-miterlimit:10;}
	.st1{fill:#FFC258;}
	.st2{fill:#4F4B45;}
	.st3{fill:#FABFA5;}
	.st4{fill:none;stroke:#504B46;stroke-linecap:round;stroke-linejoin:round;stroke-miterlimit:10;}
	.Graphic_x0020_Style{opacity:0.15;fill:#45413C;}
	.st5{fill:#FFE500;}
	.st6{fill:#EBCB00;}
	.st7{fill:none;stroke:#45413C;stroke-linecap:round;stroke-linejoin:round;stroke-miterlimit:10;}
	.st8{fill:#FFF48C;}
	.st9{fill:#FFB0CA;stroke:#45413C;stroke-linecap:round;stroke-linejoin:round;stroke-miterlimit:10;}
	.st10{fill:#FF87AF;stroke:#45413C;stroke-linecap:round;stroke-linejoin:round;stroke-miterlimit:10;}
	.st11{fill:#FFFFFF;stroke:#45413C;stroke-linecap:round;stroke-linejoin:round;stroke-miterlimit:10;}
	.st12{opacity:0.15;fill:#45413C;}
	.st13{fill:#FFAA54;}
	.st14{fill:#FFF48C;stroke:#45413C;stroke-linecap:round;stroke-linejoin:round;stroke-miterlimit:10;}
	.st15{fill:#FF6242;}
	.st16{fill:#FF866E;}
	.st17{fill:#4AEFF7;stroke:#45413C;stroke-linecap:round;stroke-linejoin:round;stroke-miterlimit:10;}
	.st18{fill:#FFFACF;}
	.st19{fill:#FFFFFF;}
	.st20{fill:none;stroke:#45413C;stroke-linejoin:round;stroke-miterlimit:10;}
	.st21{fill:#FF866E;stroke:#45413C;stroke-linecap:round;stroke-linejoin:round;stroke-miterlimit:10;}
	.st22{fill:#DABFF5;stroke:#45413C;stroke-linejoin:round;stroke-miterlimit:10;}
	.st23{fill:#EDDBFF;}
	.st24{fill:#BF8256;stroke:#45413C;stroke-miterlimit:10;}
	.st25{fill:#DEA47A;}
	.st26{fill:#45413C;stroke:#45413C;stroke-linecap:round;stroke-linejoin:round;stroke-miterlimit:10;}
	.st27{fill:none;stroke:#45413C;stroke-miterlimit:10;}
	.st28{fill:#915E3A;}
	.st29{fill:#E8F4FA;}
	.st30{fill:#525252;stroke:#45413C;stroke-linecap:round;stroke-linejoin:round;stroke-miterlimit:10;}
	.st31{fill:#87898C;}
	.st32{fill:#656769;}
	.st33{fill:none;stroke:#45413C;stroke-linecap:round;stroke-miterlimit:10;}
	.st34{fill:#00DBA8;}
	.st35{fill:#00AD85;}
	.st36{fill:#BF8DF2;}
	.st37{fill:#DABFF5;}
	.st38{fill:#00F5BC;}
	.st39{fill:#4CF4FC;stroke:#45413C;stroke-linecap:round;stroke-linejoin:round;stroke-miterlimit:10;}
	.st40{fill:#E04122;}
	.st41{fill:#00B8F0;}
	.st42{fill:#4ACFFF;}
	.st43{fill:#B89558;stroke:#45413C;stroke-linecap:round;stroke-linejoin:round;stroke-miterlimit:10;}
	.st44{fill:#FF6242;stroke:#45413C;stroke-linecap:round;stroke-linejoin:round;stroke-miterlimit:10;}
	.st45{fill:#009FD9;}
	.st46{fill:#FFFFFF;stroke:#45413C;stroke-linejoin:round;stroke-miterlimit:10;}
	.st47{fill:none;stroke:#48CF3E;stroke-linecap:round;stroke-linejoin:round;stroke-miterlimit:10;}
	.st48{fill:none;stroke:#FF4064;stroke-linecap:round;stroke-linejoin:round;stroke-miterlimit:10;}
	.st49{fill:none;stroke:#FFB700;stroke-linecap:round;stroke-linejoin:round;stroke-miterlimit:10;}
	.st50{fill:none;stroke:#00AED9;stroke-linecap:round;stroke-linejoin:round;stroke-miterlimit:10;}
	.st51{fill:#F0F0F0;}
	.st52{fill:#8CFFE4;stroke:#45413C;stroke-linecap:round;stroke-linejoin:round;stroke-miterlimit:10;}
	.st53{fill:#E5FFF9;}
	.st54{fill:#6DD627;}
	.st55{fill:#46B000;}
	.st56{fill:#9CEB60;}
	.st57{fill:#E0E0E0;}
	.st58{fill:#DAEDF7;}
	.st59{fill:#C0DCEB;}
	.st60{fill:#ADC4D9;}
	.st61{fill:#ADC4D9;stroke:#45413C;stroke-linecap:round;stroke-linejoin:round;stroke-miterlimit:10;}
	.st62{fill:#00DFEB;stroke:#45413C;stroke-linecap:round;stroke-linejoin:round;stroke-miterlimit:10;}
	.st63{fill:#627B8C;stroke:#45413C;stroke-linecap:round;stroke-linejoin:round;stroke-miterlimit:10;}
	.st64{fill:#FF8A14;}
	.st65{fill:#FF8A14;stroke:#45413C;stroke-linecap:round;stroke-linejoin:round;stroke-miterlimit:10;}
	.st66{fill:#6DD627;stroke:#45413C;stroke-linecap:round;stroke-linejoin:round;stroke-miterlimit:10;}
	.st67{fill:#45413C;}
	.st68{fill:#8CA4B8;}
	.st69{fill:#00DBA8;stroke:#45413C;stroke-linecap:round;stroke-linejoin:round;stroke-miterlimit:10;}
	.st70{fill:#00B8F0;stroke:#45413C;stroke-linecap:round;stroke-linejoin:round;stroke-miterlimit:10;}
	.st71{fill:#FFE500;stroke:#45413C;stroke-linecap:round;stroke-linejoin:round;stroke-miterlimit:10;}
	.st72{fill:#F0F0F0;stroke:#45413C;stroke-linecap:round;stroke-linejoin:round;stroke-miterlimit:10;}
	.st73{fill:#525252;}
	.st74{fill:#E5F8FF;}
	.st75{fill:none;stroke:#FF6242;stroke-linecap:round;stroke-linejoin:round;stroke-miterlimit:10;}
	.st76{fill:url(#XMLID_10_);}
	.st77{fill:url(#XMLID_11_);}
	.st78{fill:url(#XMLID_12_);}
	.st79{fill:url(#XMLID_13_);}
	.st80{fill:#E5FEFF;stroke:#45413C;stroke-linecap:round;stroke-linejoin:round;stroke-miterlimit:10;}
	.st81{fill:#EBCB00;stroke:#45413C;stroke-linecap:round;stroke-linejoin:round;stroke-miterlimit:10;}
	.st82{fill:#BDBEC0;stroke:#45413C;stroke-linecap:round;stroke-linejoin:round;stroke-miterlimit:10;}
	.st83{fill:#F0D5A8;}
	.st84{fill:#DEBB7E;}
	.st85{fill:#B89558;}
	.st86{fill:#FFFCE5;}
	.st87{fill:#FF87AF;}
	.st88{fill:#4ACFFF;stroke:#45413C;stroke-linecap:round;stroke-linejoin:round;stroke-miterlimit:10;}
	.st89{fill:#BDBEC0;}
	.st90{fill:#FFDA8F;}
	.st91{fill:#FFBE3D;}
	.st92{fill:#FFE9BD;}
	.st93{fill:#FF6196;}
	.st94{fill:#E0366F;}
	.st95{fill:#E0366F;stroke:#45413C;stroke-linecap:round;stroke-linejoin:round;stroke-miterlimit:10;}
	.st96{fill:#45413C;stroke:#45413C;stroke-miterlimit:10;}
</style>
<symbol  id="New_Symbol_14" viewBox="-6.5 -6.5 13 13">
	<path class="st0" d="M0-6c2.2,0,4.1,1.5,4.7,3.5c0,0,0,0,0,0C6.3-2.5,6.4,0,5,0v1c0,2.8-2.2,5-5,5c-2.8,0-5-2.2-5-5V0
		c-1.4,0-1.3-2.5,0.2-2.5c0,0,0,0,0,0C-4.1-4.5-2.2-6,0-6z"/>
	<g>
		<circle class="st1" cx="-1.6" cy="-0.1" r="0.1"/>
		<path class="st2" d="M-1.6,0.5c-0.3,0-0.6-0.3-0.6-0.6S-2-0.8-1.6-0.8C-1.3-0.8-1-0.5-1-0.1S-1.3,0.5-1.6,0.5L-1.6,0.5z"/>
	</g>
	<g>
		<circle class="st1" cx="1.6" cy="-0.1" r="0.1"/>
		<path class="st2" d="M1.6,0.5C1.3,0.5,1,0.2,1-0.1s0.3-0.6,0.6-0.6c0.3,0,0.6,0.3,0.6,0.6S2,0.5,1.6,0.5L1.6,0.5z"/>
	</g>
	<circle class="st3" cx="-3" cy="-1.5" r="0.5"/>
	<circle class="st3" cx="3" cy="-1.5" r="0.5"/>
	<path class="st4" d="M-1.2-3c0.8-0.5,1.7-0.5,2.5,0"/>
</symbol>
<g id="Bg">
</g>
<g id="Icons">
	<g id="XMLID_783_">
		<ellipse id="XMLID_1783_" class="st12" cx="24" cy="41.6" rx="13.5" ry="1.5"/>
		<g id="XMLID_1718_">
			<g id="XMLID_1775_">
				<path id="XMLID_1782_" class="st93" d="M17.9,21.5c0,0-7.9,0.6-11.3,11c-0.4,1.2,0.8,2.2,1.7,1.5c1.3-1,2.6-1.5,3.9-1.5
					c0.3,2.6,1.1,5,2.2,7.2c0.5,1,1.8,0.8,2.1-0.3C18,31.7,24,25.3,24,25.3L17.9,21.5z"/>
				<path id="XMLID_1781_" class="st94" d="M17.9,21.5c0,0-1.6,0.1-3.7,1.2c1.4,2.7,4.2,4.7,7.6,5.3c1.3-1.7,2.2-2.8,2.2-2.8
					L17.9,21.5z"/>
				<path id="XMLID_1780_" class="st7" d="M17.9,21.5c0,0-7.9,0.6-11.3,11c-0.4,1.2,0.8,2.2,1.7,1.5c1.3-1,2.6-1.5,3.9-1.5
					c0.3,2.6,1.1,5,2.2,7.2c0.5,1,1.8,0.8,2.1-0.3C18,31.7,24,25.3,24,25.3L17.9,21.5z"/>
			</g>
			<g id="XMLID_1751_">
				<path id="XMLID_1774_" class="st93" d="M30.2,21.5c0,0,7.9,0.6,11.3,11c0.4,1.2-0.8,2.2-1.7,1.5c-1.3-1-2.6-1.5-3.9-1.5
					c-0.3,2.6-1.1,5-2.2,7.2c-0.5,1-1.8,0.8-2.1-0.3C30.1,31.7,24,25.3,24,25.3L30.2,21.5z"/>
				<path id="XMLID_1773_" class="st94" d="M30.2,21.5c0,0,1.6,0.1,3.7,1.2c-1.4,2.7-4.2,4.7-7.6,5.3C25,26.4,24,25.3,24,25.3
					L30.2,21.5z"/>
				<path id="XMLID_1752_" class="st7" d="M30.2,21.5c0,0,7.9,0.6,11.3,11c0.4,1.2-0.8,2.2-1.7,1.5c-1.3-1-2.6-1.5-3.9-1.5
					c-0.3,2.6-1.1,5-2.2,7.2c-0.5,1-1.8,0.8-2.1-0.3C30.1,31.7,24,25.3,24,25.3L30.2,21.5z"/>
			</g>
			<path id="XMLID_1750_" class="st95" d="M46.7,16.8c-3.3,6.6-19.4,4.7-19.4,4.7l-1.9-4.3l19.4-9.9L46.7,16.8z"/>
			<g id="XMLID_1728_">
				<path id="XMLID_1749_" class="st93" d="M25.5,17.3c0,0,8.8-14.7,17.4-12c1,0.3,1.8,1.1,2,2.1l1.9,9.5
					c-7.1-5.2-19.4,4.7-19.4,4.7L25.5,17.3z"/>
				<path id="XMLID_1748_" class="st87" d="M43.8,9.5C36.5,7.2,29,17.5,27,20.7l-1.5-3.4c0,0,8.8-14.7,17.4-12c1,0.3,1.8,1.1,2,2.1
					l0.7,3.7C45.2,10.3,44.5,9.7,43.8,9.5z"/>
				<path id="XMLID_1729_" class="st7" d="M25.5,17.3c0,0,8.8-14.7,17.4-12c1,0.3,1.8,1.1,2,2.1l1.9,9.5c-7.1-5.2-19.4,4.7-19.4,4.7
					L25.5,17.3z"/>
			</g>
			<path id="XMLID_1727_" class="st95" d="M1.3,16.8c3.3,6.6,19.4,4.7,19.4,4.7l1.9-4.3L3.2,7.4L1.3,16.8z"/>
			<g id="XMLID_1723_">
				<path id="XMLID_1726_" class="st93" d="M22.6,17.3c0,0-8.8-14.7-17.4-12c-1,0.3-1.8,1.1-2,2.1l-1.9,9.5
					c7.1-5.2,19.4,4.7,19.4,4.7L22.6,17.3z"/>
				<path id="XMLID_1725_" class="st87" d="M4.3,9.5c7.3-2.3,14.7,8.1,16.8,11.2l1.5-3.4c0,0-8.8-14.7-17.4-12c-1,0.3-1.8,1.1-2,2.1
					L2.5,11C2.9,10.3,3.6,9.7,4.3,9.5z"/>
				<path id="XMLID_1724_" class="st7" d="M22.6,17.3c0,0-8.8-14.7-17.4-12c-1,0.3-1.8,1.1-2,2.1l-1.9,9.5
					c7.1-5.2,19.4,4.7,19.4,4.7L22.6,17.3z"/>
			</g>
			<g id="XMLID_1719_">
				<ellipse id="XMLID_1722_" class="st93" cx="24" cy="18.7" rx="8" ry="7.1"/>
				<path id="XMLID_1721_" class="st87" d="M24,14.9c3.1,0,5.8,0.8,7.8,2.2c-0.8-3.1-4-5.5-7.8-5.5s-7,2.3-7.8,5.5
					C18.2,15.8,21,14.9,24,14.9z"/>
				<ellipse id="XMLID_1720_" class="st7" cx="24" cy="18.7" rx="8" ry="7.1"/>
			</g>
		</g>
	</g>
</g>
</svg>
