<?xml version="1.0" encoding="utf-8"?>
<!-- Generator: Adobe Illustrator 21.1.0, SVG Export Plug-In . SVG Version: 6.00 Build 0)  -->
<svg version="1.1" xmlns="http://www.w3.org/2000/svg" xmlns:xlink="http://www.w3.org/1999/xlink" x="0px" y="0px"
	 viewBox="0 0 48 48" style="enable-background:new 0 0 48 48;" xml:space="preserve">
<style type="text/css">
	.st0{fill:#FFD4C3;stroke:#504B46;stroke-linecap:round;stroke-linejoin:round;stroke-miterlimit:10;}
	.st1{fill:#FFC258;}
	.st2{fill:#4F4B45;}
	.st3{fill:#FABFA5;}
	.st4{fill:none;stroke:#504B46;stroke-linecap:round;stroke-linejoin:round;stroke-miterlimit:10;}
	.Graphic_x0020_Style{opacity:0.15;fill:#45413C;}
	.st5{fill:#FFE500;}
	.st6{fill:#EBCB00;}
	.st7{fill:none;stroke:#45413C;stroke-linecap:round;stroke-linejoin:round;stroke-miterlimit:10;}
	.st8{fill:#FFF48C;}
	.st9{fill:#FFB0CA;stroke:#45413C;stroke-linecap:round;stroke-linejoin:round;stroke-miterlimit:10;}
	.st10{fill:#FF87AF;stroke:#45413C;stroke-linecap:round;stroke-linejoin:round;stroke-miterlimit:10;}
	.st11{fill:#FFFFFF;stroke:#45413C;stroke-linecap:round;stroke-linejoin:round;stroke-miterlimit:10;}
	.st12{opacity:0.15;fill:#45413C;}
	.st13{fill:#FFAA54;}
	.st14{fill:#FFF48C;stroke:#45413C;stroke-linecap:round;stroke-linejoin:round;stroke-miterlimit:10;}
	.st15{fill:#FF6242;}
	.st16{fill:#FF866E;}
	.st17{fill:#4AEFF7;stroke:#45413C;stroke-linecap:round;stroke-linejoin:round;stroke-miterlimit:10;}
	.st18{fill:#FFFACF;}
	.st19{fill:#FFFFFF;}
	.st20{fill:none;stroke:#45413C;stroke-linejoin:round;stroke-miterlimit:10;}
	.st21{fill:#FF866E;stroke:#45413C;stroke-linecap:round;stroke-linejoin:round;stroke-miterlimit:10;}
	.st22{fill:#DABFF5;stroke:#45413C;stroke-linejoin:round;stroke-miterlimit:10;}
	.st23{fill:#EDDBFF;}
	.st24{fill:#BF8256;stroke:#45413C;stroke-miterlimit:10;}
	.st25{fill:#DEA47A;}
	.st26{fill:#45413C;stroke:#45413C;stroke-linecap:round;stroke-linejoin:round;stroke-miterlimit:10;}
	.st27{fill:none;stroke:#45413C;stroke-miterlimit:10;}
	.st28{fill:#915E3A;}
	.st29{fill:#E8F4FA;}
	.st30{fill:#525252;stroke:#45413C;stroke-linecap:round;stroke-linejoin:round;stroke-miterlimit:10;}
	.st31{fill:#87898C;}
	.st32{fill:#656769;}
	.st33{fill:none;stroke:#45413C;stroke-linecap:round;stroke-miterlimit:10;}
	.st34{fill:#00DBA8;}
	.st35{fill:#00AD85;}
	.st36{fill:#BF8DF2;}
	.st37{fill:#DABFF5;}
	.st38{fill:#00F5BC;}
	.st39{fill:#4CF4FC;stroke:#45413C;stroke-linecap:round;stroke-linejoin:round;stroke-miterlimit:10;}
	.st40{fill:#E04122;}
	.st41{fill:#00B8F0;}
	.st42{fill:#4ACFFF;}
	.st43{fill:#B89558;stroke:#45413C;stroke-linecap:round;stroke-linejoin:round;stroke-miterlimit:10;}
	.st44{fill:#FF6242;stroke:#45413C;stroke-linecap:round;stroke-linejoin:round;stroke-miterlimit:10;}
	.st45{fill:#009FD9;}
	.st46{fill:#FFFFFF;stroke:#45413C;stroke-linejoin:round;stroke-miterlimit:10;}
	.st47{fill:none;stroke:#48CF3E;stroke-linecap:round;stroke-linejoin:round;stroke-miterlimit:10;}
	.st48{fill:none;stroke:#FF4064;stroke-linecap:round;stroke-linejoin:round;stroke-miterlimit:10;}
	.st49{fill:none;stroke:#FFB700;stroke-linecap:round;stroke-linejoin:round;stroke-miterlimit:10;}
	.st50{fill:none;stroke:#00AED9;stroke-linecap:round;stroke-linejoin:round;stroke-miterlimit:10;}
	.st51{fill:#F0F0F0;}
	.st52{fill:#8CFFE4;stroke:#45413C;stroke-linecap:round;stroke-linejoin:round;stroke-miterlimit:10;}
	.st53{fill:#E5FFF9;}
	.st54{fill:#6DD627;}
	.st55{fill:#46B000;}
	.st56{fill:#9CEB60;}
	.st57{fill:#E0E0E0;}
	.st58{fill:#DAEDF7;}
	.st59{fill:#C0DCEB;}
	.st60{fill:#ADC4D9;}
	.st61{fill:#ADC4D9;stroke:#45413C;stroke-linecap:round;stroke-linejoin:round;stroke-miterlimit:10;}
	.st62{fill:#00DFEB;stroke:#45413C;stroke-linecap:round;stroke-linejoin:round;stroke-miterlimit:10;}
	.st63{fill:#627B8C;stroke:#45413C;stroke-linecap:round;stroke-linejoin:round;stroke-miterlimit:10;}
	.st64{fill:#FF8A14;}
	.st65{fill:#FF8A14;stroke:#45413C;stroke-linecap:round;stroke-linejoin:round;stroke-miterlimit:10;}
	.st66{fill:#6DD627;stroke:#45413C;stroke-linecap:round;stroke-linejoin:round;stroke-miterlimit:10;}
	.st67{fill:#45413C;}
	.st68{fill:#8CA4B8;}
	.st69{fill:#00DBA8;stroke:#45413C;stroke-linecap:round;stroke-linejoin:round;stroke-miterlimit:10;}
	.st70{fill:#00B8F0;stroke:#45413C;stroke-linecap:round;stroke-linejoin:round;stroke-miterlimit:10;}
	.st71{fill:#FFE500;stroke:#45413C;stroke-linecap:round;stroke-linejoin:round;stroke-miterlimit:10;}
	.st72{fill:#F0F0F0;stroke:#45413C;stroke-linecap:round;stroke-linejoin:round;stroke-miterlimit:10;}
	.st73{fill:#525252;}
	.st74{fill:#E5F8FF;}
	.st75{fill:none;stroke:#FF6242;stroke-linecap:round;stroke-linejoin:round;stroke-miterlimit:10;}
	.st76{fill:url(#XMLID_10_);}
	.st77{fill:url(#XMLID_11_);}
	.st78{fill:url(#XMLID_12_);}
	.st79{fill:url(#XMLID_13_);}
	.st80{fill:#E5FEFF;stroke:#45413C;stroke-linecap:round;stroke-linejoin:round;stroke-miterlimit:10;}
	.st81{fill:#EBCB00;stroke:#45413C;stroke-linecap:round;stroke-linejoin:round;stroke-miterlimit:10;}
	.st82{fill:#BDBEC0;stroke:#45413C;stroke-linecap:round;stroke-linejoin:round;stroke-miterlimit:10;}
	.st83{fill:#F0D5A8;}
	.st84{fill:#DEBB7E;}
	.st85{fill:#B89558;}
	.st86{fill:#FFFCE5;}
	.st87{fill:#FF87AF;}
	.st88{fill:#4ACFFF;stroke:#45413C;stroke-linecap:round;stroke-linejoin:round;stroke-miterlimit:10;}
	.st89{fill:#BDBEC0;}
	.st90{fill:#FFDA8F;}
	.st91{fill:#FFBE3D;}
	.st92{fill:#FFE9BD;}
	.st93{fill:#FF6196;}
	.st94{fill:#E0366F;}
	.st95{fill:#E0366F;stroke:#45413C;stroke-linecap:round;stroke-linejoin:round;stroke-miterlimit:10;}
	.st96{fill:#45413C;stroke:#45413C;stroke-miterlimit:10;}
</style>
<symbol  id="New_Symbol_14" viewBox="-6.5 -6.5 13 13">
	<path class="st0" d="M0-6c2.2,0,4.1,1.5,4.7,3.5c0,0,0,0,0,0C6.3-2.5,6.4,0,5,0v1c0,2.8-2.2,5-5,5c-2.8,0-5-2.2-5-5V0
		c-1.4,0-1.3-2.5,0.2-2.5c0,0,0,0,0,0C-4.1-4.5-2.2-6,0-6z"/>
	<g>
		<circle class="st1" cx="-1.6" cy="-0.1" r="0.1"/>
		<path class="st2" d="M-1.6,0.5c-0.3,0-0.6-0.3-0.6-0.6S-2-0.8-1.6-0.8C-1.3-0.8-1-0.5-1-0.1S-1.3,0.5-1.6,0.5L-1.6,0.5z"/>
	</g>
	<g>
		<circle class="st1" cx="1.6" cy="-0.1" r="0.1"/>
		<path class="st2" d="M1.6,0.5C1.3,0.5,1,0.2,1-0.1s0.3-0.6,0.6-0.6c0.3,0,0.6,0.3,0.6,0.6S2,0.5,1.6,0.5L1.6,0.5z"/>
	</g>
	<circle class="st3" cx="-3" cy="-1.5" r="0.5"/>
	<circle class="st3" cx="3" cy="-1.5" r="0.5"/>
	<path class="st4" d="M-1.2-3c0.8-0.5,1.7-0.5,2.5,0"/>
</symbol>
<g id="Bg">
</g>
<g id="Icons">
	<g id="XMLID_728_">
		<circle id="XMLID_1879_" class="st15" cx="24" cy="21.4" r="20"/>
		<path id="XMLID_1876_" class="st40" d="M24,1.4c-11,0-20,9-20,20s9,20,20,20s20-9,20-20S35,1.4,24,1.4z M24,38.4
			c-10.1,0-18.2-8.2-18.2-18.2C5.8,10,13.9,1.9,24,1.9S42.3,10,42.3,20.1C42.3,30.2,34.1,38.4,24,38.4z"/>
		<ellipse id="XMLID_1875_" class="st16" cx="24" cy="5.4" rx="6" ry="1.5"/>
		<ellipse id="XMLID_1874_" class="st12" cx="24" cy="45.1" rx="15" ry="1.5"/>
		<circle id="XMLID_1873_" class="st7" cx="24" cy="21.4" r="20"/>
		<ellipse id="XMLID_1872_" class="st40" cx="37" cy="24.4" rx="2.5" ry="1.5"/>
		<ellipse id="XMLID_1871_" class="st40" cx="11" cy="24.4" rx="2.5" ry="1.5"/>
		<circle id="XMLID_1870_" class="st26" cx="13.5" cy="20.4" r="1"/>
		<circle id="XMLID_1869_" class="st26" cx="34.5" cy="20.4" r="1"/>
		<path id="XMLID_1868_" class="st7" d="M31.5,18.4c0,0,2.3-4,6-2"/>
		<path id="XMLID_1867_" class="st7" d="M16.5,18.4c0,0-2.3-4-6-2"/>
		<path id="XMLID_1866_" class="st11" d="M39.5,38.4h-31c-0.6,0-1-0.4-1-1v-9.5c0-0.6,0.4-1,1-1h31c0.6,0,1,0.4,1,1v9.5
			C40.5,37.9,40.1,38.4,39.5,38.4z"/>
		<g id="XMLID_1824_">
			<path id="XMLID_1862_" class="st15" d="M13.8,32.1l1,1.1l0.4-0.4c0.1-0.2,0.3-0.3,0.4-0.3c0.1-0.1,0.2-0.1,0.4-0.1
				c0.1,0,0.3,0.1,0.4,0.2c0.1,0.1,0.2,0.3,0.2,0.4c0,0.1,0,0.3-0.1,0.4c-0.1,0.2-0.2,0.3-0.4,0.5l-0.2,0.3l0.7,0.7
				c0.1,0.1,0.1,0.2,0.2,0.2s0.1,0.1,0.1,0.3c0,0.2-0.1,0.3-0.2,0.4C16.2,35.9,16,36,15.9,36c-0.2,0-0.4-0.1-0.5-0.2l-0.7-0.7
				c-0.2,0.2-0.4,0.3-0.6,0.5c-0.2,0.1-0.5,0.2-0.7,0.3C13.1,36,12.8,36,12.6,36c-0.4,0-0.8-0.1-1.2-0.2c-0.4-0.2-0.6-0.4-0.8-0.7
				s-0.3-0.7-0.3-1.1c0-0.4,0.1-0.8,0.4-1.2c0.3-0.4,0.6-0.6,1-0.9c-0.2-0.2-0.4-0.4-0.5-0.6S11,30.8,11,30.5c0-0.3,0.1-0.6,0.3-0.9
				s0.4-0.4,0.7-0.5c0.3-0.1,0.6-0.2,1-0.2c0.3,0,0.6,0.1,0.9,0.2c0.3,0.1,0.6,0.3,0.8,0.5c0.2,0.2,0.3,0.5,0.3,0.8
				c0,0.4-0.1,0.7-0.3,1C14.4,31.7,14.1,31.9,13.8,32.1z M13.8,34.2l-1.4-1.5c-0.3,0.2-0.5,0.3-0.6,0.5c-0.1,0.2-0.2,0.4-0.2,0.7
				c0,0.3,0.1,0.5,0.3,0.7c0.2,0.2,0.4,0.2,0.7,0.2c0.2,0,0.5,0,0.6-0.1S13.6,34.4,13.8,34.2z M13.7,30.6c0-0.2-0.1-0.3-0.2-0.4
				c-0.1-0.1-0.3-0.1-0.4-0.1c-0.1,0-0.3,0-0.4,0.1c-0.1,0.1-0.2,0.2-0.2,0.3c0,0.1,0,0.3,0.1,0.4c0.1,0.1,0.2,0.3,0.4,0.5
				C13.5,31.1,13.7,30.8,13.7,30.6z"/>
			<path id="XMLID_1858_" class="st15" d="M19,34.6V33c-0.2-0.1-0.4-0.1-0.7-0.2c-0.3-0.1-0.5-0.2-0.7-0.3c-0.2-0.1-0.4-0.3-0.5-0.5
				C17,31.7,17,31.4,17,31.1c0-0.4,0.1-0.7,0.3-1.1s0.4-0.6,0.7-0.8s0.7-0.3,1-0.3v0v-0.3c0-0.1,0-0.2,0-0.2s0-0.1,0.1-0.1
				s0.1-0.1,0.2-0.1c0.1,0,0.2,0,0.2,0.1s0,0.2,0,0.3v0.3c0.4,0,0.8,0.1,1.1,0.3c0.4,0.2,0.5,0.4,0.5,0.7c0,0.2-0.1,0.4-0.2,0.5
				c-0.1,0.1-0.3,0.2-0.5,0.2c-0.1,0-0.3,0-0.5-0.1c-0.2-0.1-0.4-0.1-0.5-0.1v1.3c0.4,0.1,0.8,0.3,1.1,0.4c0.3,0.1,0.5,0.3,0.8,0.6
				c0.2,0.3,0.3,0.7,0.3,1.1c0,0.3-0.1,0.6-0.2,0.9c-0.1,0.3-0.3,0.5-0.5,0.7c-0.2,0.2-0.4,0.3-0.7,0.5c-0.3,0.1-0.5,0.2-0.8,0.2v0
				v0.3c0,0.1,0,0.2,0,0.2c0,0.1,0,0.1-0.1,0.2s-0.1,0.1-0.2,0.1c-0.1,0-0.2,0-0.2-0.1c0-0.1,0-0.2,0-0.3V36c-0.3,0-0.6,0-0.9-0.1
				s-0.6-0.2-0.8-0.3c-0.2-0.2-0.3-0.4-0.3-0.6c0-0.2,0.1-0.4,0.2-0.5c0.1-0.1,0.3-0.2,0.5-0.2c0.1,0,0.4,0.1,0.7,0.2
				C18.6,34.5,18.8,34.6,19,34.6z M19,31.4v-1.1c-0.1,0-0.3,0.1-0.4,0.2c-0.1,0.1-0.1,0.2-0.1,0.4c0,0.1,0,0.2,0.1,0.3
				C18.7,31.3,18.8,31.4,19,31.4z M19.5,33.2v1.4c0.2,0,0.3-0.1,0.5-0.3s0.2-0.3,0.2-0.5C20.2,33.5,20,33.3,19.5,33.2z"/>
			<path id="XMLID_1834_" class="st15" d="M23.5,36c-0.2,0-0.4-0.1-0.5-0.2c-0.1-0.1-0.2-0.3-0.2-0.5s0.1-0.4,0.2-0.5
				c0.1-0.1,0.3-0.2,0.5-0.2s0.4,0.1,0.5,0.2c0.1,0.1,0.2,0.3,0.2,0.5s-0.1,0.4-0.2,0.5S23.7,36,23.5,36z M22.8,33.3v-3.7
				c0-0.2,0.1-0.4,0.2-0.5c0.1-0.1,0.3-0.2,0.5-0.2c0.2,0,0.4,0.1,0.5,0.2c0.1,0.1,0.2,0.3,0.2,0.5v3.7c0,0.2-0.1,0.4-0.2,0.5
				c-0.1,0.1-0.3,0.2-0.5,0.2c-0.2,0-0.4-0.1-0.5-0.2C22.9,33.6,22.8,33.5,22.8,33.3z"/>
			<path id="XMLID_1831_" class="st15" d="M26.5,33l0.2-1.1h-0.8c-0.2,0-0.3,0-0.3-0.1s-0.1-0.2-0.1-0.3c0-0.1,0-0.2,0.1-0.3
				s0.2-0.1,0.3-0.1h1l0.2-1.5c0-0.2,0.1-0.3,0.1-0.4c0.1-0.1,0.2-0.1,0.3-0.1c0.1,0,0.2,0,0.3,0.1c0.1,0.1,0.1,0.2,0.1,0.3
				c0,0.1,0,0.1,0,0.2L27.7,31h0.9l0.2-1.5c0-0.2,0.1-0.3,0.1-0.4c0.1-0.1,0.2-0.1,0.3-0.1c0.1,0,0.2,0,0.3,0.1s0.1,0.2,0.1,0.3
				c0,0.1,0,0.1,0,0.2L29.6,31h0.8c0.2,0,0.3,0,0.3,0.1c0.1,0.1,0.1,0.2,0.1,0.3c0,0.1,0,0.2-0.1,0.3c-0.1,0.1-0.2,0.1-0.3,0.1h-1
				L29.3,33h0.8c0.2,0,0.3,0,0.3,0.1c0.1,0.1,0.1,0.2,0.1,0.3s0,0.2-0.1,0.3c-0.1,0.1-0.2,0.1-0.3,0.1h-1l-0.2,1.5
				c0,0.2-0.1,0.3-0.1,0.4c-0.1,0.1-0.2,0.1-0.3,0.1c-0.1,0-0.2,0-0.3-0.1c-0.1-0.1-0.1-0.2-0.1-0.3c0,0,0-0.1,0-0.2l0.2-1.4h-0.9
				l-0.2,1.5c0,0.2-0.1,0.3-0.1,0.4s-0.2,0.1-0.3,0.1c-0.1,0-0.2,0-0.3-0.1c-0.1-0.1-0.1-0.2-0.1-0.3c0,0,0-0.1,0-0.2l0.2-1.4h-0.8
				c-0.2,0-0.3,0-0.3-0.1c-0.1-0.1-0.1-0.2-0.1-0.3c0-0.1,0-0.2,0.1-0.3s0.2-0.1,0.3-0.1H26.5z M27.6,31.9L27.4,33h0.9l0.2-1.1H27.6
				z"/>
			<path id="XMLID_1825_" class="st15" d="M32.6,32c-0.4,0-0.8-0.2-1.1-0.5c-0.3-0.3-0.4-0.7-0.4-1.1c0-0.3,0.1-0.5,0.2-0.8
				c0.1-0.2,0.3-0.4,0.5-0.6c0.2-0.1,0.5-0.2,0.8-0.2c0.3,0,0.5,0.1,0.7,0.2c0.2,0.1,0.4,0.3,0.5,0.6c0.1,0.2,0.2,0.5,0.2,0.8
				c0,0.3-0.1,0.5-0.2,0.8c-0.1,0.2-0.3,0.4-0.5,0.6S32.9,32,32.6,32z M32.6,31.1c0.2,0,0.3-0.1,0.4-0.2s0.1-0.2,0.1-0.4
				c0-0.2,0-0.3-0.1-0.4c-0.1-0.1-0.2-0.2-0.4-0.2c-0.2,0-0.3,0.1-0.4,0.2c-0.1,0.1-0.1,0.2-0.1,0.4c0,0.2,0,0.3,0.1,0.4
				S32.5,31.1,32.6,31.1z M32.3,35.2l3.2-6c0.1-0.1,0.1-0.2,0.2-0.2c0.1,0,0.1-0.1,0.3-0.1c0.1,0,0.2,0,0.3,0.1
				c0.1,0,0.2,0.1,0.2,0.2c0.1,0.1,0.1,0.2,0.1,0.3c0,0.1,0,0.2-0.1,0.3l-3.2,6C33.1,35.9,33,35.9,33,36c0,0-0.1,0.1-0.2,0.1
				c-0.1,0-0.2-0.1-0.4-0.2c-0.1-0.1-0.2-0.2-0.2-0.4C32.2,35.4,32.2,35.3,32.3,35.2z M36,36c-0.4,0-0.8-0.2-1.1-0.5
				c-0.3-0.3-0.4-0.7-0.4-1.1c0-0.3,0.1-0.5,0.2-0.8c0.1-0.2,0.3-0.4,0.5-0.6c0.2-0.1,0.5-0.2,0.8-0.2c0.3,0,0.5,0.1,0.7,0.2
				c0.2,0.1,0.4,0.3,0.5,0.6c0.1,0.2,0.2,0.5,0.2,0.8c0,0.3-0.1,0.5-0.2,0.8c-0.1,0.2-0.3,0.4-0.5,0.6S36.3,36,36,36z M36,35
				c0.2,0,0.3-0.1,0.4-0.2c0.1-0.1,0.1-0.2,0.1-0.4c0-0.2,0-0.3-0.1-0.4s-0.2-0.2-0.4-0.2c-0.2,0-0.3,0.1-0.4,0.2s-0.1,0.2-0.1,0.4
				c0,0.2,0,0.3,0.1,0.4C35.7,35,35.8,35,36,35z"/>
		</g>
	</g>
</g>
</svg>
