<?xml version="1.0" encoding="utf-8"?>
<!-- Generator: Adobe Illustrator 21.1.0, SVG Export Plug-In . SVG Version: 6.00 Build 0)  -->
<svg version="1.1" xmlns="http://www.w3.org/2000/svg" xmlns:xlink="http://www.w3.org/1999/xlink" x="0px" y="0px"
	 viewBox="0 0 48 48" style="enable-background:new 0 0 48 48;" xml:space="preserve">
<style type="text/css">
	.st0{fill:#FFD4C3;stroke:#504B46;stroke-linecap:round;stroke-linejoin:round;stroke-miterlimit:10;}
	.st1{fill:#FFC258;}
	.st2{fill:#4F4B45;}
	.st3{fill:#FABFA5;}
	.st4{fill:none;stroke:#504B46;stroke-linecap:round;stroke-linejoin:round;stroke-miterlimit:10;}
	.Graphic_x0020_Style{opacity:0.15;fill:#45413C;}
	.st5{fill:#FFE500;}
	.st6{fill:#EBCB00;}
	.st7{fill:none;stroke:#45413C;stroke-linecap:round;stroke-linejoin:round;stroke-miterlimit:10;}
	.st8{fill:#FFF48C;}
	.st9{fill:#FFB0CA;stroke:#45413C;stroke-linecap:round;stroke-linejoin:round;stroke-miterlimit:10;}
	.st10{fill:#FF87AF;stroke:#45413C;stroke-linecap:round;stroke-linejoin:round;stroke-miterlimit:10;}
	.st11{fill:#FFFFFF;stroke:#45413C;stroke-linecap:round;stroke-linejoin:round;stroke-miterlimit:10;}
	.st12{opacity:0.15;fill:#45413C;}
	.st13{fill:#FFAA54;}
	.st14{fill:#FFF48C;stroke:#45413C;stroke-linecap:round;stroke-linejoin:round;stroke-miterlimit:10;}
	.st15{fill:#FF6242;}
	.st16{fill:#FF866E;}
	.st17{fill:#4AEFF7;stroke:#45413C;stroke-linecap:round;stroke-linejoin:round;stroke-miterlimit:10;}
	.st18{fill:#FFFACF;}
	.st19{fill:#FFFFFF;}
	.st20{fill:none;stroke:#45413C;stroke-linejoin:round;stroke-miterlimit:10;}
	.st21{fill:#FF866E;stroke:#45413C;stroke-linecap:round;stroke-linejoin:round;stroke-miterlimit:10;}
	.st22{fill:#DABFF5;stroke:#45413C;stroke-linejoin:round;stroke-miterlimit:10;}
	.st23{fill:#EDDBFF;}
	.st24{fill:#BF8256;stroke:#45413C;stroke-miterlimit:10;}
	.st25{fill:#DEA47A;}
	.st26{fill:#45413C;stroke:#45413C;stroke-linecap:round;stroke-linejoin:round;stroke-miterlimit:10;}
	.st27{fill:none;stroke:#45413C;stroke-miterlimit:10;}
	.st28{fill:#915E3A;}
	.st29{fill:#E8F4FA;}
	.st30{fill:#525252;stroke:#45413C;stroke-linecap:round;stroke-linejoin:round;stroke-miterlimit:10;}
	.st31{fill:#87898C;}
	.st32{fill:#656769;}
	.st33{fill:none;stroke:#45413C;stroke-linecap:round;stroke-miterlimit:10;}
	.st34{fill:#00DBA8;}
	.st35{fill:#00AD85;}
	.st36{fill:#BF8DF2;}
	.st37{fill:#DABFF5;}
	.st38{fill:#00F5BC;}
	.st39{fill:#4CF4FC;stroke:#45413C;stroke-linecap:round;stroke-linejoin:round;stroke-miterlimit:10;}
	.st40{fill:#E04122;}
	.st41{fill:#00B8F0;}
	.st42{fill:#4ACFFF;}
	.st43{fill:#B89558;stroke:#45413C;stroke-linecap:round;stroke-linejoin:round;stroke-miterlimit:10;}
	.st44{fill:#FF6242;stroke:#45413C;stroke-linecap:round;stroke-linejoin:round;stroke-miterlimit:10;}
	.st45{fill:#009FD9;}
	.st46{fill:#FFFFFF;stroke:#45413C;stroke-linejoin:round;stroke-miterlimit:10;}
	.st47{fill:none;stroke:#48CF3E;stroke-linecap:round;stroke-linejoin:round;stroke-miterlimit:10;}
	.st48{fill:none;stroke:#FF4064;stroke-linecap:round;stroke-linejoin:round;stroke-miterlimit:10;}
	.st49{fill:none;stroke:#FFB700;stroke-linecap:round;stroke-linejoin:round;stroke-miterlimit:10;}
	.st50{fill:none;stroke:#00AED9;stroke-linecap:round;stroke-linejoin:round;stroke-miterlimit:10;}
	.st51{fill:#F0F0F0;}
	.st52{fill:#8CFFE4;stroke:#45413C;stroke-linecap:round;stroke-linejoin:round;stroke-miterlimit:10;}
	.st53{fill:#E5FFF9;}
	.st54{fill:#6DD627;}
	.st55{fill:#46B000;}
	.st56{fill:#9CEB60;}
	.st57{fill:#E0E0E0;}
	.st58{fill:#DAEDF7;}
	.st59{fill:#C0DCEB;}
	.st60{fill:#ADC4D9;}
	.st61{fill:#ADC4D9;stroke:#45413C;stroke-linecap:round;stroke-linejoin:round;stroke-miterlimit:10;}
	.st62{fill:#00DFEB;stroke:#45413C;stroke-linecap:round;stroke-linejoin:round;stroke-miterlimit:10;}
	.st63{fill:#627B8C;stroke:#45413C;stroke-linecap:round;stroke-linejoin:round;stroke-miterlimit:10;}
	.st64{fill:#FF8A14;}
	.st65{fill:#FF8A14;stroke:#45413C;stroke-linecap:round;stroke-linejoin:round;stroke-miterlimit:10;}
	.st66{fill:#6DD627;stroke:#45413C;stroke-linecap:round;stroke-linejoin:round;stroke-miterlimit:10;}
	.st67{fill:#45413C;}
	.st68{fill:#8CA4B8;}
	.st69{fill:#00DBA8;stroke:#45413C;stroke-linecap:round;stroke-linejoin:round;stroke-miterlimit:10;}
	.st70{fill:#00B8F0;stroke:#45413C;stroke-linecap:round;stroke-linejoin:round;stroke-miterlimit:10;}
	.st71{fill:#FFE500;stroke:#45413C;stroke-linecap:round;stroke-linejoin:round;stroke-miterlimit:10;}
	.st72{fill:#F0F0F0;stroke:#45413C;stroke-linecap:round;stroke-linejoin:round;stroke-miterlimit:10;}
	.st73{fill:#525252;}
	.st74{fill:#E5F8FF;}
	.st75{fill:none;stroke:#FF6242;stroke-linecap:round;stroke-linejoin:round;stroke-miterlimit:10;}
	.st76{fill:url(#XMLID_10_);}
	.st77{fill:url(#XMLID_11_);}
	.st78{fill:url(#XMLID_12_);}
	.st79{fill:url(#XMLID_13_);}
	.st80{fill:#E5FEFF;stroke:#45413C;stroke-linecap:round;stroke-linejoin:round;stroke-miterlimit:10;}
	.st81{fill:#EBCB00;stroke:#45413C;stroke-linecap:round;stroke-linejoin:round;stroke-miterlimit:10;}
	.st82{fill:#BDBEC0;stroke:#45413C;stroke-linecap:round;stroke-linejoin:round;stroke-miterlimit:10;}
	.st83{fill:#F0D5A8;}
	.st84{fill:#DEBB7E;}
	.st85{fill:#B89558;}
	.st86{fill:#FFFCE5;}
	.st87{fill:#FF87AF;}
	.st88{fill:#4ACFFF;stroke:#45413C;stroke-linecap:round;stroke-linejoin:round;stroke-miterlimit:10;}
	.st89{fill:#BDBEC0;}
	.st90{fill:#FFDA8F;}
	.st91{fill:#FFBE3D;}
	.st92{fill:#FFE9BD;}
	.st93{fill:#FF6196;}
	.st94{fill:#E0366F;}
	.st95{fill:#E0366F;stroke:#45413C;stroke-linecap:round;stroke-linejoin:round;stroke-miterlimit:10;}
	.st96{fill:#45413C;stroke:#45413C;stroke-miterlimit:10;}
</style>
<symbol  id="New_Symbol_14" viewBox="-6.5 -6.5 13 13">
	<path class="st0" d="M0-6c2.2,0,4.1,1.5,4.7,3.5c0,0,0,0,0,0C6.3-2.5,6.4,0,5,0v1c0,2.8-2.2,5-5,5c-2.8,0-5-2.2-5-5V0
		c-1.4,0-1.3-2.5,0.2-2.5c0,0,0,0,0,0C-4.1-4.5-2.2-6,0-6z"/>
	<g>
		<circle class="st1" cx="-1.6" cy="-0.1" r="0.1"/>
		<path class="st2" d="M-1.6,0.5c-0.3,0-0.6-0.3-0.6-0.6S-2-0.8-1.6-0.8C-1.3-0.8-1-0.5-1-0.1S-1.3,0.5-1.6,0.5L-1.6,0.5z"/>
	</g>
	<g>
		<circle class="st1" cx="1.6" cy="-0.1" r="0.1"/>
		<path class="st2" d="M1.6,0.5C1.3,0.5,1,0.2,1-0.1s0.3-0.6,0.6-0.6c0.3,0,0.6,0.3,0.6,0.6S2,0.5,1.6,0.5L1.6,0.5z"/>
	</g>
	<circle class="st3" cx="-3" cy="-1.5" r="0.5"/>
	<circle class="st3" cx="3" cy="-1.5" r="0.5"/>
	<path class="st4" d="M-1.2-3c0.8-0.5,1.7-0.5,2.5,0"/>
</symbol>
<g id="Bg">
</g>
<g id="Icons">
	<g id="XMLID_725_">
		<ellipse id="XMLID_1186_" class="st12" cx="24" cy="45.5" rx="19.5" ry="1.5"/>
		<path id="XMLID_1191_" class="st58" d="M42,40.5c0,2.2-1.8,4-4,4H10c-2.2,0-4-1.8-4-4V27c0-9.9,8.1-18,18-18s18,8.1,18,18V40.5z"
			/>
		<path id="XMLID_1190_" class="st19" d="M24,9C14.1,9,6,17.1,6,27v5c0-9.9,8.1-18,18-18s18,8.1,18,18v-5C42,17.1,33.9,9,24,9z"/>
		<path id="XMLID_1189_" class="st7" d="M42,40.5c0,2.2-1.8,4-4,4H10c-2.2,0-4-1.8-4-4V27c0-9.9,8.1-18,18-18s18,8.1,18,18V40.5z"/>
		<path id="XMLID_1188_" class="st59" d="M30.5,44c0,1.1-0.9,2-2,2h-9c-1.1,0-2-0.9-2-2v-8c0-1.1,0.9-2,2-2h9c1.1,0,2,0.9,2,2V44z"
			/>
		<rect id="XMLID_1187_" x="17.5" y="38.5" class="st60" width="13" height="2"/>
		<polygon id="XMLID_1185_" class="st61" points="45.5,36.5 42,38.5 42,26 45.5,28 		"/>
		<polygon id="XMLID_1184_" class="st61" points="2.5,36.5 6,38.5 6,26 2.5,28 		"/>
		<path id="XMLID_1183_" class="st7" d="M24,9c0.2-1,2.5-8,10.5-6.7"/>
		<circle id="XMLID_1182_" class="st44" cx="36" cy="3.5" r="2.5"/>
		<path id="XMLID_1181_" class="st7" d="M30.5,44c0,1.1-0.9,2-2,2h-9c-1.1,0-2-0.9-2-2v-8c0-1.1,0.9-2,2-2h9c1.1,0,2,0.9,2,2V44z"/>
		<path id="XMLID_1180_" class="st44" d="M30.5,38.5h-13V36c0-1.1,0.9-2,2-2h9c1.1,0,2,0.9,2,2V38.5z"/>
		<path id="XMLID_1179_" class="st7" d="M33.5,11.8C30.7,10.1,27.5,9,24,9s-6.7,1-9.5,2.7V24h19V11.8z"/>
		<circle id="XMLID_1178_" class="st62" cx="32.5" cy="25" r="5"/>
		<circle id="XMLID_1177_" class="st63" cx="32.5" cy="25" r="2"/>
		<circle id="XMLID_1176_" class="st62" cx="15.5" cy="25" r="5"/>
		<circle id="XMLID_1175_" class="st63" cx="15.5" cy="25" r="2"/>
	</g>
</g>
</svg>
