<?xml version="1.0" encoding="utf-8"?>
<!-- Generator: Adobe Illustrator 21.1.0, SVG Export Plug-In . SVG Version: 6.00 Build 0)  -->
<svg version="1.1" xmlns="http://www.w3.org/2000/svg" xmlns:xlink="http://www.w3.org/1999/xlink" x="0px" y="0px"
	 viewBox="0 0 48 48" style="enable-background:new 0 0 48 48;" xml:space="preserve">
<style type="text/css">
	.st0{fill:#FFD4C3;stroke:#504B46;stroke-linecap:round;stroke-linejoin:round;stroke-miterlimit:10;}
	.st1{fill:#FFC258;}
	.st2{fill:#4F4B45;}
	.st3{fill:#FABFA5;}
	.st4{fill:none;stroke:#504B46;stroke-linecap:round;stroke-linejoin:round;stroke-miterlimit:10;}
	.Graphic_x0020_Style{opacity:0.15;fill:#45413C;}
	.st5{fill:#FFE500;}
	.st6{fill:#EBCB00;}
	.st7{fill:none;stroke:#45413C;stroke-linecap:round;stroke-linejoin:round;stroke-miterlimit:10;}
	.st8{fill:#FFF48C;}
	.st9{fill:#FFB0CA;stroke:#45413C;stroke-linecap:round;stroke-linejoin:round;stroke-miterlimit:10;}
	.st10{fill:#FF87AF;stroke:#45413C;stroke-linecap:round;stroke-linejoin:round;stroke-miterlimit:10;}
	.st11{fill:#FFFFFF;stroke:#45413C;stroke-linecap:round;stroke-linejoin:round;stroke-miterlimit:10;}
	.st12{opacity:0.15;fill:#45413C;}
	.st13{fill:#FFAA54;}
	.st14{fill:#FFF48C;stroke:#45413C;stroke-linecap:round;stroke-linejoin:round;stroke-miterlimit:10;}
	.st15{fill:#FF6242;}
	.st16{fill:#FF866E;}
	.st17{fill:#4AEFF7;stroke:#45413C;stroke-linecap:round;stroke-linejoin:round;stroke-miterlimit:10;}
	.st18{fill:#FFFACF;}
	.st19{fill:#FFFFFF;}
	.st20{fill:none;stroke:#45413C;stroke-linejoin:round;stroke-miterlimit:10;}
	.st21{fill:#FF866E;stroke:#45413C;stroke-linecap:round;stroke-linejoin:round;stroke-miterlimit:10;}
	.st22{fill:#DABFF5;stroke:#45413C;stroke-linejoin:round;stroke-miterlimit:10;}
	.st23{fill:#EDDBFF;}
	.st24{fill:#BF8256;stroke:#45413C;stroke-miterlimit:10;}
	.st25{fill:#DEA47A;}
	.st26{fill:#45413C;stroke:#45413C;stroke-linecap:round;stroke-linejoin:round;stroke-miterlimit:10;}
	.st27{fill:none;stroke:#45413C;stroke-miterlimit:10;}
	.st28{fill:#915E3A;}
	.st29{fill:#E8F4FA;}
	.st30{fill:#525252;stroke:#45413C;stroke-linecap:round;stroke-linejoin:round;stroke-miterlimit:10;}
	.st31{fill:#87898C;}
	.st32{fill:#656769;}
	.st33{fill:none;stroke:#45413C;stroke-linecap:round;stroke-miterlimit:10;}
	.st34{fill:#00DBA8;}
	.st35{fill:#00AD85;}
	.st36{fill:#BF8DF2;}
	.st37{fill:#DABFF5;}
	.st38{fill:#00F5BC;}
	.st39{fill:#4CF4FC;stroke:#45413C;stroke-linecap:round;stroke-linejoin:round;stroke-miterlimit:10;}
	.st40{fill:#E04122;}
	.st41{fill:#00B8F0;}
	.st42{fill:#4ACFFF;}
	.st43{fill:#B89558;stroke:#45413C;stroke-linecap:round;stroke-linejoin:round;stroke-miterlimit:10;}
	.st44{fill:#FF6242;stroke:#45413C;stroke-linecap:round;stroke-linejoin:round;stroke-miterlimit:10;}
	.st45{fill:#009FD9;}
	.st46{fill:#FFFFFF;stroke:#45413C;stroke-linejoin:round;stroke-miterlimit:10;}
	.st47{fill:none;stroke:#48CF3E;stroke-linecap:round;stroke-linejoin:round;stroke-miterlimit:10;}
	.st48{fill:none;stroke:#FF4064;stroke-linecap:round;stroke-linejoin:round;stroke-miterlimit:10;}
	.st49{fill:none;stroke:#FFB700;stroke-linecap:round;stroke-linejoin:round;stroke-miterlimit:10;}
	.st50{fill:none;stroke:#00AED9;stroke-linecap:round;stroke-linejoin:round;stroke-miterlimit:10;}
	.st51{fill:#F0F0F0;}
	.st52{fill:#8CFFE4;stroke:#45413C;stroke-linecap:round;stroke-linejoin:round;stroke-miterlimit:10;}
	.st53{fill:#E5FFF9;}
	.st54{fill:#6DD627;}
	.st55{fill:#46B000;}
	.st56{fill:#9CEB60;}
	.st57{fill:#E0E0E0;}
	.st58{fill:#DAEDF7;}
	.st59{fill:#C0DCEB;}
	.st60{fill:#ADC4D9;}
	.st61{fill:#ADC4D9;stroke:#45413C;stroke-linecap:round;stroke-linejoin:round;stroke-miterlimit:10;}
	.st62{fill:#00DFEB;stroke:#45413C;stroke-linecap:round;stroke-linejoin:round;stroke-miterlimit:10;}
	.st63{fill:#627B8C;stroke:#45413C;stroke-linecap:round;stroke-linejoin:round;stroke-miterlimit:10;}
	.st64{fill:#FF8A14;}
	.st65{fill:#FF8A14;stroke:#45413C;stroke-linecap:round;stroke-linejoin:round;stroke-miterlimit:10;}
	.st66{fill:#6DD627;stroke:#45413C;stroke-linecap:round;stroke-linejoin:round;stroke-miterlimit:10;}
	.st67{fill:#45413C;}
	.st68{fill:#8CA4B8;}
	.st69{fill:#00DBA8;stroke:#45413C;stroke-linecap:round;stroke-linejoin:round;stroke-miterlimit:10;}
	.st70{fill:#00B8F0;stroke:#45413C;stroke-linecap:round;stroke-linejoin:round;stroke-miterlimit:10;}
	.st71{fill:#FFE500;stroke:#45413C;stroke-linecap:round;stroke-linejoin:round;stroke-miterlimit:10;}
	.st72{fill:#F0F0F0;stroke:#45413C;stroke-linecap:round;stroke-linejoin:round;stroke-miterlimit:10;}
	.st73{fill:#525252;}
	.st74{fill:#E5F8FF;}
	.st75{fill:none;stroke:#FF6242;stroke-linecap:round;stroke-linejoin:round;stroke-miterlimit:10;}
	.st76{fill:url(#XMLID_10_);}
	.st77{fill:url(#XMLID_11_);}
	.st78{fill:url(#XMLID_12_);}
	.st79{fill:url(#XMLID_13_);}
	.st80{fill:#E5FEFF;stroke:#45413C;stroke-linecap:round;stroke-linejoin:round;stroke-miterlimit:10;}
	.st81{fill:#EBCB00;stroke:#45413C;stroke-linecap:round;stroke-linejoin:round;stroke-miterlimit:10;}
	.st82{fill:#BDBEC0;stroke:#45413C;stroke-linecap:round;stroke-linejoin:round;stroke-miterlimit:10;}
	.st83{fill:#F0D5A8;}
	.st84{fill:#DEBB7E;}
	.st85{fill:#B89558;}
	.st86{fill:#FFFCE5;}
	.st87{fill:#FF87AF;}
	.st88{fill:#4ACFFF;stroke:#45413C;stroke-linecap:round;stroke-linejoin:round;stroke-miterlimit:10;}
	.st89{fill:#BDBEC0;}
	.st90{fill:#FFDA8F;}
	.st91{fill:#FFBE3D;}
	.st92{fill:#FFE9BD;}
	.st93{fill:#FF6196;}
	.st94{fill:#E0366F;}
	.st95{fill:#E0366F;stroke:#45413C;stroke-linecap:round;stroke-linejoin:round;stroke-miterlimit:10;}
	.st96{fill:#45413C;stroke:#45413C;stroke-miterlimit:10;}
</style>
<symbol  id="New_Symbol_14" viewBox="-6.5 -6.5 13 13">
	<path class="st0" d="M0-6c2.2,0,4.1,1.5,4.7,3.5c0,0,0,0,0,0C6.3-2.5,6.4,0,5,0v1c0,2.8-2.2,5-5,5c-2.8,0-5-2.2-5-5V0
		c-1.4,0-1.3-2.5,0.2-2.5c0,0,0,0,0,0C-4.1-4.5-2.2-6,0-6z"/>
	<g>
		<circle class="st1" cx="-1.6" cy="-0.1" r="0.1"/>
		<path class="st2" d="M-1.6,0.5c-0.3,0-0.6-0.3-0.6-0.6S-2-0.8-1.6-0.8C-1.3-0.8-1-0.5-1-0.1S-1.3,0.5-1.6,0.5L-1.6,0.5z"/>
	</g>
	<g>
		<circle class="st1" cx="1.6" cy="-0.1" r="0.1"/>
		<path class="st2" d="M1.6,0.5C1.3,0.5,1,0.2,1-0.1s0.3-0.6,0.6-0.6c0.3,0,0.6,0.3,0.6,0.6S2,0.5,1.6,0.5L1.6,0.5z"/>
	</g>
	<circle class="st3" cx="-3" cy="-1.5" r="0.5"/>
	<circle class="st3" cx="3" cy="-1.5" r="0.5"/>
	<path class="st4" d="M-1.2-3c0.8-0.5,1.7-0.5,2.5,0"/>
</symbol>
<g id="Bg">
</g>
<g id="Icons">
	<g id="XMLID_710_">
		<circle id="XMLID_1483_" class="st5" cx="24" cy="21.3" r="20"/>
		<path id="XMLID_1480_" class="st6" d="M24,1.3c-11,0-20,9-20,20s9,20,20,20s20-9,20-20S35.1,1.3,24,1.3z M24,38.3
			C13.9,38.3,5.8,30.1,5.8,20C5.8,9.9,13.9,1.8,24,1.8S42.3,9.9,42.3,20C42.3,30.1,34.1,38.3,24,38.3z"/>
		<ellipse id="XMLID_1479_" class="st8" cx="24" cy="5.3" rx="6" ry="1.5"/>
		<ellipse id="XMLID_1478_" class="st12" cx="24" cy="45.2" rx="16" ry="1.5"/>
		<circle id="XMLID_1477_" class="st7" cx="24" cy="21.3" r="20"/>
		<ellipse id="XMLID_1476_" class="st13" cx="36" cy="26.3" rx="2.5" ry="1.5"/>
		<ellipse id="XMLID_1475_" class="st13" cx="12" cy="26.3" rx="2.5" ry="1.5"/>
		<path id="XMLID_1474_" class="st7" d="M36.3,17.8l-3.2,1.6c-0.7,0.4-0.7,1.4,0,1.8l3.2,1.6"/>
		<path id="XMLID_1473_" class="st7" d="M11.7,17.8l3.2,1.6c0.7,0.4,0.7,1.4,0,1.8l-3.2,1.6"/>
		<g id="XMLID_1469_">
			<path id="XMLID_1472_" class="st41" d="M38.8,43.7c-3.9-0.9-0.2-5.7-1.1-8.3C42.2,37.3,42.7,44.7,38.8,43.7z"/>
			<path id="XMLID_1471_" class="st42" d="M37.7,35.5c0,0.1,0,0.1,0.1,0.2c3.2,2.5,3.2,8.2-0.1,7.5c0.3,0.3,0.7,0.5,1.2,0.6
				C42.7,44.7,42.2,37.3,37.7,35.5z"/>
			<path id="XMLID_1470_" class="st7" d="M38.8,43.7c-3.9-0.9-0.2-5.7-1.1-8.3C42.2,37.3,42.7,44.7,38.8,43.7z"/>
		</g>
		<g id="XMLID_1465_">
			<path id="XMLID_1468_" class="st41" d="M34.1,40.2c-2.8,0.1-1.2-3.8-2.4-5.4C35.2,35.1,36.9,40,34.1,40.2z"/>
			<path id="XMLID_1467_" class="st42" d="M31.8,34.8c0,0,0.1,0.1,0.1,0.1c2.6,1.1,3.8,4.9,1.4,5.1c0.2,0.1,0.5,0.2,0.9,0.2
				C36.9,40,35.2,35.1,31.8,34.8z"/>
			<path id="XMLID_1466_" class="st7" d="M34.1,40.2c-2.8,0.1-1.2-3.8-2.4-5.4C35.2,35.1,36.9,40,34.1,40.2z"/>
		</g>
		<path id="XMLID_1464_" class="st7" d="M32.5,33.2l-1.8-1.8c-0.4-0.4-1-0.4-1.4,0L27.7,33c-0.4,0.4-1,0.4-1.4,0l-1.6-1.6
			c-0.4-0.4-1-0.4-1.4,0L21.7,33c-0.4,0.4-1,0.4-1.4,0l-1.6-1.6c-0.4-0.4-1-0.4-1.4,0l-1.8,1.8"/>
		<g id="XMLID_1457_">
			<path id="XMLID_1463_" class="st29" d="M22.4,26.8c0-1.9-2-3.1-3.7-2.2c-4.8,2.5-7.2,6.9-13.7,10.6c-0.8,0.5-1.2,1.4-0.9,2.3
				c0.3,0.9,1.1,1.5,2.1,1.4c0.4,0,0.8,0.1,1,0.4c0.3,0.3,0.4,0.7,0.3,1c0,0.2-0.1,0.4-0.1,0.6c-0.2,0.8,0.2,1.6,0.9,2.1
				s1.6,0.4,2.3-0.1c0.4-0.3,1-0.4,1.5-0.1c0.5,0.3,0.8,0.7,0.7,1.3c0,0.8,0.4,1.5,1.1,1.8c0.7,0.3,1.5,0.2,2.1-0.3
				C21.5,40.8,22.5,31.4,22.4,26.8z"/>
			<g id="XMLID_1461_">
				<path id="XMLID_1462_" class="st19" d="M4.6,38.4c0.1-0.5,0.5-0.9,0.9-1.1c6.5-3.7,8.9-8.1,13.7-10.6c1.2-0.6,2.4-0.2,3.1,0.7
					c0-0.2,0-0.4,0-0.6c0-1.9-2-3.1-3.7-2.2c-4.8,2.5-7.2,6.9-13.7,10.6c-0.8,0.5-1.2,1.4-0.9,2.3C4.2,37.9,4.4,38.2,4.6,38.4z"/>
			</g>
			<path id="XMLID_1460_" class="st20" d="M22.4,26.8c0-1.9-2-3.1-3.7-2.2c-4.8,2.5-7.2,6.9-13.7,10.6c-0.8,0.5-1.2,1.4-0.9,2.3
				c0.3,0.9,1.1,1.5,2.1,1.4c0.4,0,0.8,0.1,1,0.4c0.3,0.3,0.4,0.7,0.3,1c0,0.2-0.1,0.4-0.1,0.6c-0.2,0.8,0.2,1.6,0.9,2.1
				s1.6,0.4,2.3-0.1c0.4-0.3,1-0.4,1.5-0.1c0.5,0.3,0.8,0.7,0.7,1.3c0,0.8,0.4,1.5,1.1,1.8c0.7,0.3,1.5,0.2,2.1-0.3
				C21.5,40.8,22.5,31.4,22.4,26.8z"/>
			<path id="XMLID_1459_" class="st7" d="M7.2,39.4c0,0,5.5-3,8.4-8"/>
			<path id="XMLID_1458_" class="st7" d="M12,42.9c0,0,5.1-5.2,6.1-9.7"/>
		</g>
	</g>
</g>
</svg>
