<?xml version="1.0" encoding="utf-8"?>
<!-- Generator: Adobe Illustrator 21.1.0, SVG Export Plug-In . SVG Version: 6.00 Build 0)  -->
<svg version="1.1" xmlns="http://www.w3.org/2000/svg" xmlns:xlink="http://www.w3.org/1999/xlink" x="0px" y="0px"
	 viewBox="0 0 48 48" style="enable-background:new 0 0 48 48;" xml:space="preserve">
<style type="text/css">
	.st0{fill:#FFD4C3;stroke:#504B46;stroke-linecap:round;stroke-linejoin:round;stroke-miterlimit:10;}
	.st1{fill:#FFC258;}
	.st2{fill:#4F4B45;}
	.st3{fill:#FABFA5;}
	.st4{fill:none;stroke:#504B46;stroke-linecap:round;stroke-linejoin:round;stroke-miterlimit:10;}
	.Graphic_x0020_Style{opacity:0.15;fill:#45413C;}
	.st5{fill:#FFE500;}
	.st6{fill:#EBCB00;}
	.st7{fill:none;stroke:#45413C;stroke-linecap:round;stroke-linejoin:round;stroke-miterlimit:10;}
	.st8{fill:#FFF48C;}
	.st9{fill:#FFB0CA;stroke:#45413C;stroke-linecap:round;stroke-linejoin:round;stroke-miterlimit:10;}
	.st10{fill:#FF87AF;stroke:#45413C;stroke-linecap:round;stroke-linejoin:round;stroke-miterlimit:10;}
	.st11{fill:#FFFFFF;stroke:#45413C;stroke-linecap:round;stroke-linejoin:round;stroke-miterlimit:10;}
	.st12{opacity:0.15;fill:#45413C;}
	.st13{fill:#FFAA54;}
	.st14{fill:#FFF48C;stroke:#45413C;stroke-linecap:round;stroke-linejoin:round;stroke-miterlimit:10;}
	.st15{fill:#FF6242;}
	.st16{fill:#FF866E;}
	.st17{fill:#4AEFF7;stroke:#45413C;stroke-linecap:round;stroke-linejoin:round;stroke-miterlimit:10;}
	.st18{fill:#FFFACF;}
	.st19{fill:#FFFFFF;}
	.st20{fill:none;stroke:#45413C;stroke-linejoin:round;stroke-miterlimit:10;}
	.st21{fill:#FF866E;stroke:#45413C;stroke-linecap:round;stroke-linejoin:round;stroke-miterlimit:10;}
	.st22{fill:#DABFF5;stroke:#45413C;stroke-linejoin:round;stroke-miterlimit:10;}
	.st23{fill:#EDDBFF;}
	.st24{fill:#BF8256;stroke:#45413C;stroke-miterlimit:10;}
	.st25{fill:#DEA47A;}
	.st26{fill:#45413C;stroke:#45413C;stroke-linecap:round;stroke-linejoin:round;stroke-miterlimit:10;}
	.st27{fill:none;stroke:#45413C;stroke-miterlimit:10;}
	.st28{fill:#915E3A;}
	.st29{fill:#E8F4FA;}
	.st30{fill:#525252;stroke:#45413C;stroke-linecap:round;stroke-linejoin:round;stroke-miterlimit:10;}
	.st31{fill:#87898C;}
	.st32{fill:#656769;}
	.st33{fill:none;stroke:#45413C;stroke-linecap:round;stroke-miterlimit:10;}
	.st34{fill:#00DBA8;}
	.st35{fill:#00AD85;}
	.st36{fill:#BF8DF2;}
	.st37{fill:#DABFF5;}
	.st38{fill:#00F5BC;}
	.st39{fill:#4CF4FC;stroke:#45413C;stroke-linecap:round;stroke-linejoin:round;stroke-miterlimit:10;}
	.st40{fill:#E04122;}
	.st41{fill:#00B8F0;}
	.st42{fill:#4ACFFF;}
	.st43{fill:#B89558;stroke:#45413C;stroke-linecap:round;stroke-linejoin:round;stroke-miterlimit:10;}
	.st44{fill:#FF6242;stroke:#45413C;stroke-linecap:round;stroke-linejoin:round;stroke-miterlimit:10;}
	.st45{fill:#009FD9;}
	.st46{fill:#FFFFFF;stroke:#45413C;stroke-linejoin:round;stroke-miterlimit:10;}
	.st47{fill:none;stroke:#48CF3E;stroke-linecap:round;stroke-linejoin:round;stroke-miterlimit:10;}
	.st48{fill:none;stroke:#FF4064;stroke-linecap:round;stroke-linejoin:round;stroke-miterlimit:10;}
	.st49{fill:none;stroke:#FFB700;stroke-linecap:round;stroke-linejoin:round;stroke-miterlimit:10;}
	.st50{fill:none;stroke:#00AED9;stroke-linecap:round;stroke-linejoin:round;stroke-miterlimit:10;}
	.st51{fill:#F0F0F0;}
	.st52{fill:#8CFFE4;stroke:#45413C;stroke-linecap:round;stroke-linejoin:round;stroke-miterlimit:10;}
	.st53{fill:#E5FFF9;}
	.st54{fill:#6DD627;}
	.st55{fill:#46B000;}
	.st56{fill:#9CEB60;}
	.st57{fill:#E0E0E0;}
	.st58{fill:#DAEDF7;}
	.st59{fill:#C0DCEB;}
	.st60{fill:#ADC4D9;}
	.st61{fill:#ADC4D9;stroke:#45413C;stroke-linecap:round;stroke-linejoin:round;stroke-miterlimit:10;}
	.st62{fill:#00DFEB;stroke:#45413C;stroke-linecap:round;stroke-linejoin:round;stroke-miterlimit:10;}
	.st63{fill:#627B8C;stroke:#45413C;stroke-linecap:round;stroke-linejoin:round;stroke-miterlimit:10;}
	.st64{fill:#FF8A14;}
	.st65{fill:#FF8A14;stroke:#45413C;stroke-linecap:round;stroke-linejoin:round;stroke-miterlimit:10;}
	.st66{fill:#6DD627;stroke:#45413C;stroke-linecap:round;stroke-linejoin:round;stroke-miterlimit:10;}
	.st67{fill:#45413C;}
	.st68{fill:#8CA4B8;}
	.st69{fill:#00DBA8;stroke:#45413C;stroke-linecap:round;stroke-linejoin:round;stroke-miterlimit:10;}
	.st70{fill:#00B8F0;stroke:#45413C;stroke-linecap:round;stroke-linejoin:round;stroke-miterlimit:10;}
	.st71{fill:#FFE500;stroke:#45413C;stroke-linecap:round;stroke-linejoin:round;stroke-miterlimit:10;}
	.st72{fill:#F0F0F0;stroke:#45413C;stroke-linecap:round;stroke-linejoin:round;stroke-miterlimit:10;}
	.st73{fill:#525252;}
	.st74{fill:#E5F8FF;}
	.st75{fill:none;stroke:#FF6242;stroke-linecap:round;stroke-linejoin:round;stroke-miterlimit:10;}
	.st76{fill:url(#XMLID_10_);}
	.st77{fill:url(#XMLID_11_);}
	.st78{fill:url(#XMLID_12_);}
	.st79{fill:url(#XMLID_13_);}
	.st80{fill:#E5FEFF;stroke:#45413C;stroke-linecap:round;stroke-linejoin:round;stroke-miterlimit:10;}
	.st81{fill:#EBCB00;stroke:#45413C;stroke-linecap:round;stroke-linejoin:round;stroke-miterlimit:10;}
	.st82{fill:#BDBEC0;stroke:#45413C;stroke-linecap:round;stroke-linejoin:round;stroke-miterlimit:10;}
	.st83{fill:#F0D5A8;}
	.st84{fill:#DEBB7E;}
	.st85{fill:#B89558;}
	.st86{fill:#FFFCE5;}
	.st87{fill:#FF87AF;}
	.st88{fill:#4ACFFF;stroke:#45413C;stroke-linecap:round;stroke-linejoin:round;stroke-miterlimit:10;}
	.st89{fill:#BDBEC0;}
	.st90{fill:#FFDA8F;}
	.st91{fill:#FFBE3D;}
	.st92{fill:#FFE9BD;}
	.st93{fill:#FF6196;}
	.st94{fill:#E0366F;}
	.st95{fill:#E0366F;stroke:#45413C;stroke-linecap:round;stroke-linejoin:round;stroke-miterlimit:10;}
	.st96{fill:#45413C;stroke:#45413C;stroke-miterlimit:10;}
</style>
<symbol  id="New_Symbol_14" viewBox="-6.5 -6.5 13 13">
	<path class="st0" d="M0-6c2.2,0,4.1,1.5,4.7,3.5c0,0,0,0,0,0C6.3-2.5,6.4,0,5,0v1c0,2.8-2.2,5-5,5c-2.8,0-5-2.2-5-5V0
		c-1.4,0-1.3-2.5,0.2-2.5c0,0,0,0,0,0C-4.1-4.5-2.2-6,0-6z"/>
	<g>
		<circle class="st1" cx="-1.6" cy="-0.1" r="0.1"/>
		<path class="st2" d="M-1.6,0.5c-0.3,0-0.6-0.3-0.6-0.6S-2-0.8-1.6-0.8C-1.3-0.8-1-0.5-1-0.1S-1.3,0.5-1.6,0.5L-1.6,0.5z"/>
	</g>
	<g>
		<circle class="st1" cx="1.6" cy="-0.1" r="0.1"/>
		<path class="st2" d="M1.6,0.5C1.3,0.5,1,0.2,1-0.1s0.3-0.6,0.6-0.6c0.3,0,0.6,0.3,0.6,0.6S2,0.5,1.6,0.5L1.6,0.5z"/>
	</g>
	<circle class="st3" cx="-3" cy="-1.5" r="0.5"/>
	<circle class="st3" cx="3" cy="-1.5" r="0.5"/>
	<path class="st4" d="M-1.2-3c0.8-0.5,1.7-0.5,2.5,0"/>
</symbol>
<g id="Bg">
</g>
<g id="Icons">
	<g id="XMLID_574_">
		<circle id="XMLID_1654_" class="st5" cx="24" cy="26" r="15.5"/>
		<path id="XMLID_1653_" class="st6" d="M37.1,17.7c-2.8-4.3-7.6-7.2-13.1-7.2c-5.5,0-10.3,2.9-13.1,7.2c0.6,0.6,1.4,0.9,2.2,0.9
			c0.5,0,1-0.1,1.5-0.4c0,0,3.1-1.6,9.4-1.6c6.3,0,9.3,1.5,9.3,1.5C34.6,19,36.1,18.7,37.1,17.7z"/>
		<path id="XMLID_1650_" class="st6" d="M24,10.5c-8.6,0-15.5,6.9-15.5,15.5S15.5,41.5,24,41.5S39.5,34.6,39.5,26S32.6,10.5,24,10.5
			z M24,39.2c-7.8,0-14.1-6.3-14.1-14.1c0-7.8,6.3-14.1,14.1-14.1s14.1,6.3,14.1,14.1C38.2,32.9,31.8,39.2,24,39.2z"/>
		<ellipse id="XMLID_1649_" class="st12" cx="24" cy="45.9" rx="12.4" ry="1.5"/>
		<circle id="XMLID_1648_" class="st7" cx="24" cy="26" r="15.5"/>
		<g id="XMLID_1642_">
			<g id="XMLID_1646_">
				<path id="XMLID_1647_" class="st74" d="M13.1,16.7c-1.1,0-2.1-0.6-2.7-1.6c-0.8-1.5-0.3-3.4,1.2-4.2c0.4-0.2,4.4-2.3,12.4-2.3
					s11.9,2.1,12.4,2.3c1.5,0.8,2,2.7,1.2,4.2c-0.8,1.5-2.7,2-4.2,1.2l0,0c0,0-3.1-1.5-9.3-1.5c-6.3,0-9.4,1.6-9.4,1.6
					C14.2,16.6,13.7,16.7,13.1,16.7z"/>
			</g>
			<path id="XMLID_1645_" class="st19" d="M11.7,12.9c0.4-0.2,4.4-2.3,12.4-2.3s11.9,2.1,12.4,2.3c0.7,0.4,1.2,1,1.4,1.7
				c0.5-1.4-0.1-3-1.4-3.7C35.9,10.7,32,8.6,24,8.6s-11.9,2.1-12.4,2.3c-1.3,0.7-1.9,2.3-1.4,3.7C10.5,13.9,10.9,13.3,11.7,12.9z"/>
			<g id="XMLID_1643_">
				<path id="XMLID_1644_" class="st27" d="M13.1,16.7c-1.1,0-2.1-0.6-2.7-1.6c-0.8-1.5-0.3-3.4,1.2-4.2c0.4-0.2,4.4-2.3,12.4-2.3
					s11.9,2.1,12.4,2.3c1.5,0.8,2,2.7,1.2,4.2c-0.8,1.5-2.7,2-4.2,1.2l0,0c0,0-3.1-1.5-9.3-1.5c-6.3,0-9.4,1.6-9.4,1.6
					C14.2,16.6,13.7,16.7,13.1,16.7z"/>
			</g>
		</g>
		<ellipse id="XMLID_1641_" class="st13" cx="33.3" cy="29.9" rx="1.9" ry="1.2"/>
		<ellipse id="XMLID_1640_" class="st13" cx="14.7" cy="29.9" rx="1.9" ry="1.2"/>
		<circle id="XMLID_1639_" class="st26" cx="15.9" cy="25.3" r="0.8"/>
		<circle id="XMLID_1638_" class="st26" cx="32.2" cy="25.3" r="0.8"/>
		<path id="XMLID_1637_" class="st7" d="M15.6,22.7c0.8-0.1,1.7-0.4,2.6-0.9c0.9-0.4,1.6-1,2.2-1.6"/>
		<path id="XMLID_1636_" class="st7" d="M32.4,22.7c-0.8-0.1-1.7-0.4-2.6-0.9c-0.9-0.4-1.6-1-2.2-1.6"/>
		<path id="XMLID_1635_" class="st19" d="M27.7,46.9c-1.2,0.3-2.5-0.4-2.9-1.6L22,34.8c0.6-0.2,1.3-0.3,2-0.3c1,0,2,0.2,2.9,0.6
			l2.4,8.8C29.7,45.2,29,46.5,27.7,46.9z"/>
		<g id="XMLID_1633_">
			<path id="XMLID_1634_" class="st74" d="M29.4,44l-0.2-0.7c-0.1,1-0.8,1.8-1.8,2.1c-1,0.3-2.1-0.1-2.7-0.9l0.2,0.7
				c0.3,1.2,1.6,2,2.9,1.6C29,46.5,29.7,45.2,29.4,44z"/>
		</g>
		<path id="XMLID_1632_" class="st7" d="M27.7,46.9c-1.2,0.3-2.5-0.4-2.9-1.6L22,34.8c0.6-0.2,1.3-0.3,2-0.3c1,0,2,0.2,2.9,0.6
			l2.4,8.8C29.7,45.2,29,46.5,27.7,46.9z"/>
		<line id="XMLID_1631_" class="st75" x1="27.3" y1="43.8" x2="24.7" y2="34.6"/>
		<line id="XMLID_1630_" class="st7" x1="23.8" y1="41.5" x2="25.3" y2="41.1"/>
		<line id="XMLID_1629_" class="st7" x1="24.5" y1="43.7" x2="26" y2="43.3"/>
		<line id="XMLID_1628_" class="st7" x1="23.2" y1="39.3" x2="24.7" y2="38.9"/>
		<line id="XMLID_1627_" class="st7" x1="22.6" y1="37" x2="24.1" y2="36.6"/>
		<path id="XMLID_1626_" class="st33" d="M20.1,35.7c1.1-0.7,2.4-1.2,3.9-1.2c1.4,0,2.8,0.4,3.9,1.2"/>
		<path id="XMLID_1625_" class="st7" d="M16.5,1.7c-2.4,2.2,2.6,3.2-0.4,5.6"/>
		<path id="XMLID_1624_" class="st7" d="M30.8,1.7c-2.4,2.2,2.6,3.2-0.4,5.6"/>
		<path id="XMLID_1623_" class="st7" d="M23.7,0.6c-2.4,2.2,2.6,3.2-0.4,5.6"/>
	</g>
</g>
</svg>
