<?xml version="1.0" encoding="utf-8"?>
<!-- Generator: Adobe Illustrator 21.1.0, SVG Export Plug-In . SVG Version: 6.00 Build 0)  -->
<svg version="1.1" xmlns="http://www.w3.org/2000/svg" xmlns:xlink="http://www.w3.org/1999/xlink" x="0px" y="0px"
	 viewBox="0 0 48 48" style="enable-background:new 0 0 48 48;" xml:space="preserve">
<style type="text/css">
	.st0{fill:#FFD4C3;stroke:#504B46;stroke-linecap:round;stroke-linejoin:round;stroke-miterlimit:10;}
	.st1{fill:#FFC258;}
	.st2{fill:#4F4B45;}
	.st3{fill:#FABFA5;}
	.st4{fill:none;stroke:#504B46;stroke-linecap:round;stroke-linejoin:round;stroke-miterlimit:10;}
	.Graphic_x0020_Style{opacity:0.15;fill:#45413C;}
	.st5{fill:#FFE500;}
	.st6{fill:#EBCB00;}
	.st7{fill:none;stroke:#45413C;stroke-linecap:round;stroke-linejoin:round;stroke-miterlimit:10;}
	.st8{fill:#FFF48C;}
	.st9{fill:#FFB0CA;stroke:#45413C;stroke-linecap:round;stroke-linejoin:round;stroke-miterlimit:10;}
	.st10{fill:#FF87AF;stroke:#45413C;stroke-linecap:round;stroke-linejoin:round;stroke-miterlimit:10;}
	.st11{fill:#FFFFFF;stroke:#45413C;stroke-linecap:round;stroke-linejoin:round;stroke-miterlimit:10;}
	.st12{opacity:0.15;fill:#45413C;}
	.st13{fill:#FFAA54;}
	.st14{fill:#FFF48C;stroke:#45413C;stroke-linecap:round;stroke-linejoin:round;stroke-miterlimit:10;}
	.st15{fill:#FF6242;}
	.st16{fill:#FF866E;}
	.st17{fill:#4AEFF7;stroke:#45413C;stroke-linecap:round;stroke-linejoin:round;stroke-miterlimit:10;}
	.st18{fill:#FFFACF;}
	.st19{fill:#FFFFFF;}
	.st20{fill:none;stroke:#45413C;stroke-linejoin:round;stroke-miterlimit:10;}
	.st21{fill:#FF866E;stroke:#45413C;stroke-linecap:round;stroke-linejoin:round;stroke-miterlimit:10;}
	.st22{fill:#DABFF5;stroke:#45413C;stroke-linejoin:round;stroke-miterlimit:10;}
	.st23{fill:#EDDBFF;}
	.st24{fill:#BF8256;stroke:#45413C;stroke-miterlimit:10;}
	.st25{fill:#DEA47A;}
	.st26{fill:#45413C;stroke:#45413C;stroke-linecap:round;stroke-linejoin:round;stroke-miterlimit:10;}
	.st27{fill:none;stroke:#45413C;stroke-miterlimit:10;}
	.st28{fill:#915E3A;}
	.st29{fill:#E8F4FA;}
	.st30{fill:#525252;stroke:#45413C;stroke-linecap:round;stroke-linejoin:round;stroke-miterlimit:10;}
	.st31{fill:#87898C;}
	.st32{fill:#656769;}
	.st33{fill:none;stroke:#45413C;stroke-linecap:round;stroke-miterlimit:10;}
	.st34{fill:#00DBA8;}
	.st35{fill:#00AD85;}
	.st36{fill:#BF8DF2;}
	.st37{fill:#DABFF5;}
	.st38{fill:#00F5BC;}
	.st39{fill:#4CF4FC;stroke:#45413C;stroke-linecap:round;stroke-linejoin:round;stroke-miterlimit:10;}
	.st40{fill:#E04122;}
	.st41{fill:#00B8F0;}
	.st42{fill:#4ACFFF;}
	.st43{fill:#B89558;stroke:#45413C;stroke-linecap:round;stroke-linejoin:round;stroke-miterlimit:10;}
	.st44{fill:#FF6242;stroke:#45413C;stroke-linecap:round;stroke-linejoin:round;stroke-miterlimit:10;}
	.st45{fill:#009FD9;}
	.st46{fill:#FFFFFF;stroke:#45413C;stroke-linejoin:round;stroke-miterlimit:10;}
	.st47{fill:none;stroke:#48CF3E;stroke-linecap:round;stroke-linejoin:round;stroke-miterlimit:10;}
	.st48{fill:none;stroke:#FF4064;stroke-linecap:round;stroke-linejoin:round;stroke-miterlimit:10;}
	.st49{fill:none;stroke:#FFB700;stroke-linecap:round;stroke-linejoin:round;stroke-miterlimit:10;}
	.st50{fill:none;stroke:#00AED9;stroke-linecap:round;stroke-linejoin:round;stroke-miterlimit:10;}
	.st51{fill:#F0F0F0;}
	.st52{fill:#8CFFE4;stroke:#45413C;stroke-linecap:round;stroke-linejoin:round;stroke-miterlimit:10;}
	.st53{fill:#E5FFF9;}
	.st54{fill:#6DD627;}
	.st55{fill:#46B000;}
	.st56{fill:#9CEB60;}
	.st57{fill:#E0E0E0;}
	.st58{fill:#DAEDF7;}
	.st59{fill:#C0DCEB;}
	.st60{fill:#ADC4D9;}
	.st61{fill:#ADC4D9;stroke:#45413C;stroke-linecap:round;stroke-linejoin:round;stroke-miterlimit:10;}
	.st62{fill:#00DFEB;stroke:#45413C;stroke-linecap:round;stroke-linejoin:round;stroke-miterlimit:10;}
	.st63{fill:#627B8C;stroke:#45413C;stroke-linecap:round;stroke-linejoin:round;stroke-miterlimit:10;}
	.st64{fill:#FF8A14;}
	.st65{fill:#FF8A14;stroke:#45413C;stroke-linecap:round;stroke-linejoin:round;stroke-miterlimit:10;}
	.st66{fill:#6DD627;stroke:#45413C;stroke-linecap:round;stroke-linejoin:round;stroke-miterlimit:10;}
	.st67{fill:#45413C;}
	.st68{fill:#8CA4B8;}
	.st69{fill:#00DBA8;stroke:#45413C;stroke-linecap:round;stroke-linejoin:round;stroke-miterlimit:10;}
	.st70{fill:#00B8F0;stroke:#45413C;stroke-linecap:round;stroke-linejoin:round;stroke-miterlimit:10;}
	.st71{fill:#FFE500;stroke:#45413C;stroke-linecap:round;stroke-linejoin:round;stroke-miterlimit:10;}
	.st72{fill:#F0F0F0;stroke:#45413C;stroke-linecap:round;stroke-linejoin:round;stroke-miterlimit:10;}
	.st73{fill:#525252;}
	.st74{fill:#E5F8FF;}
	.st75{fill:none;stroke:#FF6242;stroke-linecap:round;stroke-linejoin:round;stroke-miterlimit:10;}
	.st76{fill:url(#XMLID_10_);}
	.st77{fill:url(#XMLID_11_);}
	.st78{fill:url(#XMLID_12_);}
	.st79{fill:url(#XMLID_13_);}
	.st80{fill:#E5FEFF;stroke:#45413C;stroke-linecap:round;stroke-linejoin:round;stroke-miterlimit:10;}
	.st81{fill:#EBCB00;stroke:#45413C;stroke-linecap:round;stroke-linejoin:round;stroke-miterlimit:10;}
	.st82{fill:#BDBEC0;stroke:#45413C;stroke-linecap:round;stroke-linejoin:round;stroke-miterlimit:10;}
	.st83{fill:#F0D5A8;}
	.st84{fill:#DEBB7E;}
	.st85{fill:#B89558;}
	.st86{fill:#FFFCE5;}
	.st87{fill:#FF87AF;}
	.st88{fill:#4ACFFF;stroke:#45413C;stroke-linecap:round;stroke-linejoin:round;stroke-miterlimit:10;}
	.st89{fill:#BDBEC0;}
	.st90{fill:#FFDA8F;}
	.st91{fill:#FFBE3D;}
	.st92{fill:#FFE9BD;}
	.st93{fill:#FF6196;}
	.st94{fill:#E0366F;}
	.st95{fill:#E0366F;stroke:#45413C;stroke-linecap:round;stroke-linejoin:round;stroke-miterlimit:10;}
	.st96{fill:#45413C;stroke:#45413C;stroke-miterlimit:10;}
</style>
<symbol  id="New_Symbol_14" viewBox="-6.5 -6.5 13 13">
	<path class="st0" d="M0-6c2.2,0,4.1,1.5,4.7,3.5c0,0,0,0,0,0C6.3-2.5,6.4,0,5,0v1c0,2.8-2.2,5-5,5c-2.8,0-5-2.2-5-5V0
		c-1.4,0-1.3-2.5,0.2-2.5c0,0,0,0,0,0C-4.1-4.5-2.2-6,0-6z"/>
	<g>
		<circle class="st1" cx="-1.6" cy="-0.1" r="0.1"/>
		<path class="st2" d="M-1.6,0.5c-0.3,0-0.6-0.3-0.6-0.6S-2-0.8-1.6-0.8C-1.3-0.8-1-0.5-1-0.1S-1.3,0.5-1.6,0.5L-1.6,0.5z"/>
	</g>
	<g>
		<circle class="st1" cx="1.6" cy="-0.1" r="0.1"/>
		<path class="st2" d="M1.6,0.5C1.3,0.5,1,0.2,1-0.1s0.3-0.6,0.6-0.6c0.3,0,0.6,0.3,0.6,0.6S2,0.5,1.6,0.5L1.6,0.5z"/>
	</g>
	<circle class="st3" cx="-3" cy="-1.5" r="0.5"/>
	<circle class="st3" cx="3" cy="-1.5" r="0.5"/>
	<path class="st4" d="M-1.2-3c0.8-0.5,1.7-0.5,2.5,0"/>
</symbol>
<g id="Bg">
</g>
<g id="Icons">
	<g id="XMLID_726_">
		<path id="XMLID_1241_" class="st64" d="M2.7,38.9c-1.9-1.2-2.4-3.7-1.2-5.6l7.5,4.9c-1.2,1.9-3.7,2.4-5.6,1.2L2.7,38.9z"/>
		<path id="XMLID_1240_" class="st65" d="M47.2,35.5c0,2.2-1.8,4.1-4.1,4.1v-8.9c2.2,0,4.1,1.8,4.1,4.1V35.5z"/>
		<path id="XMLID_1239_" class="st61" d="M33,16.8h-8.9l0.5-2c0.2-0.7,0.8-1.2,1.6-1.2h4.8c0.7,0,1.4,0.5,1.6,1.2L33,16.8z"/>
		<path id="XMLID_1238_" class="st5" d="M43.1,41.5c0,1.8-1.5,3.2-3.2,3.2H17.2c-1.8,0-3.2-1.5-3.2-3.2V30.6
			C14,22.5,20.5,16,28.5,16s14.6,6.5,14.6,14.6V41.5z"/>
		<path id="XMLID_1237_" class="st8" d="M28.5,16C20.5,16,14,22.5,14,30.6v4.1c0-8.1,6.5-14.6,14.6-14.6s14.6,6.5,14.6,14.6v-4.1
			C43.1,22.5,36.6,16,28.5,16z"/>
		<path id="XMLID_1236_" class="st7" d="M43.1,41.5c0,1.8-1.5,3.2-3.2,3.2H17.2c-1.8,0-3.2-1.5-3.2-3.2V30.6
			C14,22.5,20.5,16,28.5,16s14.6,6.5,14.6,14.6V41.5z"/>
		<ellipse id="XMLID_1235_" class="st12" cx="28.5" cy="45.9" rx="16.5" ry="1.5"/>
		<path id="XMLID_1234_" class="st59" d="M39.1,44.4c0,0.9-0.7,1.6-1.6,1.6H19.6c-0.9,0-1.6-0.7-1.6-1.6v-4.9c0-0.9,0.7-1.6,1.6-1.6
			h17.8c0.9,0,1.6,0.7,1.6,1.6V44.4z"/>
		<path id="XMLID_1233_" class="st58" d="M39.1,39.5c0-0.9-0.7-1.6-1.6-1.6H19.6c-0.9,0-1.6,0.7-1.6,1.6v2c0-0.9,0.7-1.6,1.6-1.6
			h17.8c0.9,0,1.6,0.7,1.6,1.6V39.5z"/>
		<path id="XMLID_1232_" class="st7" d="M39.1,44.4c0,0.9-0.7,1.6-1.6,1.6H19.6c-0.9,0-1.6-0.7-1.6-1.6v-4.9c0-0.9,0.7-1.6,1.6-1.6
			h17.8c0.9,0,1.6,0.7,1.6,1.6V44.4z"/>
		<circle id="XMLID_1231_" class="st11" cx="35.4" cy="29" r="4.5"/>
		<circle id="XMLID_1230_" class="st44" cx="35.4" cy="29" r="1.6"/>
		<circle id="XMLID_1229_" class="st11" cx="21.7" cy="29" r="4.1"/>
		<circle id="XMLID_1228_" class="st66" cx="21.7" cy="29" r="1.6"/>
		<line id="XMLID_1227_" class="st7" x1="28.5" y1="16" x2="28.5" y2="37.9"/>
		<line id="XMLID_1226_" class="st7" x1="35.4" y1="26.1" x2="35.4" y2="24.5"/>
		<line id="XMLID_1225_" class="st7" x1="37.4" y1="27" x2="38.6" y2="25.8"/>
		<line id="XMLID_1224_" class="st7" x1="38.3" y1="29" x2="39.9" y2="29"/>
		<line id="XMLID_1223_" class="st7" x1="37.4" y1="31" x2="38.6" y2="32.1"/>
		<line id="XMLID_1222_" class="st7" x1="35.4" y1="31.8" x2="35.4" y2="33.4"/>
		<line id="XMLID_1221_" class="st7" x1="33.4" y1="31" x2="32.3" y2="32.1"/>
		<line id="XMLID_1220_" class="st7" x1="32.6" y1="29" x2="31" y2="29"/>
		<line id="XMLID_1219_" class="st7" x1="33.4" y1="27" x2="32.3" y2="25.8"/>
		<g id="XMLID_1218_">
			<circle id="XMLID_748_" class="st59" cx="20" cy="39.5" r="0.4"/>
			<path id="XMLID_747_" class="st67" d="M20,39.1c-0.2,0-0.4,0.2-0.4,0.4s0.2,0.4,0.4,0.4c0.2,0,0.4-0.2,0.4-0.4S20.3,39.1,20,39.1
				L20,39.1z"/>
		</g>
		<g id="XMLID_1217_">
			<circle id="XMLID_745_" class="st59" cx="37.1" cy="39.5" r="0.4"/>
			<path id="XMLID_744_" class="st67" d="M37.1,39.1c-0.2,0-0.4,0.2-0.4,0.4s0.2,0.4,0.4,0.4s0.4-0.2,0.4-0.4S37.3,39.1,37.1,39.1
				L37.1,39.1z"/>
		</g>
		<polyline id="XMLID_1214_" class="st7" points="28.5,13.6 28.5,11.2 33,9.9 27.7,5.1 35.4,7.1 37.1,3.9 		"/>
		<circle id="XMLID_1209_" class="st44" cx="37.5" cy="2.6" r="2"/>
		<path id="XMLID_1208_" class="st7" d="M14,36.3c0,0-0.4-5.3-2.8-4.9c-2.9,0.5-2,7.7,0.4,7.3c2-0.3-1.6-6.9-4.5-6.1
			c-1.6,0.5-1.9,2.3-2,3"/>
		<path id="XMLID_1207_" class="st13" d="M43.1,30.6v2c2,0,3.7,1.5,4,3.4c0-0.2,0.1-0.4,0.1-0.6v-0.8C47.2,32.4,45.4,30.6,43.1,30.6
			z"/>
		<path id="XMLID_1206_" class="st7" d="M47.2,35.5c0,2.2-1.8,4.1-4.1,4.1v-8.9c2.2,0,4.1,1.8,4.1,4.1V35.5z"/>
		<path id="XMLID_1205_" class="st13" d="M1.4,33.5c0,1.5,0.8,3,2.3,4l0.8,0.5c1.4,0.9,3,1,4.3,0.6c0.1-0.1,0.2-0.2,0.3-0.3
			l-7.5-4.9C1.4,33.4,1.4,33.4,1.4,33.5z"/>
		<path id="XMLID_1204_" class="st7" d="M2.7,38.9c-1.9-1.2-2.4-3.7-1.2-5.6l7.5,4.9c-1.2,1.9-3.7,2.4-5.6,1.2L2.7,38.9z"/>
	</g>
</g>
</svg>
