<?xml version="1.0" encoding="utf-8"?>
<!-- Generator: Adobe Illustrator 21.1.0, SVG Export Plug-In . SVG Version: 6.00 Build 0)  -->
<svg version="1.1" xmlns="http://www.w3.org/2000/svg" xmlns:xlink="http://www.w3.org/1999/xlink" x="0px" y="0px"
	 viewBox="0 0 48 48" style="enable-background:new 0 0 48 48;" xml:space="preserve">
<style type="text/css">
	.st0{fill:#FFD4C3;stroke:#504B46;stroke-linecap:round;stroke-linejoin:round;stroke-miterlimit:10;}
	.st1{fill:#FFC258;}
	.st2{fill:#4F4B45;}
	.st3{fill:#FABFA5;}
	.st4{fill:none;stroke:#504B46;stroke-linecap:round;stroke-linejoin:round;stroke-miterlimit:10;}
	.Graphic_x0020_Style{opacity:0.15;fill:#45413C;}
	.st5{fill:#FFE500;}
	.st6{fill:#EBCB00;}
	.st7{fill:none;stroke:#45413C;stroke-linecap:round;stroke-linejoin:round;stroke-miterlimit:10;}
	.st8{fill:#FFF48C;}
	.st9{fill:#FFB0CA;stroke:#45413C;stroke-linecap:round;stroke-linejoin:round;stroke-miterlimit:10;}
	.st10{fill:#FF87AF;stroke:#45413C;stroke-linecap:round;stroke-linejoin:round;stroke-miterlimit:10;}
	.st11{fill:#FFFFFF;stroke:#45413C;stroke-linecap:round;stroke-linejoin:round;stroke-miterlimit:10;}
	.st12{opacity:0.15;fill:#45413C;}
	.st13{fill:#FFAA54;}
	.st14{fill:#FFF48C;stroke:#45413C;stroke-linecap:round;stroke-linejoin:round;stroke-miterlimit:10;}
	.st15{fill:#FF6242;}
	.st16{fill:#FF866E;}
	.st17{fill:#4AEFF7;stroke:#45413C;stroke-linecap:round;stroke-linejoin:round;stroke-miterlimit:10;}
	.st18{fill:#FFFACF;}
	.st19{fill:#FFFFFF;}
	.st20{fill:none;stroke:#45413C;stroke-linejoin:round;stroke-miterlimit:10;}
	.st21{fill:#FF866E;stroke:#45413C;stroke-linecap:round;stroke-linejoin:round;stroke-miterlimit:10;}
	.st22{fill:#DABFF5;stroke:#45413C;stroke-linejoin:round;stroke-miterlimit:10;}
	.st23{fill:#EDDBFF;}
	.st24{fill:#BF8256;stroke:#45413C;stroke-miterlimit:10;}
	.st25{fill:#DEA47A;}
	.st26{fill:#45413C;stroke:#45413C;stroke-linecap:round;stroke-linejoin:round;stroke-miterlimit:10;}
	.st27{fill:none;stroke:#45413C;stroke-miterlimit:10;}
	.st28{fill:#915E3A;}
	.st29{fill:#E8F4FA;}
	.st30{fill:#525252;stroke:#45413C;stroke-linecap:round;stroke-linejoin:round;stroke-miterlimit:10;}
	.st31{fill:#87898C;}
	.st32{fill:#656769;}
	.st33{fill:none;stroke:#45413C;stroke-linecap:round;stroke-miterlimit:10;}
	.st34{fill:#00DBA8;}
	.st35{fill:#00AD85;}
	.st36{fill:#BF8DF2;}
	.st37{fill:#DABFF5;}
	.st38{fill:#00F5BC;}
	.st39{fill:#4CF4FC;stroke:#45413C;stroke-linecap:round;stroke-linejoin:round;stroke-miterlimit:10;}
	.st40{fill:#E04122;}
	.st41{fill:#00B8F0;}
	.st42{fill:#4ACFFF;}
	.st43{fill:#B89558;stroke:#45413C;stroke-linecap:round;stroke-linejoin:round;stroke-miterlimit:10;}
	.st44{fill:#FF6242;stroke:#45413C;stroke-linecap:round;stroke-linejoin:round;stroke-miterlimit:10;}
	.st45{fill:#009FD9;}
	.st46{fill:#FFFFFF;stroke:#45413C;stroke-linejoin:round;stroke-miterlimit:10;}
	.st47{fill:none;stroke:#48CF3E;stroke-linecap:round;stroke-linejoin:round;stroke-miterlimit:10;}
	.st48{fill:none;stroke:#FF4064;stroke-linecap:round;stroke-linejoin:round;stroke-miterlimit:10;}
	.st49{fill:none;stroke:#FFB700;stroke-linecap:round;stroke-linejoin:round;stroke-miterlimit:10;}
	.st50{fill:none;stroke:#00AED9;stroke-linecap:round;stroke-linejoin:round;stroke-miterlimit:10;}
	.st51{fill:#F0F0F0;}
	.st52{fill:#8CFFE4;stroke:#45413C;stroke-linecap:round;stroke-linejoin:round;stroke-miterlimit:10;}
	.st53{fill:#E5FFF9;}
	.st54{fill:#6DD627;}
	.st55{fill:#46B000;}
	.st56{fill:#9CEB60;}
	.st57{fill:#E0E0E0;}
	.st58{fill:#DAEDF7;}
	.st59{fill:#C0DCEB;}
	.st60{fill:#ADC4D9;}
	.st61{fill:#ADC4D9;stroke:#45413C;stroke-linecap:round;stroke-linejoin:round;stroke-miterlimit:10;}
	.st62{fill:#00DFEB;stroke:#45413C;stroke-linecap:round;stroke-linejoin:round;stroke-miterlimit:10;}
	.st63{fill:#627B8C;stroke:#45413C;stroke-linecap:round;stroke-linejoin:round;stroke-miterlimit:10;}
	.st64{fill:#FF8A14;}
	.st65{fill:#FF8A14;stroke:#45413C;stroke-linecap:round;stroke-linejoin:round;stroke-miterlimit:10;}
	.st66{fill:#6DD627;stroke:#45413C;stroke-linecap:round;stroke-linejoin:round;stroke-miterlimit:10;}
	.st67{fill:#45413C;}
	.st68{fill:#8CA4B8;}
	.st69{fill:#00DBA8;stroke:#45413C;stroke-linecap:round;stroke-linejoin:round;stroke-miterlimit:10;}
	.st70{fill:#00B8F0;stroke:#45413C;stroke-linecap:round;stroke-linejoin:round;stroke-miterlimit:10;}
	.st71{fill:#FFE500;stroke:#45413C;stroke-linecap:round;stroke-linejoin:round;stroke-miterlimit:10;}
	.st72{fill:#F0F0F0;stroke:#45413C;stroke-linecap:round;stroke-linejoin:round;stroke-miterlimit:10;}
	.st73{fill:#525252;}
	.st74{fill:#E5F8FF;}
	.st75{fill:none;stroke:#FF6242;stroke-linecap:round;stroke-linejoin:round;stroke-miterlimit:10;}
	.st76{fill:url(#XMLID_10_);}
	.st77{fill:url(#XMLID_11_);}
	.st78{fill:url(#XMLID_12_);}
	.st79{fill:url(#XMLID_13_);}
	.st80{fill:#E5FEFF;stroke:#45413C;stroke-linecap:round;stroke-linejoin:round;stroke-miterlimit:10;}
	.st81{fill:#EBCB00;stroke:#45413C;stroke-linecap:round;stroke-linejoin:round;stroke-miterlimit:10;}
	.st82{fill:#BDBEC0;stroke:#45413C;stroke-linecap:round;stroke-linejoin:round;stroke-miterlimit:10;}
	.st83{fill:#F0D5A8;}
	.st84{fill:#DEBB7E;}
	.st85{fill:#B89558;}
	.st86{fill:#FFFCE5;}
	.st87{fill:#FF87AF;}
	.st88{fill:#4ACFFF;stroke:#45413C;stroke-linecap:round;stroke-linejoin:round;stroke-miterlimit:10;}
	.st89{fill:#BDBEC0;}
	.st90{fill:#FFDA8F;}
	.st91{fill:#FFBE3D;}
	.st92{fill:#FFE9BD;}
	.st93{fill:#FF6196;}
	.st94{fill:#E0366F;}
	.st95{fill:#E0366F;stroke:#45413C;stroke-linecap:round;stroke-linejoin:round;stroke-miterlimit:10;}
	.st96{fill:#45413C;stroke:#45413C;stroke-miterlimit:10;}
</style>
<symbol  id="New_Symbol_14" viewBox="-6.5 -6.5 13 13">
	<path class="st0" d="M0-6c2.2,0,4.1,1.5,4.7,3.5c0,0,0,0,0,0C6.3-2.5,6.4,0,5,0v1c0,2.8-2.2,5-5,5c-2.8,0-5-2.2-5-5V0
		c-1.4,0-1.3-2.5,0.2-2.5c0,0,0,0,0,0C-4.1-4.5-2.2-6,0-6z"/>
	<g>
		<circle class="st1" cx="-1.6" cy="-0.1" r="0.1"/>
		<path class="st2" d="M-1.6,0.5c-0.3,0-0.6-0.3-0.6-0.6S-2-0.8-1.6-0.8C-1.3-0.8-1-0.5-1-0.1S-1.3,0.5-1.6,0.5L-1.6,0.5z"/>
	</g>
	<g>
		<circle class="st1" cx="1.6" cy="-0.1" r="0.1"/>
		<path class="st2" d="M1.6,0.5C1.3,0.5,1,0.2,1-0.1s0.3-0.6,0.6-0.6c0.3,0,0.6,0.3,0.6,0.6S2,0.5,1.6,0.5L1.6,0.5z"/>
	</g>
	<circle class="st3" cx="-3" cy="-1.5" r="0.5"/>
	<circle class="st3" cx="3" cy="-1.5" r="0.5"/>
	<path class="st4" d="M-1.2-3c0.8-0.5,1.7-0.5,2.5,0"/>
</symbol>
<g id="Bg">
</g>
<g id="Icons">
	<g id="XMLID_410_">
		<ellipse id="XMLID_419_" class="st12" cx="24" cy="45.4" rx="12.4" ry="1.7"/>
		<circle id="XMLID_406_" class="st5" cx="24" cy="17.7" r="16.4"/>
		<path id="XMLID_403_" class="st6" d="M24,1.3c-9,0-16.4,7.3-16.4,16.4S15,34.1,24,34.1s16.4-7.3,16.4-16.4S33,1.3,24,1.3z
			 M24,31.6c-8.2,0-14.9-6.7-14.9-14.9C9.1,8.4,15.8,1.7,24,1.7s14.9,6.7,14.9,14.9C38.9,24.9,32.2,31.6,24,31.6z"/>
		<ellipse id="XMLID_402_" class="st8" cx="24" cy="4.6" rx="4.9" ry="1.2"/>
		<circle id="XMLID_401_" class="st7" cx="24" cy="17.7" r="16.4"/>
		<ellipse id="XMLID_399_" class="st13" cx="35" cy="21.8" rx="2" ry="1.2"/>
		<ellipse id="XMLID_398_" class="st13" cx="13" cy="21.8" rx="2" ry="1.2"/>
		<g id="XMLID_396_">
			<path id="XMLID_397_" class="st9" d="M17.8,22.6c0.4,6.6,4.2,9.3,5.6,10.1c0.3,0.2,0.8,0.2,1.1,0c1.4-0.8,5.2-3.5,5.6-10.1
				c0-0.6-0.5-1.2-1.1-1.2H18.9C18.3,21.4,17.8,22,17.8,22.6z"/>
		</g>
		<g id="XMLID_392_">
			<path id="XMLID_395_" class="st15" d="M24,27.1c0-1.2,3.7-0.9,3.7,0.4v5.3c0,2-1.6,3.7-3.7,3.7s-3.7-1.6-3.7-3.7v-5.3
				C20.3,26.2,24,25.9,24,27.1z"/>
			<path id="XMLID_394_" class="st16" d="M24,27.1c0-1.2-3.7-0.9-3.7,0.4v1.6c0-1.3,7.4-1.3,7.4,0v-1.6C27.7,26.2,24,25.9,24,27.1z"
				/>
			<path id="XMLID_393_" class="st7" d="M24,27.1c0-1.2,3.7-0.9,3.7,0.4v5.3c0,2-1.6,3.7-3.7,3.7s-3.7-1.6-3.7-3.7v-5.3
				C20.3,26.2,24,25.9,24,27.1z"/>
		</g>
		<path id="XMLID_391_" class="st17" d="M28.1,41.2c0,2.5-3.3,2.5-3.3,0c0-1.4,1.6-3.4,1.6-3.4S28.1,39.7,28.1,41.2z"/>
		<g id="XMLID_380_">
			<g id="XMLID_384_">
				<path id="XMLID_390_" class="st12" d="M30.2,2.6C27,4,24.8,7.2,24.8,10.9c0,5.1,4.1,9.2,9.2,9.2c2.5,0,4.7-1,6.3-2.5
					C40.3,10.8,36.2,5,30.2,2.6z"/>
				<g id="XMLID_385_">
					<circle id="XMLID_389_" class="st18" cx="33.5" cy="9.4" r="8.5"/>
					<path id="XMLID_388_" class="st5" d="M33.5,16.3c-4.4,0-8-3.4-8.4-7.7c0,0.3,0,0.5,0,0.8c0,4.7,3.8,8.5,8.5,8.5
						c4.7,0,8.5-3.8,8.5-8.5c0-0.3,0-0.5,0-0.8C41.6,12.9,37.9,16.3,33.5,16.3z"/>
					<path id="XMLID_387_" class="st19" d="M33.5,3.6c4.2,0,7.7,3.1,8.4,7.2C42,10.3,42,9.9,42,9.4c0-4.7-3.8-8.5-8.5-8.5
						c-4.7,0-8.5,3.8-8.5,8.5c0,0.5,0,0.9,0.1,1.3C25.8,6.7,29.3,3.6,33.5,3.6z"/>
					<circle id="XMLID_386_" class="st20" cx="33.5" cy="9.4" r="8.5"/>
				</g>
			</g>
			<g id="XMLID_381_">
				<line id="XMLID_383_" class="st7" x1="33.5" y1="4.3" x2="33.5" y2="14.5"/>
				<path id="XMLID_382_" class="st7" d="M31.5,11.4c0,1.1,0.9,2,2,2c1.1,0,2-0.9,2-2c0-1.1-0.9-2-2-2c-1.1,0-2-0.9-2-2
					c0-1.1,0.9-2,2-2c1.1,0,2,0.9,2,2"/>
			</g>
		</g>
		<g id="XMLID_373_">
			<path id="XMLID_379_" class="st12" d="M17.8,2.6c3.2,1.4,5.4,4.7,5.4,8.4c0,5.1-4.1,9.2-9.2,9.2c-2.5,0-4.7-1-6.3-2.5
				C7.7,10.8,11.8,5,17.8,2.6z"/>
			<g id="XMLID_374_">
				<circle id="XMLID_378_" class="st18" cx="14.5" cy="9.4" r="8.5"/>
				<path id="XMLID_377_" class="st5" d="M14.5,16.3c4.4,0,8-3.4,8.4-7.7c0,0.3,0,0.5,0,0.8c0,4.7-3.8,8.5-8.5,8.5
					C9.8,17.9,6,14.1,6,9.4c0-0.3,0-0.5,0-0.8C6.4,12.9,10.1,16.3,14.5,16.3z"/>
				<path id="XMLID_376_" class="st19" d="M14.5,3.6c-4.2,0-7.7,3.1-8.4,7.2C6,10.3,6,9.9,6,9.4c0-4.7,3.8-8.5,8.5-8.5
					c4.7,0,8.5,3.8,8.5,8.5c0,0.5,0,0.9-0.1,1.3C22.2,6.7,18.7,3.6,14.5,3.6z"/>
				<circle id="XMLID_375_" class="st20" cx="14.5" cy="9.4" r="8.5"/>
			</g>
		</g>
		<g id="XMLID_370_">
			<line id="XMLID_372_" class="st7" x1="14.6" y1="4.3" x2="14.6" y2="14.5"/>
			<path id="XMLID_371_" class="st7" d="M12.5,11.4c0,1.1,0.9,2,2,2c1.1,0,2-0.9,2-2c0-1.1-0.9-2-2-2c-1.1,0-2-0.9-2-2
				c0-1.1,0.9-2,2-2c1.1,0,2,0.9,2,2"/>
		</g>
	</g>
</g>
</svg>
