<?xml version="1.0" encoding="utf-8"?>
<!-- Generator: Adobe Illustrator 21.1.0, SVG Export Plug-In . SVG Version: 6.00 Build 0)  -->
<svg version="1.1" xmlns="http://www.w3.org/2000/svg" xmlns:xlink="http://www.w3.org/1999/xlink" x="0px" y="0px"
	 viewBox="0 0 48 48" style="enable-background:new 0 0 48 48;" xml:space="preserve">
<style type="text/css">
	.st0{fill:#FFD4C3;stroke:#504B46;stroke-linecap:round;stroke-linejoin:round;stroke-miterlimit:10;}
	.st1{fill:#FFC258;}
	.st2{fill:#4F4B45;}
	.st3{fill:#FABFA5;}
	.st4{fill:none;stroke:#504B46;stroke-linecap:round;stroke-linejoin:round;stroke-miterlimit:10;}
	.Graphic_x0020_Style{opacity:0.15;fill:#45413C;}
	.st5{fill:#FFE500;}
	.st6{fill:#EBCB00;}
	.st7{fill:none;stroke:#45413C;stroke-linecap:round;stroke-linejoin:round;stroke-miterlimit:10;}
	.st8{fill:#FFF48C;}
	.st9{fill:#FFB0CA;stroke:#45413C;stroke-linecap:round;stroke-linejoin:round;stroke-miterlimit:10;}
	.st10{fill:#FF87AF;stroke:#45413C;stroke-linecap:round;stroke-linejoin:round;stroke-miterlimit:10;}
	.st11{fill:#FFFFFF;stroke:#45413C;stroke-linecap:round;stroke-linejoin:round;stroke-miterlimit:10;}
	.st12{opacity:0.15;fill:#45413C;}
	.st13{fill:#FFAA54;}
	.st14{fill:#FFF48C;stroke:#45413C;stroke-linecap:round;stroke-linejoin:round;stroke-miterlimit:10;}
	.st15{fill:#FF6242;}
	.st16{fill:#FF866E;}
	.st17{fill:#4AEFF7;stroke:#45413C;stroke-linecap:round;stroke-linejoin:round;stroke-miterlimit:10;}
	.st18{fill:#FFFACF;}
	.st19{fill:#FFFFFF;}
	.st20{fill:none;stroke:#45413C;stroke-linejoin:round;stroke-miterlimit:10;}
	.st21{fill:#FF866E;stroke:#45413C;stroke-linecap:round;stroke-linejoin:round;stroke-miterlimit:10;}
	.st22{fill:#DABFF5;stroke:#45413C;stroke-linejoin:round;stroke-miterlimit:10;}
	.st23{fill:#EDDBFF;}
	.st24{fill:#BF8256;stroke:#45413C;stroke-miterlimit:10;}
	.st25{fill:#DEA47A;}
	.st26{fill:#45413C;stroke:#45413C;stroke-linecap:round;stroke-linejoin:round;stroke-miterlimit:10;}
	.st27{fill:none;stroke:#45413C;stroke-miterlimit:10;}
	.st28{fill:#915E3A;}
	.st29{fill:#E8F4FA;}
	.st30{fill:#525252;stroke:#45413C;stroke-linecap:round;stroke-linejoin:round;stroke-miterlimit:10;}
	.st31{fill:#87898C;}
	.st32{fill:#656769;}
	.st33{fill:none;stroke:#45413C;stroke-linecap:round;stroke-miterlimit:10;}
	.st34{fill:#00DBA8;}
	.st35{fill:#00AD85;}
	.st36{fill:#BF8DF2;}
	.st37{fill:#DABFF5;}
	.st38{fill:#00F5BC;}
	.st39{fill:#4CF4FC;stroke:#45413C;stroke-linecap:round;stroke-linejoin:round;stroke-miterlimit:10;}
	.st40{fill:#E04122;}
	.st41{fill:#00B8F0;}
	.st42{fill:#4ACFFF;}
	.st43{fill:#B89558;stroke:#45413C;stroke-linecap:round;stroke-linejoin:round;stroke-miterlimit:10;}
	.st44{fill:#FF6242;stroke:#45413C;stroke-linecap:round;stroke-linejoin:round;stroke-miterlimit:10;}
	.st45{fill:#009FD9;}
	.st46{fill:#FFFFFF;stroke:#45413C;stroke-linejoin:round;stroke-miterlimit:10;}
	.st47{fill:none;stroke:#48CF3E;stroke-linecap:round;stroke-linejoin:round;stroke-miterlimit:10;}
	.st48{fill:none;stroke:#FF4064;stroke-linecap:round;stroke-linejoin:round;stroke-miterlimit:10;}
	.st49{fill:none;stroke:#FFB700;stroke-linecap:round;stroke-linejoin:round;stroke-miterlimit:10;}
	.st50{fill:none;stroke:#00AED9;stroke-linecap:round;stroke-linejoin:round;stroke-miterlimit:10;}
	.st51{fill:#F0F0F0;}
	.st52{fill:#8CFFE4;stroke:#45413C;stroke-linecap:round;stroke-linejoin:round;stroke-miterlimit:10;}
	.st53{fill:#E5FFF9;}
	.st54{fill:#6DD627;}
	.st55{fill:#46B000;}
	.st56{fill:#9CEB60;}
	.st57{fill:#E0E0E0;}
	.st58{fill:#DAEDF7;}
	.st59{fill:#C0DCEB;}
	.st60{fill:#ADC4D9;}
	.st61{fill:#ADC4D9;stroke:#45413C;stroke-linecap:round;stroke-linejoin:round;stroke-miterlimit:10;}
	.st62{fill:#00DFEB;stroke:#45413C;stroke-linecap:round;stroke-linejoin:round;stroke-miterlimit:10;}
	.st63{fill:#627B8C;stroke:#45413C;stroke-linecap:round;stroke-linejoin:round;stroke-miterlimit:10;}
	.st64{fill:#FF8A14;}
	.st65{fill:#FF8A14;stroke:#45413C;stroke-linecap:round;stroke-linejoin:round;stroke-miterlimit:10;}
	.st66{fill:#6DD627;stroke:#45413C;stroke-linecap:round;stroke-linejoin:round;stroke-miterlimit:10;}
	.st67{fill:#45413C;}
	.st68{fill:#8CA4B8;}
	.st69{fill:#00DBA8;stroke:#45413C;stroke-linecap:round;stroke-linejoin:round;stroke-miterlimit:10;}
	.st70{fill:#00B8F0;stroke:#45413C;stroke-linecap:round;stroke-linejoin:round;stroke-miterlimit:10;}
	.st71{fill:#FFE500;stroke:#45413C;stroke-linecap:round;stroke-linejoin:round;stroke-miterlimit:10;}
	.st72{fill:#F0F0F0;stroke:#45413C;stroke-linecap:round;stroke-linejoin:round;stroke-miterlimit:10;}
	.st73{fill:#525252;}
	.st74{fill:#E5F8FF;}
	.st75{fill:none;stroke:#FF6242;stroke-linecap:round;stroke-linejoin:round;stroke-miterlimit:10;}
	.st76{fill:url(#XMLID_10_);}
	.st77{fill:url(#XMLID_11_);}
	.st78{fill:url(#XMLID_12_);}
	.st79{fill:url(#XMLID_13_);}
	.st80{fill:#E5FEFF;stroke:#45413C;stroke-linecap:round;stroke-linejoin:round;stroke-miterlimit:10;}
	.st81{fill:#EBCB00;stroke:#45413C;stroke-linecap:round;stroke-linejoin:round;stroke-miterlimit:10;}
	.st82{fill:#BDBEC0;stroke:#45413C;stroke-linecap:round;stroke-linejoin:round;stroke-miterlimit:10;}
	.st83{fill:#F0D5A8;}
	.st84{fill:#DEBB7E;}
	.st85{fill:#B89558;}
	.st86{fill:#FFFCE5;}
	.st87{fill:#FF87AF;}
	.st88{fill:#4ACFFF;stroke:#45413C;stroke-linecap:round;stroke-linejoin:round;stroke-miterlimit:10;}
	.st89{fill:#BDBEC0;}
	.st90{fill:#FFDA8F;}
	.st91{fill:#FFBE3D;}
	.st92{fill:#FFE9BD;}
	.st93{fill:#FF6196;}
	.st94{fill:#E0366F;}
	.st95{fill:#E0366F;stroke:#45413C;stroke-linecap:round;stroke-linejoin:round;stroke-miterlimit:10;}
	.st96{fill:#45413C;stroke:#45413C;stroke-miterlimit:10;}
</style>
<symbol  id="New_Symbol_14" viewBox="-6.5 -6.5 13 13">
	<path class="st0" d="M0-6c2.2,0,4.1,1.5,4.7,3.5c0,0,0,0,0,0C6.3-2.5,6.4,0,5,0v1c0,2.8-2.2,5-5,5c-2.8,0-5-2.2-5-5V0
		c-1.4,0-1.3-2.5,0.2-2.5c0,0,0,0,0,0C-4.1-4.5-2.2-6,0-6z"/>
	<g>
		<circle class="st1" cx="-1.6" cy="-0.1" r="0.1"/>
		<path class="st2" d="M-1.6,0.5c-0.3,0-0.6-0.3-0.6-0.6S-2-0.8-1.6-0.8C-1.3-0.8-1-0.5-1-0.1S-1.3,0.5-1.6,0.5L-1.6,0.5z"/>
	</g>
	<g>
		<circle class="st1" cx="1.6" cy="-0.1" r="0.1"/>
		<path class="st2" d="M1.6,0.5C1.3,0.5,1,0.2,1-0.1s0.3-0.6,0.6-0.6c0.3,0,0.6,0.3,0.6,0.6S2,0.5,1.6,0.5L1.6,0.5z"/>
	</g>
	<circle class="st3" cx="-3" cy="-1.5" r="0.5"/>
	<circle class="st3" cx="3" cy="-1.5" r="0.5"/>
	<path class="st4" d="M-1.2-3c0.8-0.5,1.7-0.5,2.5,0"/>
</symbol>
<g id="Bg">
</g>
<g id="Icons">
	<g id="XMLID_731_">
		<ellipse id="XMLID_2342_" class="st12" cx="25.2" cy="45.2" rx="16" ry="1.5"/>
		
			<ellipse id="XMLID_2328_" transform="matrix(0.9931 -0.1172 0.1172 0.9931 -2.3259 3.1018)" class="st5" cx="25.2" cy="21.3" rx="20" ry="20"/>
		<path id="XMLID_59_" class="st6" d="M22.9,1.5C11.9,2.8,4,12.7,5.3,23.7c1.3,11,11.2,18.8,22.2,17.5c11-1.3,18.8-11.2,17.5-22.2
			C43.8,8,33.8,0.2,22.9,1.5z M27.2,38.2c-10,1.2-19.1-6-20.3-16c-1.2-10,6-19.1,16-20.3s19.1,6,20.3,16C44.4,28,37.2,37,27.2,38.2z
			"/>
		
			<ellipse id="XMLID_58_" transform="matrix(0.9931 -0.1172 0.1172 0.9931 -0.476 2.7723)" class="st8" cx="23.3" cy="5.4" rx="6" ry="1.5"/>
		
			<ellipse id="XMLID_57_" transform="matrix(0.9931 -0.1172 0.1172 0.9931 -2.3259 3.1018)" class="st7" cx="25.2" cy="21.3" rx="20" ry="20"/>
		
			<ellipse id="XMLID_56_" transform="matrix(0.9931 -0.1172 0.1172 0.9931 -2.6569 4.5923)" class="st13" cx="37.7" cy="24.9" rx="2.5" ry="1.5"/>
		
			<ellipse id="XMLID_55_" transform="matrix(0.9931 -0.1172 0.1172 0.9931 -3.1512 1.8173)" class="st13" cx="13.9" cy="27.7" rx="2.5" ry="1.5"/>
		<path id="XMLID_54_" class="st7" d="M35.1,15.7l-3,2c-0.7,0.5-0.6,1.5,0.2,1.8l3.4,1.2"/>
		<path id="XMLID_53_" class="st7" d="M14.3,18.2l3.4,1.2c0.8,0.3,0.9,1.3,0.2,1.8l-3,2"/>
		<path id="XMLID_52_" class="st7" d="M26.2,34.3c0,0,2.3-3.3,7.7-2.9"/>
		<path id="XMLID_51_" class="st51" d="M25.2,22.5c-3.1-1.3-5.8,3-10.1,4.7c-4.3,1.6-11.3,0.4-11.3,0.4s-2.3,3.7-0.2,6.1
			c2.1,2.4,5.4,1.8,7.4,4c1.9,2.1,0.9,5.8,0.9,5.8s8.3-3.9,11.5-9.5C26.9,28,27.8,23.6,25.2,22.5z"/>
		<path id="XMLID_50_" class="st19" d="M25.2,22.5c-3.1-1.3-5.8,3-10.1,4.7c-4.3,1.6-11.3,0.4-11.3,0.4s-2.3,3.7-0.2,6.1
			s5.4,1.8,7.4,4c0.2,0.2,0.3,0.4,0.4,0.6c3.6-1.4,9-4,12-7.6c1.2-1.5,2.3-2.9,3.1-4.2C26.9,24.3,26.5,23,25.2,22.5z"/>
		<path id="XMLID_49_" class="st7" d="M25.2,22.5c-3.1-1.3-5.8,3-10.1,4.7c-4.3,1.6-11.3,0.4-11.3,0.4s-2.3,3.7-0.2,6.1
			c2.1,2.4,5.4,1.8,7.4,4c1.9,2.1,0.9,5.8,0.9,5.8s8.3-3.9,11.5-9.5C26.9,28,27.8,23.6,25.2,22.5z"/>
		<path id="XMLID_48_" class="st7" d="M11.2,34.3c0,0,7.7-1.6,10.5-7.5"/>
	</g>
</g>
</svg>
