<?xml version="1.0" encoding="utf-8"?>
<!-- Generator: Adobe Illustrator 21.1.0, SVG Export Plug-In . SVG Version: 6.00 Build 0)  -->
<svg version="1.1" xmlns="http://www.w3.org/2000/svg" xmlns:xlink="http://www.w3.org/1999/xlink" x="0px" y="0px"
	 viewBox="0 0 48 48" style="enable-background:new 0 0 48 48;" xml:space="preserve">
<style type="text/css">
	.st0{fill:#FFD4C3;stroke:#504B46;stroke-linecap:round;stroke-linejoin:round;stroke-miterlimit:10;}
	.st1{fill:#FFC258;}
	.st2{fill:#4F4B45;}
	.st3{fill:#FABFA5;}
	.st4{fill:none;stroke:#504B46;stroke-linecap:round;stroke-linejoin:round;stroke-miterlimit:10;}
	.Graphic_x0020_Style{opacity:0.15;fill:#45413C;}
	.st5{fill:#FFE500;}
	.st6{fill:#EBCB00;}
	.st7{fill:none;stroke:#45413C;stroke-linecap:round;stroke-linejoin:round;stroke-miterlimit:10;}
	.st8{fill:#FFF48C;}
	.st9{fill:#FFB0CA;stroke:#45413C;stroke-linecap:round;stroke-linejoin:round;stroke-miterlimit:10;}
	.st10{fill:#FF87AF;stroke:#45413C;stroke-linecap:round;stroke-linejoin:round;stroke-miterlimit:10;}
	.st11{fill:#FFFFFF;stroke:#45413C;stroke-linecap:round;stroke-linejoin:round;stroke-miterlimit:10;}
	.st12{opacity:0.15;fill:#45413C;}
	.st13{fill:#FFAA54;}
	.st14{fill:#FFF48C;stroke:#45413C;stroke-linecap:round;stroke-linejoin:round;stroke-miterlimit:10;}
	.st15{fill:#FF6242;}
	.st16{fill:#FF866E;}
	.st17{fill:#4AEFF7;stroke:#45413C;stroke-linecap:round;stroke-linejoin:round;stroke-miterlimit:10;}
	.st18{fill:#FFFACF;}
	.st19{fill:#FFFFFF;}
	.st20{fill:none;stroke:#45413C;stroke-linejoin:round;stroke-miterlimit:10;}
	.st21{fill:#FF866E;stroke:#45413C;stroke-linecap:round;stroke-linejoin:round;stroke-miterlimit:10;}
	.st22{fill:#DABFF5;stroke:#45413C;stroke-linejoin:round;stroke-miterlimit:10;}
	.st23{fill:#EDDBFF;}
	.st24{fill:#BF8256;stroke:#45413C;stroke-miterlimit:10;}
	.st25{fill:#DEA47A;}
	.st26{fill:#45413C;stroke:#45413C;stroke-linecap:round;stroke-linejoin:round;stroke-miterlimit:10;}
	.st27{fill:none;stroke:#45413C;stroke-miterlimit:10;}
	.st28{fill:#915E3A;}
	.st29{fill:#E8F4FA;}
	.st30{fill:#525252;stroke:#45413C;stroke-linecap:round;stroke-linejoin:round;stroke-miterlimit:10;}
	.st31{fill:#87898C;}
	.st32{fill:#656769;}
	.st33{fill:none;stroke:#45413C;stroke-linecap:round;stroke-miterlimit:10;}
	.st34{fill:#00DBA8;}
	.st35{fill:#00AD85;}
	.st36{fill:#BF8DF2;}
	.st37{fill:#DABFF5;}
	.st38{fill:#00F5BC;}
	.st39{fill:#4CF4FC;stroke:#45413C;stroke-linecap:round;stroke-linejoin:round;stroke-miterlimit:10;}
	.st40{fill:#E04122;}
	.st41{fill:#00B8F0;}
	.st42{fill:#4ACFFF;}
	.st43{fill:#B89558;stroke:#45413C;stroke-linecap:round;stroke-linejoin:round;stroke-miterlimit:10;}
	.st44{fill:#FF6242;stroke:#45413C;stroke-linecap:round;stroke-linejoin:round;stroke-miterlimit:10;}
	.st45{fill:#009FD9;}
	.st46{fill:#FFFFFF;stroke:#45413C;stroke-linejoin:round;stroke-miterlimit:10;}
	.st47{fill:none;stroke:#48CF3E;stroke-linecap:round;stroke-linejoin:round;stroke-miterlimit:10;}
	.st48{fill:none;stroke:#FF4064;stroke-linecap:round;stroke-linejoin:round;stroke-miterlimit:10;}
	.st49{fill:none;stroke:#FFB700;stroke-linecap:round;stroke-linejoin:round;stroke-miterlimit:10;}
	.st50{fill:none;stroke:#00AED9;stroke-linecap:round;stroke-linejoin:round;stroke-miterlimit:10;}
	.st51{fill:#F0F0F0;}
	.st52{fill:#8CFFE4;stroke:#45413C;stroke-linecap:round;stroke-linejoin:round;stroke-miterlimit:10;}
	.st53{fill:#E5FFF9;}
	.st54{fill:#6DD627;}
	.st55{fill:#46B000;}
	.st56{fill:#9CEB60;}
	.st57{fill:#E0E0E0;}
	.st58{fill:#DAEDF7;}
	.st59{fill:#C0DCEB;}
	.st60{fill:#ADC4D9;}
	.st61{fill:#ADC4D9;stroke:#45413C;stroke-linecap:round;stroke-linejoin:round;stroke-miterlimit:10;}
	.st62{fill:#00DFEB;stroke:#45413C;stroke-linecap:round;stroke-linejoin:round;stroke-miterlimit:10;}
	.st63{fill:#627B8C;stroke:#45413C;stroke-linecap:round;stroke-linejoin:round;stroke-miterlimit:10;}
	.st64{fill:#FF8A14;}
	.st65{fill:#FF8A14;stroke:#45413C;stroke-linecap:round;stroke-linejoin:round;stroke-miterlimit:10;}
	.st66{fill:#6DD627;stroke:#45413C;stroke-linecap:round;stroke-linejoin:round;stroke-miterlimit:10;}
	.st67{fill:#45413C;}
	.st68{fill:#8CA4B8;}
	.st69{fill:#00DBA8;stroke:#45413C;stroke-linecap:round;stroke-linejoin:round;stroke-miterlimit:10;}
	.st70{fill:#00B8F0;stroke:#45413C;stroke-linecap:round;stroke-linejoin:round;stroke-miterlimit:10;}
	.st71{fill:#FFE500;stroke:#45413C;stroke-linecap:round;stroke-linejoin:round;stroke-miterlimit:10;}
	.st72{fill:#F0F0F0;stroke:#45413C;stroke-linecap:round;stroke-linejoin:round;stroke-miterlimit:10;}
	.st73{fill:#525252;}
	.st74{fill:#E5F8FF;}
	.st75{fill:none;stroke:#FF6242;stroke-linecap:round;stroke-linejoin:round;stroke-miterlimit:10;}
	.st76{fill:url(#XMLID_10_);}
	.st77{fill:url(#XMLID_11_);}
	.st78{fill:url(#XMLID_12_);}
	.st79{fill:url(#XMLID_13_);}
	.st80{fill:#E5FEFF;stroke:#45413C;stroke-linecap:round;stroke-linejoin:round;stroke-miterlimit:10;}
	.st81{fill:#EBCB00;stroke:#45413C;stroke-linecap:round;stroke-linejoin:round;stroke-miterlimit:10;}
	.st82{fill:#BDBEC0;stroke:#45413C;stroke-linecap:round;stroke-linejoin:round;stroke-miterlimit:10;}
	.st83{fill:#F0D5A8;}
	.st84{fill:#DEBB7E;}
	.st85{fill:#B89558;}
	.st86{fill:#FFFCE5;}
	.st87{fill:#FF87AF;}
	.st88{fill:#4ACFFF;stroke:#45413C;stroke-linecap:round;stroke-linejoin:round;stroke-miterlimit:10;}
	.st89{fill:#BDBEC0;}
	.st90{fill:#FFDA8F;}
	.st91{fill:#FFBE3D;}
	.st92{fill:#FFE9BD;}
	.st93{fill:#FF6196;}
	.st94{fill:#E0366F;}
	.st95{fill:#E0366F;stroke:#45413C;stroke-linecap:round;stroke-linejoin:round;stroke-miterlimit:10;}
	.st96{fill:#45413C;stroke:#45413C;stroke-miterlimit:10;}
</style>
<symbol  id="New_Symbol_14" viewBox="-6.5 -6.5 13 13">
	<path class="st0" d="M0-6c2.2,0,4.1,1.5,4.7,3.5c0,0,0,0,0,0C6.3-2.5,6.4,0,5,0v1c0,2.8-2.2,5-5,5c-2.8,0-5-2.2-5-5V0
		c-1.4,0-1.3-2.5,0.2-2.5c0,0,0,0,0,0C-4.1-4.5-2.2-6,0-6z"/>
	<g>
		<circle class="st1" cx="-1.6" cy="-0.1" r="0.1"/>
		<path class="st2" d="M-1.6,0.5c-0.3,0-0.6-0.3-0.6-0.6S-2-0.8-1.6-0.8C-1.3-0.8-1-0.5-1-0.1S-1.3,0.5-1.6,0.5L-1.6,0.5z"/>
	</g>
	<g>
		<circle class="st1" cx="1.6" cy="-0.1" r="0.1"/>
		<path class="st2" d="M1.6,0.5C1.3,0.5,1,0.2,1-0.1s0.3-0.6,0.6-0.6c0.3,0,0.6,0.3,0.6,0.6S2,0.5,1.6,0.5L1.6,0.5z"/>
	</g>
	<circle class="st3" cx="-3" cy="-1.5" r="0.5"/>
	<circle class="st3" cx="3" cy="-1.5" r="0.5"/>
	<path class="st4" d="M-1.2-3c0.8-0.5,1.7-0.5,2.5,0"/>
</symbol>
<g id="Bg">
</g>
<g id="Icons">
	<g id="XMLID_727_">
		<path id="XMLID_1310_" class="st60" d="M38.6,21.7c0-2.7-2.2-4.9-4.9-4.9H14.3c-2.7,0-4.9,2.2-4.9,4.9v17.9c0,2.7,2.2,4.9,4.9,4.9
			h19.5c2.7,0,4.9-2.2,4.9-4.9V21.7z"/>
		<path id="XMLID_1309_" class="st59" d="M33.7,16.9H14.3c-2.7,0-4.9,2.2-4.9,4.9v2.4c0-2.7,2.2-4.9,4.9-4.9h19.5
			c2.7,0,4.9,2.2,4.9,4.9v-2.4C38.6,19,36.4,16.9,33.7,16.9z"/>
		<path id="XMLID_1308_" class="st68" d="M38.6,32.7H27.2c-1.8,0-3.2-1.5-3.2-3.2V16.9h9.7c2.7,0,4.9,2.2,4.9,4.9V32.7z"/>
		<path id="XMLID_1307_" class="st60" d="M38.4,20.3c-0.6-2-2.5-3.4-4.7-3.4H24v2.4h9.7c2.7,0,4.9,2.2,4.9,4.9v-2.4
			C38.6,21.2,38.5,20.7,38.4,20.3z"/>
		<path id="XMLID_1306_" class="st7" d="M38.6,21.7c0-2.7-2.2-4.9-4.9-4.9H14.3c-2.7,0-4.9,2.2-4.9,4.9v17.9c0,2.7,2.2,4.9,4.9,4.9
			h19.5c2.7,0,4.9-2.2,4.9-4.9V21.7z"/>
		<ellipse id="XMLID_1305_" class="st12" cx="24" cy="45.5" rx="15.5" ry="1.5"/>
		<path id="XMLID_1304_" class="st59" d="M33.7,44.1c0,0.9-0.7,1.6-1.6,1.6H15.9c-0.9,0-1.6-0.7-1.6-1.6v-5.7c0-0.9,0.7-1.6,1.6-1.6
			h16.2c0.9,0,1.6,0.7,1.6,1.6V44.1z"/>
		<path id="XMLID_1303_" class="st58" d="M33.7,38.4c0-0.9-0.7-1.6-1.6-1.6H15.9c-0.9,0-1.6,0.7-1.6,1.6v2c0-0.9,0.7-1.6,1.6-1.6
			h16.2c0.9,0,1.6,0.7,1.6,1.6V38.4z"/>
		<path id="XMLID_1302_" class="st7" d="M33.7,44.1c0,0.9-0.7,1.6-1.6,1.6H15.9c-0.9,0-1.6-0.7-1.6-1.6v-5.7c0-0.9,0.7-1.6,1.6-1.6
			h16.2c0.9,0,1.6,0.7,1.6,1.6V44.1z"/>
		<circle id="XMLID_1301_" class="st11" cx="16.3" cy="25" r="4.1"/>
		<circle id="XMLID_1300_" class="st69" cx="16.3" cy="25" r="2"/>
		<circle id="XMLID_1299_" class="st11" cx="31.7" cy="25" r="4.1"/>
		<circle id="XMLID_1298_" class="st70" cx="31.7" cy="25" r="1.6"/>
		<g id="XMLID_1297_">
			<circle id="XMLID_781_" class="st59" cx="16.3" cy="38.4" r="0.4"/>
			<path id="XMLID_780_" class="st67" d="M16.3,38c-0.2,0-0.4,0.2-0.4,0.4c0,0.2,0.2,0.4,0.4,0.4c0.2,0,0.4-0.2,0.4-0.4
				C16.7,38.2,16.5,38,16.3,38L16.3,38z"/>
		</g>
		<g id="XMLID_1296_">
			<circle id="XMLID_778_" class="st59" cx="31.7" cy="38.4" r="0.4"/>
			<path id="XMLID_777_" class="st67" d="M31.7,38c-0.2,0-0.4,0.2-0.4,0.4c0,0.2,0.2,0.4,0.4,0.4c0.2,0,0.4-0.2,0.4-0.4
				C32.1,38.2,31.9,38,31.7,38L31.7,38z"/>
		</g>
		<g id="XMLID_1295_">
			<circle id="XMLID_775_" class="st59" cx="37" cy="30.3" r="0.4"/>
			<path id="XMLID_774_" class="st67" d="M37,29.9c-0.2,0-0.4,0.2-0.4,0.4c0,0.2,0.2,0.4,0.4,0.4s0.4-0.2,0.4-0.4
				C37.4,30,37.2,29.9,37,29.9L37,29.9z"/>
		</g>
		<g id="XMLID_1294_">
			<circle id="XMLID_754_" class="st59" cx="26" cy="30.3" r="0.4"/>
			<path id="XMLID_753_" class="st67" d="M26,29.9c-0.2,0-0.4,0.2-0.4,0.4c0,0.2,0.2,0.4,0.4,0.4c0.2,0,0.4-0.2,0.4-0.4
				C26.4,30,26.3,29.9,26,29.9L26,29.9z"/>
		</g>
		<g id="XMLID_1293_">
			<circle id="XMLID_751_" class="st59" cx="26" cy="18.5" r="0.4"/>
			<path id="XMLID_750_" class="st67" d="M26,18.1c-0.2,0-0.4,0.2-0.4,0.4c0,0.2,0.2,0.4,0.4,0.4c0.2,0,0.4-0.2,0.4-0.4
				C26.4,18.3,26.3,18.1,26,18.1L26,18.1z"/>
		</g>
		<polyline id="XMLID_1292_" class="st7" points="23.6,14 23.6,11.6 28.1,10.4 22.8,5.5 30.5,7.5 31.8,4.9 		"/>
		<circle id="XMLID_1291_" class="st44" cx="32.5" cy="3" r="2"/>
		<path id="XMLID_1290_" class="st7" d="M38.6,32.7H27.2c-1.8,0-3.2-1.5-3.2-3.2V16.9h9.7c2.7,0,4.9,2.2,4.9,4.9V32.7z"/>
		<line id="XMLID_1287_" class="st7" x1="31.7" y1="22.1" x2="31.7" y2="23.4"/>
		<line id="XMLID_1273_" class="st7" x1="34.6" y1="25" x2="33.3" y2="25"/>
		<line id="XMLID_1272_" class="st7" x1="31.7" y1="27.8" x2="31.7" y2="26.6"/>
		<line id="XMLID_1271_" class="st7" x1="28.9" y1="25" x2="30.1" y2="25"/>
		<path id="XMLID_1270_" class="st61" d="M29.7,16.9H18.3c0-1.6,1.3-2.8,2.8-2.8h5.7C28.4,14,29.7,15.3,29.7,16.9z"/>
		<path id="XMLID_1269_" class="st71" d="M39.4,37.2h-0.8v-13h0.8c1.3,0,2.4,1.1,2.4,2.4v8.1C41.9,36.1,40.8,37.2,39.4,37.2z"/>
		<path id="XMLID_1268_" class="st71" d="M8.6,37.2h0.8v-13H8.6c-1.3,0-2.4,1.1-2.4,2.4v8.1C6.1,36.1,7.2,37.2,8.6,37.2z"/>
	</g>
</g>
</svg>
