<?xml version="1.0" encoding="utf-8"?>
<!-- Generator: Adobe Illustrator 21.1.0, SVG Export Plug-In . SVG Version: 6.00 Build 0)  -->
<svg version="1.1" xmlns="http://www.w3.org/2000/svg" xmlns:xlink="http://www.w3.org/1999/xlink" x="0px" y="0px"
	 viewBox="0 0 48 48" style="enable-background:new 0 0 48 48;" xml:space="preserve">
<style type="text/css">
	.st0{fill:#FFD4C3;stroke:#504B46;stroke-linecap:round;stroke-linejoin:round;stroke-miterlimit:10;}
	.st1{fill:#FFC258;}
	.st2{fill:#4F4B45;}
	.st3{fill:#FABFA5;}
	.st4{fill:none;stroke:#504B46;stroke-linecap:round;stroke-linejoin:round;stroke-miterlimit:10;}
	.Graphic_x0020_Style{opacity:0.15;fill:#45413C;}
	.st5{fill:#FFE500;}
	.st6{fill:#EBCB00;}
	.st7{fill:none;stroke:#45413C;stroke-linecap:round;stroke-linejoin:round;stroke-miterlimit:10;}
	.st8{fill:#FFF48C;}
	.st9{fill:#FFB0CA;stroke:#45413C;stroke-linecap:round;stroke-linejoin:round;stroke-miterlimit:10;}
	.st10{fill:#FF87AF;stroke:#45413C;stroke-linecap:round;stroke-linejoin:round;stroke-miterlimit:10;}
	.st11{fill:#FFFFFF;stroke:#45413C;stroke-linecap:round;stroke-linejoin:round;stroke-miterlimit:10;}
	.st12{opacity:0.15;fill:#45413C;}
	.st13{fill:#FFAA54;}
	.st14{fill:#FFF48C;stroke:#45413C;stroke-linecap:round;stroke-linejoin:round;stroke-miterlimit:10;}
	.st15{fill:#FF6242;}
	.st16{fill:#FF866E;}
	.st17{fill:#4AEFF7;stroke:#45413C;stroke-linecap:round;stroke-linejoin:round;stroke-miterlimit:10;}
	.st18{fill:#FFFACF;}
	.st19{fill:#FFFFFF;}
	.st20{fill:none;stroke:#45413C;stroke-linejoin:round;stroke-miterlimit:10;}
	.st21{fill:#FF866E;stroke:#45413C;stroke-linecap:round;stroke-linejoin:round;stroke-miterlimit:10;}
	.st22{fill:#DABFF5;stroke:#45413C;stroke-linejoin:round;stroke-miterlimit:10;}
	.st23{fill:#EDDBFF;}
	.st24{fill:#BF8256;stroke:#45413C;stroke-miterlimit:10;}
	.st25{fill:#DEA47A;}
	.st26{fill:#45413C;stroke:#45413C;stroke-linecap:round;stroke-linejoin:round;stroke-miterlimit:10;}
	.st27{fill:none;stroke:#45413C;stroke-miterlimit:10;}
	.st28{fill:#915E3A;}
	.st29{fill:#E8F4FA;}
	.st30{fill:#525252;stroke:#45413C;stroke-linecap:round;stroke-linejoin:round;stroke-miterlimit:10;}
	.st31{fill:#87898C;}
	.st32{fill:#656769;}
	.st33{fill:none;stroke:#45413C;stroke-linecap:round;stroke-miterlimit:10;}
	.st34{fill:#00DBA8;}
	.st35{fill:#00AD85;}
	.st36{fill:#BF8DF2;}
	.st37{fill:#DABFF5;}
	.st38{fill:#00F5BC;}
	.st39{fill:#4CF4FC;stroke:#45413C;stroke-linecap:round;stroke-linejoin:round;stroke-miterlimit:10;}
	.st40{fill:#E04122;}
	.st41{fill:#00B8F0;}
	.st42{fill:#4ACFFF;}
	.st43{fill:#B89558;stroke:#45413C;stroke-linecap:round;stroke-linejoin:round;stroke-miterlimit:10;}
	.st44{fill:#FF6242;stroke:#45413C;stroke-linecap:round;stroke-linejoin:round;stroke-miterlimit:10;}
	.st45{fill:#009FD9;}
	.st46{fill:#FFFFFF;stroke:#45413C;stroke-linejoin:round;stroke-miterlimit:10;}
	.st47{fill:none;stroke:#48CF3E;stroke-linecap:round;stroke-linejoin:round;stroke-miterlimit:10;}
	.st48{fill:none;stroke:#FF4064;stroke-linecap:round;stroke-linejoin:round;stroke-miterlimit:10;}
	.st49{fill:none;stroke:#FFB700;stroke-linecap:round;stroke-linejoin:round;stroke-miterlimit:10;}
	.st50{fill:none;stroke:#00AED9;stroke-linecap:round;stroke-linejoin:round;stroke-miterlimit:10;}
	.st51{fill:#F0F0F0;}
	.st52{fill:#8CFFE4;stroke:#45413C;stroke-linecap:round;stroke-linejoin:round;stroke-miterlimit:10;}
	.st53{fill:#E5FFF9;}
	.st54{fill:#6DD627;}
	.st55{fill:#46B000;}
	.st56{fill:#9CEB60;}
	.st57{fill:#E0E0E0;}
	.st58{fill:#DAEDF7;}
	.st59{fill:#C0DCEB;}
	.st60{fill:#ADC4D9;}
	.st61{fill:#ADC4D9;stroke:#45413C;stroke-linecap:round;stroke-linejoin:round;stroke-miterlimit:10;}
	.st62{fill:#00DFEB;stroke:#45413C;stroke-linecap:round;stroke-linejoin:round;stroke-miterlimit:10;}
	.st63{fill:#627B8C;stroke:#45413C;stroke-linecap:round;stroke-linejoin:round;stroke-miterlimit:10;}
	.st64{fill:#FF8A14;}
	.st65{fill:#FF8A14;stroke:#45413C;stroke-linecap:round;stroke-linejoin:round;stroke-miterlimit:10;}
	.st66{fill:#6DD627;stroke:#45413C;stroke-linecap:round;stroke-linejoin:round;stroke-miterlimit:10;}
	.st67{fill:#45413C;}
	.st68{fill:#8CA4B8;}
	.st69{fill:#00DBA8;stroke:#45413C;stroke-linecap:round;stroke-linejoin:round;stroke-miterlimit:10;}
	.st70{fill:#00B8F0;stroke:#45413C;stroke-linecap:round;stroke-linejoin:round;stroke-miterlimit:10;}
	.st71{fill:#FFE500;stroke:#45413C;stroke-linecap:round;stroke-linejoin:round;stroke-miterlimit:10;}
	.st72{fill:#F0F0F0;stroke:#45413C;stroke-linecap:round;stroke-linejoin:round;stroke-miterlimit:10;}
	.st73{fill:#525252;}
	.st74{fill:#E5F8FF;}
	.st75{fill:none;stroke:#FF6242;stroke-linecap:round;stroke-linejoin:round;stroke-miterlimit:10;}
	.st76{fill:url(#XMLID_10_);}
	.st77{fill:url(#XMLID_11_);}
	.st78{fill:url(#XMLID_12_);}
	.st79{fill:url(#XMLID_13_);}
	.st80{fill:#E5FEFF;stroke:#45413C;stroke-linecap:round;stroke-linejoin:round;stroke-miterlimit:10;}
	.st81{fill:#EBCB00;stroke:#45413C;stroke-linecap:round;stroke-linejoin:round;stroke-miterlimit:10;}
	.st82{fill:#BDBEC0;stroke:#45413C;stroke-linecap:round;stroke-linejoin:round;stroke-miterlimit:10;}
	.st83{fill:#F0D5A8;}
	.st84{fill:#DEBB7E;}
	.st85{fill:#B89558;}
	.st86{fill:#FFFCE5;}
	.st87{fill:#FF87AF;}
	.st88{fill:#4ACFFF;stroke:#45413C;stroke-linecap:round;stroke-linejoin:round;stroke-miterlimit:10;}
	.st89{fill:#BDBEC0;}
	.st90{fill:#FFDA8F;}
	.st91{fill:#FFBE3D;}
	.st92{fill:#FFE9BD;}
	.st93{fill:#FF6196;}
	.st94{fill:#E0366F;}
	.st95{fill:#E0366F;stroke:#45413C;stroke-linecap:round;stroke-linejoin:round;stroke-miterlimit:10;}
	.st96{fill:#45413C;stroke:#45413C;stroke-miterlimit:10;}
</style>
<symbol  id="New_Symbol_14" viewBox="-6.5 -6.5 13 13">
	<path class="st0" d="M0-6c2.2,0,4.1,1.5,4.7,3.5c0,0,0,0,0,0C6.3-2.5,6.4,0,5,0v1c0,2.8-2.2,5-5,5c-2.8,0-5-2.2-5-5V0
		c-1.4,0-1.3-2.5,0.2-2.5c0,0,0,0,0,0C-4.1-4.5-2.2-6,0-6z"/>
	<g>
		<circle class="st1" cx="-1.6" cy="-0.1" r="0.1"/>
		<path class="st2" d="M-1.6,0.5c-0.3,0-0.6-0.3-0.6-0.6S-2-0.8-1.6-0.8C-1.3-0.8-1-0.5-1-0.1S-1.3,0.5-1.6,0.5L-1.6,0.5z"/>
	</g>
	<g>
		<circle class="st1" cx="1.6" cy="-0.1" r="0.1"/>
		<path class="st2" d="M1.6,0.5C1.3,0.5,1,0.2,1-0.1s0.3-0.6,0.6-0.6c0.3,0,0.6,0.3,0.6,0.6S2,0.5,1.6,0.5L1.6,0.5z"/>
	</g>
	<circle class="st3" cx="-3" cy="-1.5" r="0.5"/>
	<circle class="st3" cx="3" cy="-1.5" r="0.5"/>
	<path class="st4" d="M-1.2-3c0.8-0.5,1.7-0.5,2.5,0"/>
</symbol>
<g id="Bg">
</g>
<g id="Icons">
	<g id="XMLID_652_">
		<circle id="XMLID_248_" class="st5" cx="17.2" cy="23.7" r="15.3"/>
		<path id="XMLID_245_" class="st6" d="M17.2,8.4c-8.5,0-15.3,6.9-15.3,15.3S8.8,39,17.2,39s15.3-6.9,15.3-15.3S25.7,8.4,17.2,8.4z
			 M17.2,36.7c-7.7,0-14-6.3-14-14c0-7.7,6.3-14,14-14s14,6.3,14,14C31.2,30.5,25,36.7,17.2,36.7z"/>
		<ellipse id="XMLID_244_" class="st8" cx="17.2" cy="11.4" rx="4.6" ry="1.1"/>
		<ellipse id="XMLID_243_" class="st12" cx="17.2" cy="45.2" rx="12.3" ry="1.5"/>
		<circle id="XMLID_242_" class="st7" cx="17.2" cy="23.7" r="15.3"/>
		<g id="XMLID_240_">
			<path id="XMLID_241_" class="st33" d="M17.2,28.5c0.2-0.1,0.5-0.2,0.8-0.2c0.8,0,1.5,0.7,1.5,1.5c0,0.8-0.7,1.5-1.5,1.5
				c0.8,0,1.5,0.7,1.5,1.5c0,0.8-0.7,1.5-1.5,1.5c-0.3,0-0.5-0.1-0.8-0.2"/>
		</g>
		<ellipse id="XMLID_239_" class="st13" cx="8" cy="27.5" rx="1.9" ry="1.1"/>
		<ellipse id="XMLID_238_" class="st13" cx="26.4" cy="27.5" rx="1.9" ry="1.1"/>
		<circle id="XMLID_237_" class="st26" cx="9.2" cy="23.3" r="0.8"/>
		<circle id="XMLID_236_" class="st26" cx="25.3" cy="23.3" r="0.8"/>
		<g id="XMLID_232_">
			<circle id="XMLID_235_" class="st47" cx="36.2" cy="15.9" r="1.6"/>
			<circle id="XMLID_234_" class="st47" cx="44.4" cy="14.3" r="1.6"/>
			<polyline id="XMLID_233_" class="st47" points="37.9,15.9 37.9,8.6 46.1,5.3 46.1,14.3 			"/>
		</g>
		<g id="XMLID_229_">
			<circle id="XMLID_231_" class="st48" cx="34.5" cy="39.6" r="1.6"/>
			<polyline id="XMLID_230_" class="st48" points="36.1,39.6 36.1,32.3 38.5,33.9 			"/>
		</g>
		<g id="XMLID_226_">
			<circle id="XMLID_228_" class="st49" cx="26.1" cy="6.4" r="1"/>
			<polyline id="XMLID_227_" class="st49" points="27.1,6.4 27.1,1.7 28.7,2.7 			"/>
		</g>
		<g id="XMLID_217_">
			<line id="XMLID_225_" class="st50" x1="38.8" y1="22.8" x2="38.8" y2="22.3"/>
			<line id="XMLID_224_" class="st50" x1="40" y1="23.3" x2="40.4" y2="22.9"/>
			<line id="XMLID_223_" class="st50" x1="40.5" y1="24.6" x2="41.1" y2="24.6"/>
			<line id="XMLID_222_" class="st50" x1="40" y1="25.8" x2="40.4" y2="26.2"/>
			<line id="XMLID_221_" class="st50" x1="38.8" y1="26.3" x2="38.8" y2="26.9"/>
			<line id="XMLID_220_" class="st50" x1="37.6" y1="25.8" x2="37.2" y2="26.2"/>
			<line id="XMLID_219_" class="st50" x1="37.1" y1="24.6" x2="36.5" y2="24.6"/>
			<line id="XMLID_218_" class="st50" x1="37.6" y1="23.3" x2="37.2" y2="22.9"/>
		</g>
		<g id="XMLID_214_">
			<line id="XMLID_216_" class="st50" x1="44.5" y1="31" x2="44.5" y2="27.9"/>
			<line id="XMLID_215_" class="st50" x1="42.9" y1="29.5" x2="46" y2="29.5"/>
		</g>
		<g id="XMLID_211_">
			<line id="XMLID_213_" class="st50" x1="41.1" y1="3.2" x2="41.1" y2="1.7"/>
			<line id="XMLID_212_" class="st50" x1="40.3" y1="2.4" x2="41.9" y2="2.4"/>
		</g>
		<g id="XMLID_208_">
			<line id="XMLID_210_" class="st50" x1="42.1" y1="38.3" x2="42.1" y2="36.7"/>
			<line id="XMLID_209_" class="st50" x1="41.4" y1="37.5" x2="42.9" y2="37.5"/>
		</g>
		<g id="XMLID_205_">
			<line id="XMLID_207_" class="st50" x1="31.2" y1="8.4" x2="31.2" y2="6.8"/>
			<line id="XMLID_206_" class="st50" x1="30.5" y1="7.6" x2="32" y2="7.6"/>
		</g>
	</g>
</g>
</svg>
