<svg xmlns="http://www.w3.org/2000/svg" xmlns:xlink="http://www.w3.org/1999/xlink" width="1000" zoomAndPan="magnify" viewBox="0 0 750 749.999995" height="1000" preserveAspectRatio="xMidYMid meet" version="1.0"><path fill="#b7ea5e" d="M 378.921875 653.5625 C 317.0625 653.546875 257.335938 623.949219 220.992188 573.691406 C 182.894531 520.996094 173.167969 449.34375 197.390625 388.707031 C 203.855469 372.523438 212.492188 357.117188 220.023438 341.40625 C 227.917969 324.957031 235.503906 308.328125 242.101562 291.3125 C 248.820312 273.941406 254.789062 256.28125 260.164062 238.453125 C 265.394531 221.074219 269.4375 203.496094 273.769531 185.875 C 277.601562 170.296875 283.164062 155.675781 292.894531 142.792969 C 301.382812 131.582031 312.128906 122.117188 324.234375 114.972656 C 350.519531 99.472656 382.757812 95.460938 411.859375 105.03125 C 441.222656 114.683594 465.71875 136.925781 476.574219 166.011719 C 481.585938 179.386719 484.351562 193.476562 487.804688 207.304688 C 492.160156 224.707031 497.152344 241.949219 502.78125 258.984375 C 512.320312 287.964844 523.34375 316.984375 536.886719 344.355469 C 542.914062 356.539062 550 368.230469 555.515625 380.65625 C 560.917969 392.820312 565.023438 405.550781 567.761719 418.554688 C 578.625 470.015625 567.949219 525.207031 538.757812 568.941406 C 505.074219 619.417969 448.339844 650.773438 387.796875 653.375 C 384.847656 653.515625 381.886719 653.574219 378.921875 653.5625 " fill-opacity="1" fill-rule="nonzero"/><path fill="#709929" d="M 540.320312 334.40625 C 543.15625 340.488281 546.082031 346.53125 549.089844 352.527344 C 550.492188 355.308594 551.917969 358.050781 553.550781 360.707031 C 553.753906 361.03125 554.890625 363.421875 555.402344 363.414062 C 555.382812 363.421875 553.9375 360.035156 553.824219 359.8125 C 552.441406 356.980469 550.976562 354.191406 549.515625 351.394531 C 546.535156 345.699219 543.558594 339.964844 540.320312 334.40625 Z M 379.238281 92.640625 C 351.03125 92.617188 323.210938 103.332031 302.195312 122.117188 C 291.351562 131.800781 282.199219 143.660156 275.976562 156.824219 C 268.601562 172.40625 265.734375 189.550781 261.675781 206.167969 C 253.03125 241.546875 241.21875 276.585938 226.640625 309.957031 C 219.375 326.585938 211.414062 342.886719 203.402344 359.15625 C 195.734375 374.742188 188.316406 390.058594 183.839844 406.933594 C 167.261719 469.335938 181.75 537.550781 222.644531 587.5625 C 262.140625 635.867188 323.539062 662.644531 385.699219 660.636719 C 447.488281 658.632812 505.953125 627.855469 541.765625 577.347656 C 572.261719 534.335938 584.992188 479.738281 576.816406 427.664062 C 573.785156 408.378906 567.914062 389.546875 559.398438 371.972656 C 554.769531 362.402344 549.382812 353.199219 544.589844 343.710938 C 543.234375 341.035156 541.882812 338.351562 540.578125 335.652344 C 540.511719 335.5 539.507812 333.074219 539.460938 333.070312 C 539.640625 333.082031 540.320312 334.40625 540.320312 334.40625 C 525.132812 301.851562 512.5 268.121094 502.402344 233.644531 C 497.542969 217.09375 493.679688 200.34375 489.421875 183.648438 C 485.695312 169.058594 480.933594 154.671875 472.535156 142.050781 C 452.207031 111.40625 415.824219 92.664062 379.238281 92.640625 Z M 379.226562 106.980469 C 411.046875 107.007812 442.847656 123.296875 460.574219 149.949219 C 468.726562 162.199219 472.871094 176.367188 476.363281 190.527344 C 480.113281 205.753906 483.773438 220.992188 488.164062 236.066406 C 498.097656 270.242188 510.476562 303.734375 525.292969 336.089844 C 531 348.542969 537.292969 360.539062 543.6875 372.664062 C 549.921875 384.488281 554.828125 397.027344 558.328125 409.921875 C 572.085938 460.71875 563.464844 516.535156 535.378906 561.003906 C 503.160156 612.003906 446.96875 643.871094 386.757812 646.25 C 324.882812 648.691406 264.101562 620.476562 227.414062 570.320312 C 189.28125 518.195312 179.914062 445.898438 206.132812 386.394531 C 213.222656 370.316406 221.652344 354.777344 229.183594 338.886719 C 236.980469 322.414062 244.390625 305.730469 250.777344 288.65625 C 257.277344 271.292969 263.15625 253.71875 268.394531 235.9375 C 273.515625 218.53125 277.183594 200.84375 281.8125 183.335938 C 284.925781 171.574219 289.308594 160.421875 296.261719 150.378906 C 302.335938 141.597656 309.878906 133.835938 318.421875 127.441406 C 335.851562 114.378906 357.425781 106.964844 379.226562 106.980469 " fill-opacity="1" fill-rule="nonzero"/><path fill="#435c1d" d="M 379.226562 106.71875 C 350.839844 106.699219 322.957031 119.242188 303.925781 140.300781 C 293.628906 151.683594 286.722656 165.019531 282.523438 179.753906 C 277.628906 196.921875 274.316406 214.476562 269.363281 231.640625 C 259.179688 267.027344 246.433594 301.5 230.800781 334.847656 C 224.773438 347.675781 218.492188 360.351562 212.246094 373.089844 C 206.855469 384.042969 201.894531 395.03125 198.480469 406.796875 C 180.40625 469.296875 196.34375 538.46875 240.28125 586.429688 C 282.332031 632.351562 346.683594 653.800781 407.992188 644.484375 C 466.304688 635.652344 517.402344 598.59375 544.164062 546.109375 C 568.089844 499.15625 571.8125 442.71875 553.246094 393.308594 C 548.628906 381.050781 542.148438 369.929688 536.230469 358.324219 C 529.410156 344.980469 523.289062 331.414062 517.433594 317.605469 C 503.492188 284.730469 491.996094 250.804688 482.96875 216.246094 C 476.421875 191.199219 472.875 163.9375 455.972656 143.273438 C 437.324219 120.496094 408.703125 106.726562 379.226562 106.71875 Z M 378.921875 674.828125 C 317.855469 674.796875 257.914062 648.738281 217.273438 602.980469 C 174.503906 554.800781 155.722656 489.035156 165.617188 425.46875 C 168.21875 408.730469 172.707031 392.242188 179.382812 376.664062 C 182.941406 368.339844 187.152344 360.273438 191.148438 352.15625 C 207.375 319.203125 222.335938 286.042969 233.871094 251.136719 C 239.59375 233.828125 244.875 216.300781 249.019531 198.546875 C 252.917969 181.804688 256.324219 164.816406 263.976562 149.28125 C 276.417969 124.007812 297.785156 103.390625 323.117188 91.246094 C 350.753906 78.019531 382.953125 74.917969 412.523438 83.035156 C 442.554688 91.289062 470.136719 111 486.460938 137.691406 C 494.578125 150.953125 499.398438 165.738281 503.199219 180.730469 C 506.964844 195.578125 510.390625 210.472656 514.609375 225.203125 C 524.375 259.335938 536.660156 292.742188 551.476562 325.003906 C 556.621094 336.195312 564.285156 346.210938 568.441406 357.898438 C 570.402344 363.414062 573.464844 368.585938 575.785156 373.976562 C 578.46875 380.195312 580.84375 386.519531 582.902344 392.96875 C 591.046875 418.328125 594.328125 445.1875 592.75 471.785156 C 589.589844 525.054688 566.863281 576.699219 528.757812 614.214844 C 488.980469 653.34375 434.582031 674.851562 378.921875 674.828125 " fill-opacity="1" fill-rule="nonzero"/><path fill="#5b391d" d="M 500.332031 448.09375 C 500.3125 500.121094 466.082031 547.621094 416.707031 564.039062 C 366.820312 580.613281 310.542969 562.554688 279.523438 520.164062 C 248.441406 477.699219 248.476562 418.234375 279.589844 375.8125 C 310.652344 333.457031 366.960938 315.449219 416.820312 332.078125 C 466.183594 348.535156 500.359375 396.074219 500.332031 448.09375 " fill-opacity="1" fill-rule="nonzero"/><path fill="#4c2f19" d="M 404.917969 543.441406 C 352.914062 543.40625 305.429688 509.183594 289.015625 459.800781 C 276.683594 422.667969 283.203125 380.828125 306.285156 349.226562 C 283.164062 366.082031 266.359375 390.957031 259.511719 418.761719 C 252.992188 445.292969 255.601562 473.808594 266.941406 498.6875 C 288.902344 546.863281 340.902344 575.847656 393.402344 569.300781 C 426.601562 565.167969 457.140625 547.035156 476.859375 520.03125 C 456.042969 535.195312 430.664062 543.449219 404.917969 543.441406 " fill-opacity="1" fill-rule="nonzero"/><path fill="#845828" d="M 456.34375 469.835938 C 453.410156 469.835938 450.582031 468.523438 448.679688 466.300781 C 446.296875 463.484375 446.3125 460.34375 446.390625 456.863281 C 446.539062 450.570312 446.171875 444.253906 445.113281 438.046875 C 443.390625 427.925781 439.785156 418.128906 434.042969 409.578125 C 425.210938 396.394531 411.84375 386.984375 397.136719 381.375 C 392.3125 379.539062 387.328125 378.074219 382.28125 377.0625 C 377.875 376.179688 373.179688 376.246094 370.1875 372.257812 C 364.542969 364.738281 371.496094 355.144531 380.171875 356.375 C 383.230469 356.804688 386.25 357.433594 389.238281 358.171875 C 418.476562 365.3125 445.539062 383.3125 458.09375 411.425781 C 462.179688 420.542969 464.632812 430.339844 465.75 440.253906 C 466.410156 446.078125 466.621094 451.945312 466.449219 457.789062 C 466.285156 463.90625 463.34375 469.835938 456.34375 469.835938 " fill-opacity="1" fill-rule="nonzero"/><path fill="#defc8b" d="M 443.472656 233.042969 C 440.542969 233.03125 437.710938 231.726562 435.8125 229.503906 C 433.445312 226.703125 433.460938 223.613281 433.503906 220.152344 C 433.605469 214.132812 433.007812 208.074219 431.550781 202.21875 C 429.121094 192.449219 424.25 183.480469 417.492188 176.046875 C 407.894531 165.507812 394.921875 158.054688 381.367188 153.847656 C 380.066406 153.433594 378.769531 153.0625 377.4375 152.75 C 372.300781 151.539062 368.574219 146.953125 369.308594 141.53125 C 370.207031 134.910156 376.53125 131.90625 382.558594 133.316406 C 386.25 134.175781 389.898438 135.320312 393.449219 136.660156 C 411.882812 143.574219 428.789062 155.777344 439.832031 172.199219 C 445.917969 181.265625 450.070312 191.492188 452.078125 202.207031 C 453.230469 208.34375 453.695312 214.597656 453.578125 220.828125 C 453.457031 226.988281 450.550781 233.039062 443.472656 233.042969 " fill-opacity="1" fill-rule="nonzero"/></svg>