<svg xmlns="http://www.w3.org/2000/svg" xmlns:xlink="http://www.w3.org/1999/xlink" width="1000" zoomAndPan="magnify" viewBox="0 0 750 749.999995" height="1000" preserveAspectRatio="xMidYMid meet" version="1.0"><defs><clipPath id="edd208455b"><path d="M 75 75 L 680 75 L 680 675 L 75 675 Z M 75 75 " clip-rule="nonzero"/></clipPath><clipPath id="ce3898b582"><path d="M 150 75 L 604.945312 75 C 624.835938 75 643.914062 82.902344 657.980469 96.96875 C 672.042969 111.03125 679.945312 130.109375 679.945312 150 L 679.945312 600 C 679.945312 619.890625 672.042969 638.96875 657.980469 653.03125 C 643.914062 667.097656 624.835938 675 604.945312 675 L 150 675 C 130.109375 675 111.03125 667.097656 96.96875 653.03125 C 82.902344 638.96875 75 619.890625 75 600 L 75 150 C 75 130.109375 82.902344 111.03125 96.96875 96.96875 C 111.03125 82.902344 130.109375 75 150 75 Z M 150 75 " clip-rule="nonzero"/></clipPath><clipPath id="1d27363fe9"><path d="M 155.488281 167 L 560 167 L 560 492 L 155.488281 492 Z M 155.488281 167 " clip-rule="nonzero"/></clipPath><clipPath id="544394fffc"><path d="M 350 253 L 597 253 L 597 584.777344 L 350 584.777344 Z M 350 253 " clip-rule="nonzero"/></clipPath></defs><g clip-path="url(#edd208455b)"><g clip-path="url(#ce3898b582)"><path fill="#eef6e0" d="M 75 75 L 679.6875 75 L 679.6875 675 L 75 675 Z M 75 75 " fill-opacity="1" fill-rule="nonzero"/></g></g><g clip-path="url(#1d27363fe9)"><path fill="#6a913e" d="M 558.671875 251.558594 C 558.671875 251.859375 558.617188 252.167969 558.574219 252.441406 C 558.53125 252.714844 558.53125 252.820312 558.519531 253.015625 C 558.449219 253.597656 558.386719 254.1875 558.316406 254.78125 C 558.148438 256.140625 557.984375 257.535156 557.804688 258.921875 C 556.148438 271.4375 553.722656 284.574219 553.722656 284.574219 L 539.675781 294.78125 L 389.875 403.542969 L 350.679688 431.988281 L 268.128906 491.933594 L 217.242188 434.8125 L 192.804688 407.367188 L 163.640625 374.613281 L 155.832031 358.6875 L 164.449219 327.628906 C 164.449219 327.628906 178.769531 310.398438 183.839844 307.625 C 188.914062 304.855469 213.097656 295.082031 213.097656 295.082031 C 213.097656 295.082031 218.53125 269.523438 220.4375 266.609375 C 222.339844 263.695312 251.835938 240.707031 256.148438 240.027344 C 274.703125 236.957031 293.386719 235.363281 312.195312 235.253906 L 338.222656 231.554688 C 338.222656 231.554688 354.332031 199.640625 361.875 195.050781 C 369.417969 190.457031 405.304688 184.269531 405.304688 184.269531 C 405.304688 184.269531 429.691406 165.554688 440.363281 167.496094 C 450.386719 169.261719 483.867188 173.144531 488.667969 173.675781 L 489.144531 173.675781 L 497.082031 180.007812 L 528.347656 215.222656 C 528.347656 215.222656 556.023438 231.324219 558.6875 237.292969 C 559.578125 239.214844 559.375 244.824219 558.671875 251.558594 Z M 558.671875 251.558594 " fill-opacity="1" fill-rule="nonzero"/></g><path fill="#8ea84b" d="M 558.714844 251.152344 C 558.671875 251.398438 558.386719 254.214844 558.316406 254.796875 L 539.675781 287.984375 L 389.875 396.753906 L 350.679688 425.164062 C 351.703125 415.9375 361.6875 382.789062 361.6875 382.789062 C 361.6875 382.789062 381.386719 359.640625 386.59375 353.558594 C 394.039062 344.960938 401.589844 318.722656 403.78125 316.136719 C 410.773438 307.722656 415.960938 291.585938 421.996094 282.675781 C 428.03125 273.769531 474.3125 256.546875 474.3125 256.546875 L 519.792969 265.84375 C 519.792969 265.84375 547.800781 254.699219 556.253906 251.523438 C 557.066406 251.335938 557.886719 251.214844 558.714844 251.152344 Z M 558.714844 251.152344 " fill-opacity="1" fill-rule="nonzero"/><path fill="#8ea84b" d="M 503.488281 534.679688 C 503.492188 535.730469 503.308594 536.753906 502.941406 537.742188 C 502.921875 537.78125 502.90625 537.820312 502.898438 537.863281 C 502.414062 539.136719 501.824219 540.355469 501.132812 541.527344 C 477.761719 554.46875 455.945312 564.808594 449.882812 566.867188 C 431.585938 573.089844 362.136719 579.929688 351.523438 573.929688 C 345.695312 570.589844 308.21875 559.027344 277.621094 529.097656 C 252.734375 504.707031 222.5 446.617188 219.570312 439.570312 C 218.6875 437.363281 215.59375 435.695312 214.949219 430.410156 L 187.855469 401.804688 L 201.652344 398.847656 L 215.222656 396.199219 L 216.835938 395.890625 L 245.4375 364.886719 C 245.4375 364.886719 281.910156 351.582031 291.144531 355.035156 C 300.382812 358.484375 320.074219 370.613281 329.824219 373.246094 C 330.519531 373.441406 332.273438 374.074219 334.65625 375.011719 C 339.730469 376.953125 347.742188 380.105469 354.84375 382.621094 C 356.140625 383.089844 357.410156 383.503906 358.617188 383.929688 L 359.050781 384.078125 L 361.589844 384.898438 C 362.871094 385.277344 364.0625 385.621094 365.121094 385.90625 C 369.761719 387.089844 381.882812 392.878906 389.875 396.808594 C 394.191406 398.925781 397.277344 400.507812 397.277344 400.507812 L 429.734375 426.992188 L 445.613281 477.136719 L 481.785156 503.488281 C 481.785156 503.488281 495.378906 521.648438 501.113281 530.085938 C 501.863281 531.207031 502.515625 532.144531 502.878906 532.816406 C 503.246094 533.382812 503.449219 534.003906 503.488281 534.679688 Z M 503.488281 534.679688 " fill-opacity="1" fill-rule="nonzero"/><path fill="#92bc3d" d="M 571.25 360.84375 C 571.25 360.84375 559.78125 319.914062 539.675781 287.984375 C 532.664062 276.84375 524.574219 266.796875 515.539062 259.960938 C 499.941406 248.125 417.144531 226.054688 417.144531 226.054688 C 417.144531 226.054688 336.6875 222.117188 313.414062 235.90625 C 245.535156 276.164062 219.898438 335.488281 216.820312 342.9375 C 215.144531 347.070312 214.535156 372.285156 215.222656 396.164062 C 215.558594 408.019531 216.238281 419.558594 217.242188 428.007812 C 217.886719 433.304688 218.664062 437.363281 219.570312 439.570312 C 222.5 446.632812 252.734375 504.707031 277.628906 529.0625 C 308.226562 558.992188 345.703125 570.554688 351.535156 573.890625 C 362.121094 579.929688 431.59375 573.089844 449.894531 566.828125 C 455.953125 564.773438 477.769531 554.46875 501.140625 541.492188 C 517.515625 532.445312 534.664062 522.070312 547.660156 512.476562 C 565.109375 499.515625 578.722656 458.507812 581.46875 449 C 586.355469 432.226562 571.25 360.84375 571.25 360.84375 Z M 571.25 360.84375 " fill-opacity="1" fill-rule="nonzero"/><path fill="#6a913e" d="M 423.160156 532.453125 L 392.40625 513.585938 L 388.03125 509.199219 L 370.40625 498.339844 L 347.714844 477.234375 L 361.496094 498.226562 L 392.285156 518.945312 Z M 423.160156 532.453125 " fill-opacity="1" fill-rule="nonzero"/><path fill="#6a913e" d="M 380.179688 487.984375 L 368.304688 475.050781 L 381.414062 494.128906 L 388.269531 510.285156 L 392.082031 515.28125 L 387.695312 497.890625 Z M 380.179688 487.984375 " fill-opacity="1" fill-rule="nonzero"/><path fill="#6a913e" d="M 266.019531 385.730469 L 290.351562 397.832031 L 317.691406 421.640625 L 392.363281 454.429688 L 394.136719 442.554688 L 330.464844 421.890625 L 314.824219 410.015625 L 294.464844 392.289062 L 273.996094 384.476562 L 251.710938 369.511719 Z M 266.019531 385.730469 " fill-opacity="1" fill-rule="nonzero"/><path fill="#6a913e" d="M 318.671875 372.300781 L 306.003906 351.863281 L 306.195312 361.40625 L 314.109375 382.542969 L 314.03125 411.402344 L 316.773438 417.644531 L 319.070312 391.175781 Z M 318.671875 372.300781 " fill-opacity="1" fill-rule="nonzero"/><path fill="#6a913e" d="M 386.417969 271.535156 L 369.726562 284.277344 L 382.597656 277.964844 L 393 268.277344 L 400.117188 262.804688 L 392.929688 265.894531 Z M 386.417969 271.535156 " fill-opacity="1" fill-rule="nonzero"/><path fill="#6a913e" d="M 418.945312 366.554688 L 419.140625 369.679688 L 415.433594 393.753906 L 405.332031 409.75 L 391.234375 432.066406 L 390.359375 433.453125 L 383.957031 428.34375 L 387.882812 422.664062 L 399.925781 405.34375 L 403.515625 400.171875 L 412.714844 376.910156 L 412.785156 369.722656 L 412.796875 369.609375 L 413.167969 333.449219 L 423.136719 303.042969 L 417.570312 343.917969 L 418.804688 364.242188 Z M 418.945312 366.554688 " fill-opacity="1" fill-rule="nonzero"/><path fill="#6a913e" d="M 443.53125 337.101562 L 437.25 352.136719 L 425.421875 363.226562 L 418.945312 366.554688 L 412.785156 369.722656 L 412.496094 369.882812 L 412.796875 369.609375 L 418.804688 364.242188 L 427.792969 356.214844 Z M 443.53125 337.101562 " fill-opacity="1" fill-rule="nonzero"/><path fill="#6a913e" d="M 440.066406 464.105469 L 434.949219 486.492188 L 424.800781 501.175781 L 435.996094 468.996094 L 437.488281 454.113281 L 437.648438 452.574219 L 438.890625 458.5625 Z M 440.066406 464.105469 " fill-opacity="1" fill-rule="nonzero"/><path fill="#6a913e" d="M 323.558594 445.664062 L 347.050781 443.332031 L 357.558594 437.488281 L 340.992188 441.125 L 306.027344 440.921875 Z M 323.558594 445.664062 " fill-opacity="1" fill-rule="nonzero"/><path fill="#6a913e" d="M 370.765625 301.675781 L 376.589844 270 L 372.546875 254.003906 L 371.191406 277.097656 L 357.425781 322.855469 Z M 370.765625 301.675781 " fill-opacity="1" fill-rule="nonzero"/><path fill="#6a913e" d="M 333.464844 341.675781 L 306.515625 326.289062 L 290.167969 311.679688 L 270.429688 283.164062 L 288.78125 303.855469 L 312.039062 320.398438 L 332.460938 335.9375 L 346.445312 342.425781 L 358.769531 352.746094 Z M 333.464844 341.675781 " fill-opacity="1" fill-rule="nonzero"/><path fill="#6a913e" d="M 298.796875 314.945312 L 300.929688 305.152344 L 297.984375 292.699219 L 291.472656 281.539062 L 295.027344 291.425781 L 297.347656 311.765625 Z M 298.796875 314.945312 " fill-opacity="1" fill-rule="nonzero"/><path fill="#6a913e" d="M 421.644531 532.796875 L 421 531.507812 L 420.71875 530.953125 L 394.199219 478.617188 C 394.199219 478.617188 389.40625 466.488281 383.125 450.367188 C 381.511719 446.246094 379.808594 441.859375 378.054688 437.347656 C 371.164062 419.585938 363.621094 399.898438 358.804688 386.664062 C 358.53125 385.933594 358.273438 385.234375 358.027344 384.535156 C 355.566406 377.703125 353.96875 372.929688 353.808594 371.605469 C 353.5 369.160156 352.40625 360.128906 351.085938 349.382812 C 350.953125 348.269531 350.8125 347.125 350.679688 345.976562 C 348.324219 326.84375 345.5625 304.261719 345.5625 304.261719 L 335.855469 250.800781 L 349.910156 288.761719 L 360.011719 343.0625 L 369.714844 370.757812 L 370.078125 371.78125 L 371.039062 374.550781 L 377.71875 393.683594 L 385.914062 417.105469 L 387.898438 422.683594 L 391.25 432.085938 L 410.042969 484.753906 L 421.132812 523.988281 L 421.582031 531.492188 L 421.582031 531.773438 Z M 421.644531 532.796875 " fill-opacity="1" fill-rule="nonzero"/><path fill="#6a913e" d="M 503.480469 537.398438 C 503.492188 538.457031 503.308594 539.480469 502.933594 540.46875 C 502.925781 540.511719 502.910156 540.546875 502.886719 540.582031 C 501.386719 544.8125 497.355469 550.03125 494.109375 553.824219 C 491.578125 556.773438 489.503906 558.8125 489.503906 558.8125 L 478.609375 562.285156 L 430.40625 577.609375 L 429.222656 577.988281 L 426.480469 578.226562 C 418.582031 578.878906 395.070312 580.875 374.578125 581.882812 C 373.261719 581.953125 371.929688 582.023438 370.660156 582.078125 C 365.480469 582.332031 360.566406 582.5 356.28125 582.578125 C 355.140625 582.578125 354.046875 582.625 353 582.625 C 347.167969 582.625 342.828125 582.421875 341.0625 581.828125 C 331.800781 578.765625 242.375 530.203125 236.078125 522.761719 C 229.777344 515.316406 207.847656 477.621094 205.296875 471.363281 C 200.285156 459.003906 162.261719 434.917969 163.507812 431.035156 C 165.066406 426.339844 181.300781 405.546875 181.300781 405.546875 L 201.6875 401.609375 L 216.871094 398.609375 L 245.472656 367.613281 C 245.472656 367.613281 281.945312 354.308594 291.179688 357.753906 C 295.292969 359.289062 301.460938 362.527344 307.945312 365.890625 C 311.269531 367.65625 314.675781 369.421875 317.914062 370.996094 C 321.761719 373 325.753906 374.65625 329.894531 375.964844 C 330.589844 376.160156 332.347656 376.847656 334.726562 377.730469 C 339.808594 379.671875 347.800781 382.816406 354.914062 385.339844 C 355.644531 385.605469 356.367188 385.851562 357.074219 386.089844 L 358.6875 386.648438 L 358.875 386.707031 L 359.121094 386.796875 L 361.210938 387.46875 L 361.660156 387.617188 C 362.941406 387.988281 364.132812 388.332031 365.191406 388.617188 C 367.757812 389.269531 372.59375 391.335938 377.761719 393.710938 C 387.035156 397.964844 397.339844 403.226562 397.339844 403.226562 L 399.984375 405.390625 L 405.394531 409.804688 L 429.796875 429.703125 L 437.550781 454.164062 L 438.953125 458.578125 L 445.695312 479.8125 L 481.863281 506.164062 C 481.863281 506.164062 495.460938 524.324219 501.203125 532.761719 C 501.933594 533.890625 502.597656 534.828125 502.96875 535.5 C 503.3125 536.085938 503.480469 536.71875 503.480469 537.398438 Z M 503.480469 537.398438 " fill-opacity="1" fill-rule="nonzero"/><path fill="#92bc3d" d="M 321.273438 520.589844 L 299.324219 517.136719 L 286.347656 517.003906 L 267.988281 514.089844 L 241.484375 499.867188 L 266.179688 508.421875 L 278.285156 511.027344 L 284.132812 512.933594 L 319.898438 517.355469 Z M 321.273438 520.589844 " fill-opacity="1" fill-rule="nonzero"/><path fill="#92bc3d" d="M 276.5625 500.890625 L 282.5 514.957031 L 278.285156 511.027344 L 270.015625 498.113281 L 255.300781 483.066406 L 268.226562 493.113281 Z M 276.5625 500.890625 " fill-opacity="1" fill-rule="nonzero"/><path fill="#92bc3d" d="M 331.753906 443.554688 L 331.886719 458.375 L 338.320312 477.285156 L 336.035156 521.796875 L 326.550781 521.949219 L 333.464844 484.578125 L 332.011719 473.277344 L 327.230469 459.195312 L 328.578125 447.261719 L 325.261719 428.15625 Z M 331.753906 443.554688 " fill-opacity="1" fill-rule="nonzero"/><path fill="#92bc3d" d="M 311.039062 460.203125 L 306.027344 447.765625 L 310.890625 451.121094 L 318.371094 461.757812 L 333.394531 471.609375 L 335.425781 474.929688 L 320.675781 466.84375 Z M 311.039062 460.203125 " fill-opacity="1" fill-rule="nonzero"/><path fill="#92bc3d" d="M 389.417969 523.890625 L 386.742188 510.601562 L 380.355469 497.457031 L 375.363281 475.050781 L 375.355469 492.867188 L 384.160156 515.617188 L 381.707031 549.5 L 386.335938 548.289062 Z M 389.417969 523.890625 " fill-opacity="1" fill-rule="nonzero"/><path fill="#92bc3d" d="M 389.417969 506.003906 L 394.648438 497.917969 L 395.511719 488.851562 L 389.46875 501.890625 L 382.542969 512.007812 Z M 389.417969 506.003906 " fill-opacity="1" fill-rule="nonzero"/><path fill="#92bc3d" d="M 399.941406 568.207031 L 384.125 568.535156 L 376.828125 566.019531 L 388.074219 566.890625 L 411.453125 564.375 Z M 399.941406 568.207031 " fill-opacity="1" fill-rule="nonzero"/><path fill="#92bc3d" d="M 351.445312 483.042969 L 342.941406 494.253906 L 336.175781 498.199219 L 343.398438 490.730469 L 353.808594 473.242188 Z M 351.445312 483.042969 " fill-opacity="1" fill-rule="nonzero"/><path fill="#92bc3d" d="M 255.574219 468.898438 L 233.996094 465.6875 L 224.996094 460.511719 L 239.941406 464.324219 L 272.539062 466.234375 Z M 255.574219 468.898438 " fill-opacity="1" fill-rule="nonzero"/><path fill="#92bc3d" d="M 280.128906 463.265625 L 281.378906 444.003906 L 278.378906 433.859375 L 268.324219 419.214844 L 274.226562 431.546875 L 275.980469 445.054688 L 278.125 477.234375 L 279.332031 474.523438 Z M 280.128906 463.265625 " fill-opacity="1" fill-rule="nonzero"/><path fill="#92bc3d" d="M 363.410156 547.621094 L 348.234375 546.121094 L 331.949219 545.890625 L 311.90625 542.101562 L 323.578125 543.390625 L 340.375 543.433594 L 352.179688 543.074219 L 374.523438 547.132812 L 379.402344 550.746094 Z M 363.410156 547.621094 " fill-opacity="1" fill-rule="nonzero"/><path fill="#92bc3d" d="M 343.214844 544.617188 L 337.445312 549.90625 L 332.390625 553.074219 L 324.652344 554.699219 L 331.207031 552.035156 L 340.542969 544.925781 Z M 343.214844 544.617188 " fill-opacity="1" fill-rule="nonzero"/><path fill="#92bc3d" d="M 278.117188 444.699219 L 271.585938 443.457031 L 265.226562 439.464844 L 260.886719 434.25 L 265.5 437.9375 L 276.730469 443.386719 Z M 278.117188 444.699219 " fill-opacity="1" fill-rule="nonzero"/><path fill="#92bc3d" d="M 245.921875 437.355469 L 260.886719 457.132812 L 285.792969 492.992188 L 327.96875 527.332031 L 385.4375 554.699219 L 416.070312 564.375 L 434.234375 564.375 L 387.644531 546.417969 L 346.445312 527.835938 L 304.484375 499.867188 L 282.5 477.234375 L 260.886719 450.996094 Z M 245.921875 437.355469 " fill-opacity="1" fill-rule="nonzero"/><path fill="#8ea84b" d="M 503.480469 537.398438 C 503.492188 538.457031 503.308594 539.480469 502.933594 540.46875 C 502.925781 540.511719 502.910156 540.546875 502.886719 540.582031 C 501.386719 544.8125 497.355469 550.03125 494.109375 553.824219 C 488.675781 556.828125 483.410156 559.707031 478.609375 562.285156 C 467.871094 568.039062 459.5 572.257812 457.09375 572.878906 C 454.003906 573.679688 443.117188 575.578125 430.40625 577.589844 L 426.480469 578.210938 C 409.867188 580.789062 391.261719 583.390625 383.03125 583.992188 C 380.164062 583.480469 377.34375 582.769531 374.578125 581.863281 C 373.261719 581.933594 371.929688 582.003906 370.660156 582.058594 C 362.71875 579.613281 355.40625 575.5 354.117188 572.242188 C 352.273438 567.546875 352.539062 531.253906 352.539062 531.253906 C 352.539062 531.253906 357.347656 512.28125 361.6875 498.375 C 362.402344 496.070312 363.074219 493.960938 363.648438 492.082031 C 364.589844 489.019531 365.296875 486.730469 365.578125 485.761719 C 366.648438 482.125 356.757812 456.707031 350.582031 441.40625 L 349.699219 439.246094 C 349.0625 437.664062 348.480469 436.242188 347.980469 434.988281 C 346.921875 432.386719 346.214844 430.574219 345.984375 430.003906 C 345.839844 428.996094 345.878906 428 346.109375 427.007812 C 347.539062 417.492188 355.8125 389.929688 356.976562 386.082031 L 358.59375 386.636719 L 358.777344 386.699219 C 358.503906 385.96875 358.246094 385.269531 358 384.574219 C 359.941406 382.285156 365.121094 377.605469 370.035156 371.796875 L 370.996094 374.570312 L 377.675781 393.699219 C 386.945312 397.957031 397.25 403.21875 397.25 403.21875 L 399.898438 405.378906 L 403.488281 400.207031 L 412.691406 376.945312 L 412.761719 369.757812 L 412.46875 369.917969 L 412.769531 369.644531 L 413.128906 333.449219 L 423.144531 303.042969 L 417.570312 343.945312 L 418.8125 364.25 L 427.792969 356.226562 L 443.53125 337.121094 L 437.25 352.128906 L 425.421875 363.207031 L 418.945312 366.546875 L 419.140625 369.671875 L 415.433594 393.746094 L 405.332031 409.742188 L 429.734375 429.640625 L 437.488281 454.101562 L 437.648438 452.566406 L 438.890625 458.550781 L 445.632812 479.785156 L 481.804688 506.136719 C 481.804688 506.136719 495.398438 524.296875 501.140625 532.734375 C 501.875 533.867188 502.535156 534.800781 502.90625 535.472656 C 503.277344 536.058594 503.46875 536.703125 503.480469 537.398438 Z M 503.480469 537.398438 " fill-opacity="1" fill-rule="nonzero"/><g clip-path="url(#544394fffc)"><path fill="#6a913e" d="M 594.746094 374.5 C 595.378906 380.035156 588.921875 404.515625 588.921875 404.515625 C 588.921875 404.515625 587.632812 453.28125 585.835938 459.601562 C 584.035156 465.925781 555.082031 518.117188 551.15625 522.539062 C 547.226562 526.960938 469.832031 570.671875 461.636719 572.859375 C 453.441406 575.050781 390.394531 584.796875 383.816406 584.070312 L 383.03125 583.964844 C 380.164062 583.453125 377.34375 582.742188 374.578125 581.839844 C 366.777344 579.375 357.640625 575.394531 356.394531 572.214844 C 354.550781 567.519531 355.59375 532.230469 355.59375 532.230469 C 355.59375 532.230469 368.648438 490.738281 370.121094 485.714844 C 371.597656 480.695312 351.84375 433.488281 350.554688 429.957031 C 349.425781 426.878906 358.742188 395.386719 361.140625 387.414062 C 361.476562 386.242188 361.6875 385.585938 361.6875 385.585938 L 371.023438 374.527344 L 386.453125 356.304688 C 393.84375 347.6875 401.503906 321.496094 403.65625 318.890625 C 410.617188 310.46875 415.832031 294.347656 421.839844 285.421875 C 427.847656 276.496094 473.632812 258.9375 473.632812 258.9375 L 520.101562 269.601562 C 520.101562 269.601562 554.507812 254.082031 556.5 253.863281 C 562.535156 253.175781 591.269531 260.925781 595.699219 263.28125 C 599.113281 265.046875 581.582031 312.453125 585.359375 325.160156 C 587.132812 327.480469 594.09375 368.964844 594.746094 374.5 Z M 594.746094 374.5 " fill-opacity="1" fill-rule="nonzero"/></g><path fill="#92bc3d" d="M 472.230469 544.378906 L 450.476562 523.449219 L 447.730469 519.085938 L 435.273438 507.054688 L 420.691406 485.789062 L 427.871094 505.324219 L 449.277344 527.765625 Z M 472.230469 544.378906 " fill-opacity="1" fill-rule="nonzero"/><path fill="#92bc3d" d="M 445.542969 500.460938 L 438.300781 487.808594 L 445.304688 505.667969 L 447.714844 520.015625 L 449.859375 524.765625 L 449.769531 509.871094 Z M 445.542969 500.460938 " fill-opacity="1" fill-rule="nonzero"/><path fill="#92bc3d" d="M 428.605469 398.582031 L 442.933594 415.992188 L 455.1875 443.253906 L 500.769531 493.386719 L 506.601562 485.035156 L 464.996094 447.789062 L 457.332031 433.507812 L 448.191406 413.210938 L 435.265625 400.355469 L 419.816406 375.382812 Z M 428.605469 398.582031 " fill-opacity="1" fill-rule="nonzero"/><path fill="#92bc3d" d="M 474.472656 406.367188 L 472.320312 386.648438 L 468.886719 393.902344 L 467.085938 412.539062 L 456.191406 434.285156 L 455.972656 439.925781 L 467.6875 420.742188 Z M 474.472656 406.367188 " fill-opacity="1" fill-rule="nonzero"/><path fill="#92bc3d" d="M 557.796875 330.410156 L 540.398438 335.53125 L 552.699219 334.3125 L 564.097656 329.765625 L 571.535156 327.550781 L 564.8125 327.894531 Z M 557.796875 330.410156 " fill-opacity="1" fill-rule="nonzero"/><path fill="#92bc3d" d="M 517.410156 458.09375 L 512.925781 452.972656 L 534.1875 432.667969 L 545.914062 414.90625 L 553.792969 379.285156 L 567.394531 355.765625 L 555.679688 388.519531 L 552.539062 409.890625 L 545.277344 429.128906 Z M 517.410156 458.09375 " fill-opacity="1" fill-rule="nonzero"/><path fill="#92bc3d" d="M 546.929688 409.097656 L 562.121094 400.09375 L 578.601562 386.671875 L 570.738281 398.105469 L 558.917969 405.496094 Z M 546.929688 409.097656 " fill-opacity="1" fill-rule="nonzero"/><path fill="#92bc3d" d="M 514.171875 522.980469 L 526.539062 507.824219 L 528.992188 498.304688 L 521.554688 510.125 L 500.796875 530.597656 Z M 514.171875 522.980469 " fill-opacity="1" fill-rule="nonzero"/><path fill="#92bc3d" d="M 450.714844 463.371094 L 469.804688 469.605469 L 480.144531 468.777344 L 465.933594 465.878906 L 438.902344 453.828125 Z M 450.714844 463.371094 " fill-opacity="1" fill-rule="nonzero"/><path fill="#92bc3d" d="M 535.652344 349.367188 L 550.457031 326.402344 L 552.355469 312.800781 L 543.867188 330.367188 L 518.230469 362.007812 Z M 535.652344 349.367188 " fill-opacity="1" fill-rule="nonzero"/><path fill="#92bc3d" d="M 497.03125 380.484375 L 476.378906 354.230469 L 469.1875 337.640625 L 464.589844 309.417969 L 471.058594 331.269531 L 482.878906 351.660156 L 498.40625 375.816406 L 507.777344 387.425781 L 513.128906 398.714844 Z M 497.03125 380.484375 " fill-opacity="1" fill-rule="nonzero"/><path fill="#92bc3d" d="M 474.65625 343.035156 L 479.984375 336.378906 L 482.375 325.980469 L 481.511719 315.351562 L 480.558594 324.019531 L 474.726562 340.148438 Z M 474.65625 343.035156 " fill-opacity="1" fill-rule="nonzero"/><path fill="#92bc3d" d="M 517.363281 311.113281 L 521.519531 358.308594 L 525.207031 393.4375 L 524.015625 436.613281 L 502.15625 518.847656 L 472.453125 555.574219 L 487.730469 524.894531 L 498.140625 495.242188 L 512.105469 427.210938 L 513.589844 386.300781 L 509.804688 354.882812 L 514.453125 317.992188 Z M 517.363281 311.113281 " fill-opacity="1" fill-rule="nonzero"/></svg>