<svg xmlns="http://www.w3.org/2000/svg" xmlns:xlink="http://www.w3.org/1999/xlink" width="1000" zoomAndPan="magnify" viewBox="0 0 750 749.999995" height="1000" preserveAspectRatio="xMidYMid meet" version="1.0"><defs><clipPath id="d6fc9d63ee"><path d="M 75 75 L 680 75 L 680 675 L 75 675 Z M 75 75 " clip-rule="nonzero"/></clipPath><clipPath id="5d0225db6d"><path d="M 150 75 L 604.945312 75 C 624.835938 75 643.914062 82.902344 657.980469 96.96875 C 672.042969 111.03125 679.945312 130.109375 679.945312 150 L 679.945312 600 C 679.945312 619.890625 672.042969 638.96875 657.980469 653.03125 C 643.914062 667.097656 624.835938 675 604.945312 675 L 150 675 C 130.109375 675 111.03125 667.097656 96.96875 653.03125 C 82.902344 638.96875 75 619.890625 75 600 L 75 150 C 75 130.109375 82.902344 111.03125 96.96875 96.96875 C 111.03125 82.902344 130.109375 75 150 75 Z M 150 75 " clip-rule="nonzero"/></clipPath><clipPath id="67aa85f6d9"><path d="M 107 272.722656 L 648 272.722656 L 648 477.472656 L 107 477.472656 Z M 107 272.722656 " clip-rule="nonzero"/></clipPath></defs><g clip-path="url(#d6fc9d63ee)"><g clip-path="url(#5d0225db6d)"><path fill="#f6adb8" d="M 75 75 L 679.6875 75 L 679.6875 675 L 75 675 Z M 75 75 " fill-opacity="1" fill-rule="nonzero"/></g></g><g clip-path="url(#67aa85f6d9)"><path fill="#ffffff" d="M 630.800781 339.707031 L 630.648438 339.585938 C 628.664062 338.070312 626.570312 336.71875 624.371094 335.539062 C 622.167969 334.355469 619.886719 333.359375 617.523438 332.542969 C 615.160156 331.730469 612.75 331.109375 610.285156 330.683594 C 607.824219 330.257812 605.34375 330.03125 602.847656 330 L 602.695312 330 C 589.058594 330 576.058594 335.113281 563.925781 345.238281 C 559.6875 343.691406 555.316406 342.914062 550.804688 342.902344 C 547.136719 342.910156 543.542969 343.441406 540.023438 344.496094 C 536.507812 345.550781 533.214844 347.082031 530.144531 349.09375 L 529.550781 349.472656 L 528.96875 349.882812 C 527.003906 351.296875 525.179688 352.875 523.5 354.617188 C 520.035156 350.277344 516.070312 346.445312 511.613281 343.128906 C 509.300781 341.386719 506.863281 339.839844 504.300781 338.488281 C 501.734375 337.136719 499.082031 336 496.335938 335.074219 C 493.589844 334.152344 490.785156 333.453125 487.929688 332.980469 C 485.070312 332.507812 482.191406 332.269531 479.292969 332.261719 C 475.148438 332.265625 471.050781 332.726562 467.007812 333.644531 C 461.914062 334.761719 456.980469 336.367188 452.203125 338.460938 C 451.335938 336.996094 450.371094 335.59375 449.320312 334.253906 C 448.265625 332.917969 447.128906 331.652344 445.910156 330.460938 C 444.691406 329.269531 443.398438 328.164062 442.035156 327.144531 C 440.667969 326.121094 439.246094 325.195312 437.757812 324.359375 C 436.273438 323.523438 434.738281 322.789062 433.15625 322.15625 C 431.574219 321.523438 429.960938 320.996094 428.308594 320.574219 C 426.65625 320.152344 424.984375 319.835938 423.292969 319.632812 C 421.601562 319.429688 419.902344 319.339844 418.199219 319.359375 C 409.554688 319.359375 400.8125 322.003906 392.265625 327.226562 L 391.878906 327.460938 C 387.1875 330.292969 382.996094 333.730469 379.300781 337.769531 L 378.953125 338.160156 C 378.328125 338.894531 377.6875 339.671875 377.03125 340.527344 C 373.625 340.902344 370.3125 341.667969 367.089844 342.828125 L 366.863281 342.351562 C 366.078125 340.632812 365.175781 338.976562 364.152344 337.386719 C 363.128906 335.796875 362 334.285156 360.757812 332.859375 C 359.515625 331.433594 358.179688 330.101562 356.746094 328.867188 C 355.316406 327.636719 353.800781 326.511719 352.207031 325.496094 C 350.609375 324.480469 348.949219 323.585938 347.226562 322.808594 C 345.5 322.035156 343.730469 321.386719 341.914062 320.867188 C 340.09375 320.347656 338.25 319.960938 336.375 319.707031 C 334.5 319.457031 332.617188 319.339844 330.726562 319.359375 C 322.082031 319.359375 313.339844 322.003906 304.792969 327.226562 L 304.40625 327.460938 C 301.664062 329.171875 299.054688 331.066406 296.582031 333.144531 C 296.328125 330.460938 295.800781 327.828125 294.992188 325.253906 C 294.183594 322.683594 293.113281 320.21875 291.785156 317.871094 C 290.457031 315.523438 288.898438 313.339844 287.105469 311.320312 C 285.316406 309.304688 283.335938 307.496094 281.164062 305.894531 C 277.453125 303.160156 273.414062 301.066406 269.042969 299.609375 C 264.671875 298.152344 260.183594 297.398438 255.574219 297.359375 C 254.492188 297.304688 253.414062 297.269531 252.410156 297.269531 C 247.191406 297.265625 242.121094 298.125 237.195312 299.84375 C 236.535156 298.167969 235.800781 296.515625 234.96875 294.882812 L 234.773438 294.503906 C 225.425781 276.75 210.472656 273.574219 204.496094 273.035156 C 202.972656 272.90625 201.425781 272.828125 199.914062 272.828125 C 196.984375 272.796875 194.078125 273.0625 191.203125 273.621094 C 188.324219 274.179688 185.53125 275.027344 182.828125 276.15625 C 180.121094 277.285156 177.558594 278.675781 175.136719 280.328125 C 172.714844 281.980469 170.488281 283.863281 168.449219 285.96875 C 156.324219 298.558594 154.929688 315.8125 154.929688 327.699219 C 154.929688 329.859375 154.996094 332.195312 155.125 334.496094 L 155.125 335.394531 C 155.125 336.3125 155.125 337.652344 155.125 339.542969 C 155.125 342.675781 155.125 346.78125 154.984375 351.730469 C 154.910156 354.726562 154.867188 357.589844 154.84375 360.269531 C 153.246094 361.046875 151.703125 361.921875 150.207031 362.882812 L 149.625 363.261719 C 121.59375 382.398438 107.332031 405.199219 107.332031 431.035156 C 107.332031 434.6875 107.625 438.320312 108.207031 441.925781 C 110 459.617188 123.886719 477.230469 152.011719 477.230469 C 161.0625 477.136719 169.941406 475.851562 178.648438 473.382812 C 184.304688 471.878906 189.765625 469.859375 195.042969 467.332031 C 201.828125 472.613281 210.167969 476.535156 220.285156 476.535156 C 225.394531 476.503906 230.320312 475.527344 235.054688 473.597656 C 240.101562 476.054688 245.433594 477.265625 251.046875 477.230469 C 257.917969 477.230469 264.910156 475.433594 272.453125 471.730469 C 273.132812 471.394531 273.78125 471.046875 274.429688 470.703125 C 279.386719 472.847656 284.566406 473.925781 289.96875 473.945312 C 292.246094 473.9375 294.511719 473.742188 296.753906 473.351562 C 299 472.960938 301.199219 472.386719 303.34375 471.621094 C 305.492188 470.859375 307.5625 469.921875 309.550781 468.808594 C 311.539062 467.691406 313.417969 466.417969 315.1875 464.984375 C 318.015625 467.902344 321.21875 470.316406 324.800781 472.230469 C 328.378906 474.144531 332.167969 475.464844 336.164062 476.191406 C 339.515625 476.839844 342.898438 477.167969 346.308594 477.183594 C 349.824219 477.222656 353.289062 476.832031 356.703125 476.007812 C 360.121094 475.183594 363.382812 473.957031 366.496094 472.324219 C 370.074219 473.382812 373.730469 473.925781 377.460938 473.945312 C 379.742188 473.9375 382.003906 473.742188 384.25 473.351562 C 386.496094 472.960938 388.695312 472.382812 390.84375 471.621094 C 392.992188 470.859375 395.0625 469.921875 397.050781 468.804688 C 399.039062 467.691406 400.921875 466.417969 402.695312 464.984375 C 405.515625 467.902344 408.714844 470.320312 412.296875 472.234375 C 415.875 474.148438 419.664062 475.464844 423.65625 476.191406 C 427.007812 476.839844 430.390625 477.167969 433.804688 477.183594 C 444.671875 477.183594 454.332031 473.554688 461.734375 466.84375 C 467.296875 470.203125 473.207031 472.761719 479.464844 474.515625 C 485.71875 476.269531 492.097656 477.160156 498.59375 477.183594 C 503.925781 477.179688 509.199219 476.609375 514.414062 475.476562 L 516.347656 475.058594 L 518.207031 474.410156 C 524.574219 472.152344 530.554688 469.121094 536.144531 465.320312 L 536.878906 466.011719 C 547.035156 475.1875 557.3125 477.109375 564.140625 477.109375 C 573.769531 477.109375 596.988281 473.199219 604.78125 437.03125 C 605.589844 432.960938 606.839844 429.027344 608.53125 425.238281 C 610.222656 421.445312 612.308594 417.890625 614.796875 414.566406 C 618.800781 409.273438 623.769531 405.140625 629.699219 402.160156 L 641.488281 396.152344 L 645.660156 383.597656 C 646.953125 379.742188 647.601562 375.777344 647.601562 371.710938 C 647.613281 364.492188 645.453125 350.628906 630.800781 339.707031 Z M 630.800781 339.707031 " fill-opacity="1" fill-rule="nonzero"/></g><path fill="#dc5b86" d="M 211.757812 388.449219 C 210.316406 382.417969 209.597656 373.542969 209.597656 361.824219 C 209.597656 360.019531 209.597656 358.128906 209.683594 356.171875 C 209.683594 352.648438 209.757812 350.035156 209.757812 348.328125 L 209.757812 343.917969 C 209.757812 331.046875 209.355469 321.96875 208.546875 316.6875 C 208.171875 314.1875 207.40625 311.816406 206.246094 309.566406 C 204.804688 306.800781 203.25 305.34375 201.578125 305.191406 C 201.015625 305.136719 200.5 305.117188 199.914062 305.117188 C 198.375 305.046875 196.890625 305.292969 195.457031 305.859375 C 194.023438 306.421875 192.769531 307.257812 191.691406 308.359375 C 188.679688 311.476562 187.171875 317.9375 187.164062 327.742188 C 187.164062 329.300781 187.21875 330.984375 187.316406 332.648438 L 187.390625 333.40625 C 187.390625 334.960938 187.464844 337.027344 187.464844 339.585938 C 187.464844 343 187.417969 347.300781 187.316406 352.488281 C 187.21875 356.605469 187.164062 360.332031 187.164062 363.652344 C 187.164062 370.226562 187.339844 375.179688 187.695312 378.507812 C 187.695312 380.613281 183.347656 383.402344 174.652344 386.882812 C 172.300781 387.71875 170.03125 388.734375 167.84375 389.929688 C 148.992188 402.753906 139.566406 416.441406 139.566406 430.992188 C 139.566406 433.324219 139.792969 435.636719 140.246094 437.929688 C 140.246094 442.605469 144.164062 444.945312 152.003906 444.953125 C 158.1875 444.859375 164.25 443.953125 170.1875 442.230469 C 184.367188 438.359375 193.890625 431.195312 198.769531 420.738281 C 199.527344 421.746094 200.808594 423.679688 202.617188 426.539062 C 210.007812 438.308594 215.894531 444.195312 220.273438 444.195312 C 223.875 444.195312 227.015625 441.3125 229.695312 435.550781 C 230.101562 434.640625 230.300781 433.683594 230.300781 432.6875 C 230.300781 429.417969 228.238281 425.417969 224.121094 420.695312 C 218.089844 409.039062 213.96875 398.289062 211.757812 388.449219 Z M 178.953125 417.460938 C 174.472656 422.339844 170.019531 424.777344 165.597656 424.777344 L 163.519531 424.550781 C 162.734375 423.613281 162.332031 422.535156 162.320312 421.308594 C 162.324219 420.792969 162.398438 420.289062 162.550781 419.796875 C 163.398438 416.777344 166.566406 413.535156 172.046875 410.070312 C 176.527344 407.171875 181.28125 404.832031 186.308594 403.046875 C 185.675781 407.933594 183.222656 412.738281 178.953125 417.460938 Z M 259.992188 368.578125 C 262.363281 382.460938 263.496094 396.441406 263.386719 410.523438 C 263.386719 412.328125 263.386719 414.1875 263.3125 416.101562 L 262.859375 438.792969 C 262.859375 439.949219 261.324219 441.289062 258.253906 442.792969 C 256.023438 444.03125 253.636719 444.753906 251.089844 444.953125 C 250.25 445 249.496094 444.773438 248.820312 444.269531 C 244.730469 440.914062 242.332031 435.632812 241.625 428.429688 C 241.460938 426.773438 241.386719 425.113281 241.398438 423.449219 C 241.398438 419.328125 241.699219 413.945312 242.304688 407.304688 C 242.550781 404.589844 242.726562 402.578125 242.835938 401.277344 C 243.179688 396.347656 243.355469 391.246094 243.363281 385.964844 C 243.363281 384.203125 243.363281 382.417969 243.289062 380.5625 C 243.289062 379.480469 243.105469 378.152344 242.910156 376.640625 C 242.859375 376.191406 242.832031 375.738281 242.835938 375.289062 C 242.878906 373.953125 243.128906 372.65625 243.578125 371.398438 C 244.027344 370.140625 244.660156 368.980469 245.472656 367.917969 C 247.230469 365.40625 250.324219 364.148438 254.753906 364.148438 C 258.21875 364.140625 259.953125 365.617188 259.960938 368.578125 Z M 264.511719 336.90625 C 264.476562 338.28125 264.152344 339.585938 263.53125 340.8125 C 262.910156 342.042969 262.054688 343.078125 260.964844 343.917969 C 259.71875 345.046875 258.308594 345.902344 256.730469 346.488281 C 255.15625 347.074219 253.527344 347.347656 251.847656 347.3125 C 251.121094 347.308594 250.402344 347.257812 249.683594 347.160156 C 246.3125 346.953125 243.792969 346.023438 242.121094 344.375 C 241.4375 343.789062 240.910156 343.085938 240.53125 342.269531 C 240.152344 341.453125 239.964844 340.59375 239.960938 339.695312 L 239.960938 339.46875 C 240.0625 336.703125 241.445312 334.289062 244.109375 332.226562 C 245.300781 331.328125 246.605469 330.644531 248.027344 330.179688 C 249.445312 329.714844 250.902344 329.492188 252.398438 329.515625 C 253.003906 329.515625 253.609375 329.515625 254.214844 329.589844 C 255.566406 329.511719 256.898438 329.65625 258.207031 330.015625 C 259.515625 330.375 260.730469 330.9375 261.851562 331.699219 C 262.699219 332.292969 263.355469 333.050781 263.820312 333.972656 C 264.285156 334.894531 264.503906 335.875 264.476562 336.90625 Z M 352.621094 424.109375 C 353.816406 428.171875 354.496094 432.320312 354.664062 436.554688 C 354.664062 439.117188 354.207031 441.007812 353.300781 442.207031 C 351.859375 444.074219 349.523438 445.007812 346.289062 445.007812 C 344.863281 444.988281 343.457031 444.835938 342.0625 444.550781 C 337.785156 443.832031 334.390625 438.675781 331.882812 429.089844 C 330.371094 423.457031 328.710938 413.730469 326.902344 399.914062 C 325.648438 390.464844 324.667969 384.429688 323.964844 381.816406 C 316.414062 387.324219 311.121094 393.5 308.078125 400.335938 C 305.558594 405.960938 304.25 412.976562 304.15625 421.386719 C 304.097656 424.988281 302.714844 429.109375 300.007812 433.757812 C 296.882812 439.089844 293.539062 441.75 289.980469 441.742188 C 286.910156 441.742188 284.167969 439.605469 281.757812 435.335938 C 280.316406 432.71875 279.59375 428.398438 279.59375 422.367188 C 279.71875 415.4375 280.320312 408.550781 281.410156 401.707031 C 282.222656 396.785156 282.773438 391.832031 283.0625 386.851562 C 283.121094 381.570312 284.503906 377.699219 287.214844 375.234375 C 288.191406 374.316406 289.308594 373.625 290.5625 373.152344 C 291.816406 372.679688 293.113281 372.464844 294.453125 372.511719 C 295.726562 372.523438 296.984375 372.675781 298.222656 372.964844 C 301.503906 373.683594 303.261719 374.816406 303.507812 376.359375 C 305.917969 373.601562 308.082031 370.664062 309.992188 367.539062 C 311.777344 364.621094 313.742188 361.828125 315.882812 359.15625 C 317.542969 357.460938 319.402344 356.023438 321.457031 354.832031 C 324.925781 352.671875 327.992188 351.667969 330.664062 351.667969 C 331.414062 351.644531 332.148438 351.734375 332.871094 351.9375 C 333.59375 352.140625 334.269531 352.449219 334.894531 352.863281 C 335.523438 353.273438 336.074219 353.769531 336.546875 354.351562 C 337.023438 354.933594 337.398438 355.574219 337.675781 356.269531 C 341.847656 365.867188 345.417969 380.898438 348.382812 401.371094 C 349.5 408.671875 350.382812 414.152344 351.03125 417.820312 C 351.269531 418.964844 351.800781 421.082031 352.621094 424.109375 Z M 440.144531 424.109375 C 441.34375 428.171875 442.023438 432.320312 442.1875 436.554688 C 442.1875 439.117188 441.734375 441.007812 440.828125 442.207031 C 439.386719 444.074219 437.046875 445.007812 433.8125 445.007812 C 432.390625 444.988281 430.984375 444.835938 429.589844 444.550781 C 425.316406 443.832031 421.925781 438.675781 419.410156 429.089844 C 417.898438 423.457031 416.238281 413.730469 414.429688 399.914062 C 413.175781 390.464844 412.195312 384.429688 411.488281 381.816406 C 403.941406 387.324219 398.632812 393.5 395.574219 400.335938 C 393.050781 405.960938 391.742188 412.976562 391.648438 421.386719 C 391.597656 425.003906 390.222656 429.121094 387.5 433.757812 C 384.386719 439.089844 381.046875 441.75 377.472656 441.742188 C 374.402344 441.742188 371.664062 439.605469 369.25 435.335938 C 367.808594 432.71875 367.089844 428.398438 367.089844 422.367188 C 367.183594 415.4375 367.765625 408.546875 368.828125 401.695312 C 369.640625 396.773438 370.195312 391.820312 370.492188 386.839844 C 370.535156 381.558594 371.917969 377.6875 374.640625 375.222656 C 375.621094 374.304688 376.734375 373.609375 377.988281 373.140625 C 379.246094 372.667969 380.542969 372.453125 381.882812 372.5 C 383.15625 372.515625 384.414062 372.664062 385.652344 372.953125 C 388.917969 373.675781 390.675781 374.804688 390.925781 376.347656 C 393.332031 373.589844 395.496094 370.648438 397.410156 367.53125 C 399.234375 364.613281 401.234375 361.824219 403.40625 359.15625 C 405.070312 357.460938 406.933594 356.019531 408.992188 354.832031 C 412.460938 352.671875 415.53125 351.667969 418.1875 351.667969 C 418.9375 351.644531 419.675781 351.734375 420.398438 351.9375 C 421.121094 352.140625 421.792969 352.449219 422.421875 352.863281 C 423.050781 353.273438 423.601562 353.769531 424.074219 354.351562 C 424.546875 354.933594 424.925781 355.574219 425.203125 356.269531 C 429.386719 365.867188 432.960938 380.898438 435.921875 401.371094 C 437.023438 408.671875 437.902344 414.152344 438.558594 417.820312 C 438.761719 418.964844 439.292969 421.082031 440.144531 424.109375 Z M 611.449219 365.488281 C 610.222656 364.488281 608.871094 363.714844 607.390625 363.160156 C 605.910156 362.605469 604.382812 362.300781 602.804688 362.246094 L 602.652344 362.246094 C 594.726562 362.246094 586.507812 366.929688 577.992188 376.292969 C 570.550781 384.546875 565.800781 392.472656 563.742188 400.066406 C 562.933594 387.539062 559.765625 379.566406 554.230469 376.152344 C 553.179688 375.460938 552.023438 375.101562 550.761719 375.070312 C 549.636719 375.085938 548.605469 375.410156 547.671875 376.042969 C 545.554688 377.558594 544.019531 380.347656 543.070312 384.417969 C 543.070312 387.910156 543.222656 391.441406 543.5 394.996094 C 541.644531 395.074219 538.941406 396.414062 535.375 399.050781 C 533.308594 400.621094 528.332031 406 520.441406 415.195312 C 514.550781 422.128906 508.664062 426.253906 502.785156 427.566406 C 501.445312 427.863281 500.085938 428.011719 498.710938 428.019531 C 494.136719 428.019531 490.089844 426.105469 486.566406 422.28125 C 484.914062 420.476562 484.027344 419.039062 483.929688 417.960938 L 483.929688 417.808594 C 483.953125 417.320312 484.109375 416.882812 484.398438 416.488281 C 484.6875 416.097656 485.0625 415.816406 485.519531 415.648438 C 485.972656 415.453125 487.324219 414.945312 489.59375 414.132812 C 491.292969 413.585938 492.898438 412.832031 494.410156 411.875 C 501.816406 407.050781 505.515625 400.6875 505.507812 392.792969 C 505.476562 389.851562 505.046875 386.972656 504.222656 384.148438 C 500.953125 377.363281 496.992188 372.257812 492.335938 368.835938 C 490.457031 367.382812 488.394531 366.265625 486.144531 365.488281 C 483.898438 364.714844 481.585938 364.320312 479.207031 364.308594 C 477.453125 364.316406 475.71875 364.519531 474.011719 364.914062 C 461.085938 367.796875 453.945312 373.707031 452.582031 382.648438 C 451.882812 387.195312 451.523438 391.769531 451.503906 396.371094 C 451.503906 406.28125 453.613281 414.078125 457.835938 419.753906 C 470.246094 436.445312 483.820312 444.792969 498.5625 444.800781 C 501.589844 444.792969 504.582031 444.464844 507.539062 443.816406 C 515.890625 440.9375 524.113281 434.949219 532.210938 425.859375 C 538.347656 418.941406 542.542969 412.261719 544.796875 405.8125 C 545.273438 408.90625 545.878906 412.015625 546.539062 415.148438 C 549.417969 428.375 553.382812 437.300781 558.425781 441.925781 C 560.492188 443.800781 562.375 444.734375 564.074219 444.726562 C 568.050781 444.726562 571.09375 439.820312 573.207031 430.007812 C 574.515625 423.648438 576.507812 417.511719 579.179688 411.597656 C 581.851562 405.679688 585.140625 400.128906 589.046875 394.945312 C 592.488281 390.402344 596.398438 386.304688 600.777344 382.65625 C 605.15625 379.007812 609.890625 375.898438 614.980469 373.332031 C 615.175781 372.773438 615.277344 372.195312 615.285156 371.601562 C 615.339844 369.492188 614.0625 367.453125 611.449219 365.488281 Z M 475.382812 405.394531 C 471.960938 402.871094 470.25 398.242188 470.25 391.507812 C 470.109375 388.96875 470.683594 386.605469 471.980469 384.417969 C 472.484375 383.617188 473.152344 382.996094 473.988281 382.554688 C 474.824219 382.109375 475.714844 381.902344 476.65625 381.933594 C 477.019531 381.9375 477.378906 381.960938 477.738281 382.007812 C 479.191406 382.140625 480.539062 382.585938 481.785156 383.347656 C 483.03125 384.105469 484.042969 385.101562 484.828125 386.332031 C 486.074219 388.285156 486.675781 390.421875 486.632812 392.738281 C 486.632812 393.246094 486.609375 393.75 486.554688 394.253906 C 486.453125 395.683594 486.117188 397.058594 485.546875 398.378906 C 484.980469 399.699219 484.210938 400.886719 483.238281 401.945312 C 482.246094 403.066406 481.0625 403.929688 479.6875 404.53125 C 478.316406 405.132812 476.882812 405.421875 475.382812 405.394531 Z M 475.382812 405.394531 " fill-opacity="1" fill-rule="nonzero"/></svg>