<svg xmlns="http://www.w3.org/2000/svg" xmlns:xlink="http://www.w3.org/1999/xlink" width="1000" zoomAndPan="magnify" viewBox="0 0 750 749.999995" height="1000" preserveAspectRatio="xMidYMid meet" version="1.0"><defs><clipPath id="c9ffcf70af"><path d="M 32 245.222656 L 718 245.222656 L 718 504.722656 L 32 504.722656 Z M 32 245.222656 " clip-rule="nonzero"/></clipPath></defs><g clip-path="url(#c9ffcf70af)"><path fill="#ff4f83" d="M 696.4375 330.21875 L 696.242188 330.066406 C 693.726562 328.140625 691.070312 326.429688 688.277344 324.929688 C 685.480469 323.429688 682.585938 322.164062 679.589844 321.132812 C 676.589844 320.097656 673.53125 319.3125 670.40625 318.769531 C 667.28125 318.230469 664.136719 317.941406 660.964844 317.90625 L 660.773438 317.90625 C 643.46875 317.90625 626.976562 324.390625 611.578125 337.238281 C 606.203125 335.273438 600.65625 334.289062 594.933594 334.277344 C 590.277344 334.285156 585.714844 334.957031 581.253906 336.296875 C 576.792969 337.632812 572.613281 339.578125 568.71875 342.132812 L 567.964844 342.613281 L 567.222656 343.132812 C 564.730469 344.925781 562.417969 346.929688 560.285156 349.140625 C 555.886719 343.628906 550.859375 338.773438 545.203125 334.5625 C 542.269531 332.351562 539.175781 330.386719 535.921875 328.671875 C 532.671875 326.957031 529.300781 325.515625 525.816406 324.34375 C 522.332031 323.171875 518.777344 322.285156 515.152344 321.6875 C 511.523438 321.085938 507.871094 320.78125 504.195312 320.769531 C 498.933594 320.777344 493.738281 321.363281 488.605469 322.527344 C 482.144531 323.945312 475.882812 325.980469 469.824219 328.640625 C 468.71875 326.78125 467.496094 325.003906 466.160156 323.304688 C 464.824219 321.605469 463.382812 320 461.835938 318.488281 C 460.285156 316.976562 458.648438 315.574219 456.917969 314.277344 C 455.1875 312.984375 453.378906 311.804688 451.492188 310.746094 C 449.605469 309.6875 447.660156 308.753906 445.652344 307.949219 C 443.648438 307.148438 441.59375 306.476562 439.5 305.941406 C 437.40625 305.40625 435.285156 305.007812 433.136719 304.75 C 430.992188 304.492188 428.835938 304.375 426.675781 304.398438 C 415.707031 304.398438 404.613281 307.757812 393.769531 314.382812 L 393.273438 314.683594 C 387.324219 318.277344 382.003906 322.636719 377.316406 327.761719 L 376.875 328.257812 C 376.082031 329.1875 375.273438 330.175781 374.4375 331.261719 C 370.117188 331.734375 365.910156 332.707031 361.820312 334.179688 L 361.535156 333.578125 C 360.539062 331.394531 359.394531 329.292969 358.097656 327.273438 C 356.796875 325.257812 355.363281 323.34375 353.789062 321.53125 C 352.214844 319.722656 350.519531 318.035156 348.699219 316.46875 C 346.882812 314.902344 344.960938 313.476562 342.9375 312.1875 C 340.914062 310.898438 338.808594 309.761719 336.617188 308.78125 C 334.429688 307.796875 332.183594 306.972656 329.875 306.316406 C 327.570312 305.65625 325.226562 305.164062 322.851562 304.84375 C 320.472656 304.523438 318.082031 304.375 315.683594 304.398438 C 304.714844 304.398438 293.625 307.757812 282.777344 314.382812 L 282.285156 314.683594 C 278.804688 316.851562 275.496094 319.257812 272.359375 321.894531 C 272.039062 318.488281 271.363281 315.148438 270.339844 311.882812 C 269.3125 308.617188 267.957031 305.496094 266.269531 302.515625 C 264.585938 299.535156 262.605469 296.765625 260.335938 294.203125 C 258.0625 291.640625 255.550781 289.347656 252.792969 287.316406 C 250.453125 285.59375 247.996094 284.0625 245.414062 282.726562 C 242.835938 281.386719 240.167969 280.261719 237.414062 279.339844 C 234.65625 278.421875 231.847656 277.722656 228.980469 277.242188 C 226.117188 276.765625 223.230469 276.511719 220.324219 276.484375 C 218.953125 276.417969 217.582031 276.375 216.308594 276.375 C 209.6875 276.371094 203.253906 277.457031 197.003906 279.636719 C 196.167969 277.511719 195.234375 275.414062 194.179688 273.34375 L 193.933594 272.863281 C 182.070312 250.339844 163.097656 246.308594 155.515625 245.621094 C 153.582031 245.457031 151.621094 245.359375 149.699219 245.359375 C 145.980469 245.320312 142.296875 245.65625 138.644531 246.367188 C 134.992188 247.078125 131.453125 248.148438 128.019531 249.582031 C 124.585938 251.015625 121.335938 252.78125 118.261719 254.878906 C 115.191406 256.972656 112.359375 259.359375 109.773438 262.035156 C 94.390625 278.007812 92.621094 299.902344 92.621094 314.984375 C 92.621094 317.726562 92.703125 320.6875 92.871094 323.609375 L 92.871094 324.746094 C 92.871094 325.914062 92.871094 327.613281 92.871094 330.011719 C 92.871094 333.988281 92.871094 339.199219 92.691406 345.476562 C 92.59375 349.277344 92.539062 352.910156 92.511719 356.308594 C 90.488281 357.300781 88.527344 358.40625 86.628906 359.628906 L 85.890625 360.109375 C 50.324219 384.390625 32.226562 413.320312 32.226562 446.101562 C 32.226562 450.738281 32.597656 455.34375 33.335938 459.921875 C 35.613281 482.367188 53.230469 504.714844 88.921875 504.714844 C 100.402344 504.597656 111.667969 502.96875 122.71875 499.835938 C 129.890625 497.925781 136.824219 495.367188 143.515625 492.15625 C 152.128906 498.863281 162.710938 503.839844 175.546875 503.839844 C 182.03125 503.796875 188.28125 502.554688 194.289062 500.109375 C 197.449219 501.648438 200.742188 502.808594 204.167969 503.585938 C 207.597656 504.363281 211.066406 504.738281 214.582031 504.714844 C 223.300781 504.714844 232.171875 502.441406 241.742188 497.738281 C 242.605469 497.3125 243.429688 496.875 244.25 496.433594 C 250.542969 499.15625 257.113281 500.527344 263.96875 500.546875 C 266.859375 500.542969 269.730469 500.289062 272.578125 499.796875 C 275.429688 499.300781 278.214844 498.570312 280.941406 497.601562 C 283.664062 496.632812 286.289062 495.445312 288.8125 494.03125 C 291.335938 492.617188 293.71875 491 295.96875 489.183594 C 299.554688 492.882812 303.617188 495.945312 308.160156 498.375 C 312.707031 500.800781 317.511719 502.476562 322.582031 503.398438 C 326.832031 504.21875 331.125 504.640625 335.457031 504.660156 C 339.914062 504.710938 344.308594 504.210938 348.644531 503.167969 C 352.980469 502.125 357.121094 500.566406 361.066406 498.492188 C 365.609375 499.835938 370.246094 500.523438 374.984375 500.546875 C 377.878906 500.539062 380.75 500.289062 383.597656 499.796875 C 386.449219 499.300781 389.238281 498.570312 391.964844 497.601562 C 394.6875 496.632812 397.316406 495.441406 399.839844 494.03125 C 402.363281 492.617188 404.75 491 407 489.183594 C 410.578125 492.882812 414.640625 495.949219 419.183594 498.378906 C 423.726562 500.804688 428.53125 502.480469 433.597656 503.398438 C 437.851562 504.21875 442.140625 504.640625 446.472656 504.660156 C 460.265625 504.660156 472.523438 500.054688 481.914062 491.539062 C 485.429688 493.660156 489.066406 495.535156 492.832031 497.167969 C 496.601562 498.796875 500.457031 500.164062 504.410156 501.273438 C 508.359375 502.382812 512.367188 503.21875 516.433594 503.785156 C 520.496094 504.355469 524.578125 504.644531 528.683594 504.660156 C 535.453125 504.652344 542.140625 503.933594 548.757812 502.496094 L 551.210938 501.960938 L 553.570312 501.136719 C 561.652344 498.273438 569.238281 494.429688 576.328125 489.605469 L 577.261719 490.484375 C 590.148438 502.125 603.1875 504.566406 611.851562 504.566406 C 624.070312 504.566406 653.535156 499.601562 663.421875 453.710938 C 664.449219 448.546875 666.035156 443.558594 668.179688 438.746094 C 670.324219 433.9375 672.972656 429.421875 676.128906 425.207031 C 678.636719 421.894531 681.484375 418.90625 684.679688 416.25 C 687.871094 413.59375 691.324219 411.332031 695.039062 409.464844 L 709.996094 401.84375 L 715.289062 385.910156 C 716.929688 381.019531 717.753906 375.992188 717.757812 370.828125 C 717.769531 361.671875 715.027344 344.078125 696.4375 330.21875 Z M 696.4375 330.21875 " fill-opacity="1" fill-rule="nonzero"/></g><path fill="#ffffff" d="M 164.726562 392.066406 C 162.898438 384.417969 161.984375 373.15625 161.984375 358.285156 C 161.984375 355.996094 161.984375 353.59375 162.09375 351.113281 C 162.09375 346.644531 162.191406 343.324219 162.191406 341.160156 L 162.191406 335.566406 C 162.191406 319.230469 161.679688 307.714844 160.65625 301.011719 C 160.179688 297.839844 159.207031 294.828125 157.734375 291.976562 C 155.90625 288.46875 153.933594 286.617188 151.8125 286.425781 C 151.097656 286.355469 150.441406 286.328125 149.699219 286.328125 C 147.75 286.238281 145.863281 286.554688 144.042969 287.269531 C 142.226562 287.988281 140.632812 289.042969 139.265625 290.441406 C 135.445312 294.398438 133.53125 302.597656 133.523438 315.039062 C 133.523438 317.015625 133.589844 319.152344 133.714844 321.265625 L 133.808594 322.222656 C 133.808594 324.199219 133.90625 326.816406 133.90625 330.066406 C 133.90625 334.398438 133.84375 339.855469 133.714844 346.4375 C 133.589844 351.660156 133.523438 356.390625 133.523438 360.601562 C 133.523438 368.945312 133.746094 375.230469 134.195312 379.453125 C 134.195312 382.121094 128.675781 385.664062 117.644531 390.078125 C 114.664062 391.144531 111.785156 392.429688 109.007812 393.945312 C 85.085938 410.214844 73.125 427.582031 73.125 446.046875 C 73.128906 449.007812 73.414062 451.945312 73.988281 454.847656 C 73.988281 460.78125 78.960938 463.753906 88.90625 463.761719 C 96.753906 463.644531 104.445312 462.492188 111.980469 460.304688 C 129.972656 455.398438 142.058594 446.308594 148.246094 433.035156 C 149.207031 434.316406 150.835938 436.769531 153.128906 440.398438 C 162.507812 455.335938 169.976562 462.800781 175.53125 462.800781 C 180.101562 462.800781 184.085938 459.144531 187.488281 451.832031 C 188 450.675781 188.257812 449.464844 188.253906 448.199219 C 188.253906 444.050781 185.640625 438.976562 180.414062 432.980469 C 172.761719 418.191406 167.535156 404.554688 164.726562 392.066406 Z M 123.101562 428.882812 C 117.417969 435.070312 111.765625 438.164062 106.15625 438.164062 L 103.523438 437.875 C 102.523438 436.6875 102.015625 435.316406 102 433.761719 C 102.003906 433.109375 102.097656 432.46875 102.289062 431.84375 C 103.367188 428.011719 107.382812 423.898438 114.339844 419.503906 C 120.027344 415.824219 126.058594 412.855469 132.4375 410.589844 C 131.632812 416.789062 128.523438 422.886719 123.101562 428.882812 Z M 225.933594 366.851562 C 228.941406 384.46875 230.375 402.210938 230.238281 420.078125 C 230.238281 422.367188 230.238281 424.726562 230.140625 427.152344 L 229.566406 455.945312 C 229.566406 457.414062 227.621094 459.113281 223.726562 461.019531 C 220.894531 462.59375 217.863281 463.507812 214.636719 463.761719 C 213.570312 463.824219 212.613281 463.535156 211.757812 462.898438 C 206.5625 458.636719 203.519531 451.9375 202.625 442.796875 C 202.417969 440.695312 202.320312 438.589844 202.335938 436.476562 C 202.335938 431.25 202.722656 424.421875 203.488281 415.992188 C 203.800781 412.546875 204.023438 409.996094 204.160156 408.34375 C 204.597656 402.089844 204.824219 395.613281 204.832031 388.914062 C 204.832031 386.679688 204.832031 384.417969 204.734375 382.058594 C 204.734375 380.6875 204.503906 379 204.257812 377.082031 C 204.191406 376.511719 204.160156 375.941406 204.160156 375.367188 C 204.21875 373.671875 204.53125 372.027344 205.105469 370.429688 C 205.675781 368.835938 206.476562 367.363281 207.507812 366.015625 C 209.734375 362.828125 213.660156 361.230469 219.285156 361.230469 C 223.679688 361.222656 225.882812 363.097656 225.890625 366.851562 Z M 231.664062 326.667969 C 231.644531 327.527344 231.527344 328.378906 231.320312 329.214844 C 231.109375 330.050781 230.808594 330.855469 230.421875 331.625 C 230.03125 332.394531 229.5625 333.109375 229.015625 333.777344 C 228.464844 334.441406 227.847656 335.039062 227.167969 335.566406 C 225.582031 336.992188 223.792969 338.082031 221.792969 338.824219 C 219.792969 339.566406 217.726562 339.917969 215.59375 339.871094 C 214.675781 339.867188 213.761719 339.800781 212.851562 339.679688 C 208.574219 339.414062 205.375 338.234375 203.253906 336.140625 C 202.390625 335.398438 201.714844 334.507812 201.238281 333.472656 C 200.757812 332.433594 200.515625 331.347656 200.511719 330.203125 L 200.511719 329.917969 C 200.640625 326.40625 202.394531 323.34375 205.777344 320.730469 C 207.289062 319.585938 208.945312 318.71875 210.75 318.128906 C 212.550781 317.539062 214.398438 317.261719 216.292969 317.289062 C 217.0625 317.289062 217.832031 317.289062 218.597656 317.382812 C 220.316406 317.285156 222.003906 317.464844 223.664062 317.921875 C 225.324219 318.382812 226.867188 319.09375 228.292969 320.058594 C 228.820312 320.429688 229.296875 320.859375 229.71875 321.347656 C 230.140625 321.835938 230.496094 322.367188 230.789062 322.945312 C 231.078125 323.519531 231.292969 324.125 231.4375 324.753906 C 231.578125 325.382812 231.640625 326.019531 231.625 326.667969 Z M 343.464844 437.3125 C 344.980469 442.472656 345.84375 447.734375 346.054688 453.109375 C 346.054688 456.359375 345.476562 458.757812 344.328125 460.277344 C 342.5 462.648438 339.53125 463.832031 335.429688 463.832031 C 333.625 463.808594 331.835938 463.617188 330.066406 463.253906 C 324.636719 462.339844 320.332031 455.800781 317.152344 443.632812 C 315.230469 436.484375 313.125 424.144531 310.832031 406.613281 C 309.242188 394.621094 307.996094 386.96875 307.101562 383.648438 C 297.523438 390.640625 290.804688 398.476562 286.945312 407.148438 C 283.746094 414.289062 282.089844 423.191406 281.96875 433.859375 C 281.898438 438.429688 280.140625 443.660156 276.703125 449.558594 C 272.738281 456.320312 268.496094 459.699219 263.980469 459.691406 C 260.085938 459.691406 256.609375 456.980469 253.546875 451.558594 C 251.71875 448.242188 250.804688 442.757812 250.804688 435.105469 C 250.960938 426.3125 251.726562 417.574219 253.109375 408.890625 C 254.136719 402.644531 254.835938 396.359375 255.207031 390.039062 C 255.277344 383.339844 257.035156 378.425781 260.472656 375.300781 C 261.710938 374.136719 263.128906 373.253906 264.71875 372.65625 C 266.3125 372.058594 267.957031 371.785156 269.65625 371.84375 C 271.273438 371.859375 272.867188 372.050781 274.441406 372.417969 C 278.601562 373.332031 280.835938 374.769531 281.148438 376.726562 C 284.207031 373.230469 286.949219 369.5 289.375 365.535156 C 291.640625 361.832031 294.132812 358.285156 296.847656 354.898438 C 298.957031 352.75 301.316406 350.921875 303.921875 349.414062 C 308.320312 346.671875 312.214844 345.394531 315.601562 345.394531 C 316.554688 345.367188 317.488281 345.480469 318.40625 345.738281 C 319.320312 346 320.175781 346.390625 320.972656 346.910156 C 321.769531 347.433594 322.46875 348.0625 323.070312 348.800781 C 323.671875 349.539062 324.148438 350.351562 324.5 351.238281 C 329.792969 363.410156 334.324219 382.488281 338.089844 408.464844 C 339.503906 417.726562 340.625 424.679688 341.449219 429.332031 C 341.75 430.785156 342.421875 433.472656 343.464844 437.3125 Z M 454.519531 437.3125 C 456.039062 442.472656 456.902344 447.734375 457.113281 453.109375 C 457.113281 456.359375 456.535156 458.757812 455.386719 460.277344 C 453.558594 462.648438 450.589844 463.832031 446.488281 463.832031 C 444.679688 463.808594 442.894531 463.617188 441.125 463.253906 C 435.707031 462.339844 431.398438 455.800781 428.210938 443.632812 C 426.289062 436.484375 424.183594 424.144531 421.890625 406.613281 C 420.296875 394.621094 419.054688 386.96875 418.160156 383.648438 C 408.582031 390.640625 401.847656 398.476562 397.964844 407.148438 C 394.765625 414.289062 393.105469 423.191406 392.988281 433.859375 C 392.917969 438.453125 391.175781 443.675781 387.722656 449.558594 C 383.773438 456.320312 379.53125 459.699219 374.996094 459.691406 C 371.105469 459.691406 367.625 456.980469 364.5625 451.558594 C 362.734375 448.242188 361.820312 442.757812 361.820312 435.105469 C 361.945312 426.3125 362.679688 417.566406 364.027344 408.878906 C 365.058594 402.628906 365.761719 396.34375 366.140625 390.023438 C 366.195312 383.324219 367.949219 378.410156 371.40625 375.285156 C 372.644531 374.121094 374.0625 373.238281 375.652344 372.640625 C 377.246094 372.042969 378.890625 371.773438 380.59375 371.832031 C 382.207031 371.847656 383.804688 372.039062 385.378906 372.40625 C 389.519531 373.320312 391.746094 374.753906 392.066406 376.710938 C 395.125 373.210938 397.867188 369.484375 400.292969 365.523438 C 402.613281 361.824219 405.148438 358.28125 407.902344 354.898438 C 410.015625 352.746094 412.378906 350.917969 414.992188 349.414062 C 419.394531 346.671875 423.289062 345.394531 426.660156 345.394531 C 427.613281 345.367188 428.546875 345.480469 429.464844 345.738281 C 430.378906 346 431.234375 346.390625 432.03125 346.910156 C 432.828125 347.433594 433.527344 348.0625 434.128906 348.800781 C 434.730469 349.539062 435.207031 350.351562 435.558594 351.238281 C 440.871094 363.410156 445.402344 382.488281 449.160156 408.464844 C 450.558594 417.726562 451.671875 424.679688 452.503906 429.332031 C 452.765625 430.785156 453.4375 433.472656 454.519531 437.3125 Z M 671.878906 362.933594 C 670.324219 361.667969 668.609375 360.679688 666.730469 359.976562 C 664.855469 359.273438 662.914062 358.886719 660.910156 358.820312 L 660.71875 358.820312 C 650.664062 358.820312 640.234375 364.761719 629.429688 376.644531 C 619.988281 387.117188 613.960938 397.171875 611.347656 406.808594 C 610.320312 390.910156 606.300781 380.796875 599.28125 376.464844 C 597.945312 375.589844 596.476562 375.132812 594.878906 375.09375 C 593.449219 375.113281 592.140625 375.523438 590.957031 376.328125 C 588.269531 378.246094 586.324219 381.789062 585.117188 386.953125 C 585.117188 391.382812 585.308594 395.867188 585.664062 400.375 C 583.308594 400.472656 579.878906 402.171875 575.355469 405.519531 C 572.730469 407.511719 566.414062 414.339844 556.40625 426 C 548.929688 434.804688 541.460938 440.039062 534.003906 441.699219 C 532.300781 442.078125 530.578125 442.269531 528.832031 442.277344 C 523.03125 442.277344 517.894531 439.851562 513.421875 434.996094 C 511.324219 432.707031 510.199219 430.882812 510.078125 429.511719 L 510.078125 429.320312 C 510.109375 428.703125 510.304688 428.144531 510.671875 427.644531 C 511.039062 427.148438 511.511719 426.792969 512.09375 426.578125 C 512.667969 426.332031 514.382812 425.6875 517.261719 424.660156 C 519.421875 423.960938 521.460938 423.003906 523.378906 421.792969 C 532.773438 415.667969 537.46875 407.597656 537.457031 397.578125 C 537.414062 393.847656 536.871094 390.191406 535.828125 386.609375 C 531.675781 378 526.648438 371.523438 520.746094 367.183594 C 518.359375 365.335938 515.742188 363.917969 512.890625 362.933594 C 510.039062 361.953125 507.101562 361.453125 504.085938 361.4375 C 501.859375 361.445312 499.660156 361.703125 497.492188 362.207031 C 481.09375 365.863281 472.03125 373.359375 470.300781 384.703125 C 469.414062 390.476562 468.957031 396.28125 468.929688 402.117188 C 468.929688 414.695312 471.609375 424.585938 476.964844 431.789062 C 492.714844 452.964844 509.941406 463.5625 528.640625 463.570312 C 532.484375 463.558594 536.28125 463.144531 540.035156 462.320312 C 550.628906 458.664062 561.0625 451.070312 571.335938 439.535156 C 579.125 430.757812 584.449219 422.28125 587.3125 414.101562 C 587.914062 418.023438 588.683594 421.972656 589.519531 425.945312 C 593.175781 442.730469 598.203125 454.054688 604.601562 459.921875 C 607.222656 462.300781 609.613281 463.484375 611.769531 463.472656 C 616.816406 463.472656 620.679688 457.25 623.355469 444.800781 C 625.019531 436.730469 627.542969 428.945312 630.933594 421.4375 C 634.328125 413.929688 638.5 406.886719 643.457031 400.308594 C 647.824219 394.542969 652.785156 389.34375 658.34375 384.714844 C 663.898438 380.085938 669.90625 376.140625 676.363281 372.886719 C 676.609375 372.175781 676.738281 371.445312 676.746094 370.691406 C 676.820312 368.015625 675.199219 365.425781 671.878906 362.933594 Z M 499.230469 413.566406 C 494.890625 410.367188 492.71875 404.492188 492.71875 395.949219 C 492.632812 394.375 492.773438 392.820312 493.148438 391.289062 C 493.523438 389.753906 494.109375 388.3125 494.914062 386.953125 C 495.226562 386.453125 495.601562 386.003906 496.03125 385.601562 C 496.464844 385.203125 496.941406 384.863281 497.460938 384.585938 C 497.984375 384.308594 498.53125 384.105469 499.105469 383.972656 C 499.679688 383.839844 500.261719 383.78125 500.851562 383.800781 C 501.308594 383.804688 501.765625 383.835938 502.222656 383.894531 C 503.128906 383.980469 504.019531 384.164062 504.886719 384.449219 C 505.753906 384.734375 506.574219 385.117188 507.355469 385.59375 C 508.136719 386.066406 508.851562 386.625 509.503906 387.265625 C 510.15625 387.90625 510.726562 388.609375 511.214844 389.378906 C 512.800781 391.859375 513.5625 394.570312 513.503906 397.511719 C 513.507812 398.152344 513.476562 398.792969 513.410156 399.429688 C 513.277344 401.246094 512.851562 402.992188 512.128906 404.667969 C 511.40625 406.339844 510.429688 407.847656 509.199219 409.191406 C 508.578125 409.894531 507.886719 410.523438 507.125 411.078125 C 506.367188 411.628906 505.554688 412.09375 504.695312 412.472656 C 503.835938 412.851562 502.945312 413.132812 502.023438 413.316406 C 501.101562 413.5 500.171875 413.582031 499.230469 413.566406 Z M 499.230469 413.566406 " fill-opacity="1" fill-rule="nonzero"/></svg>