<svg xmlns="http://www.w3.org/2000/svg" xmlns:xlink="http://www.w3.org/1999/xlink" width="1000" zoomAndPan="magnify" viewBox="0 0 750 749.999995" height="1000" preserveAspectRatio="xMidYMid meet" version="1.0"><defs><clipPath id="02de41394f"><path d="M 75 75 L 675 75 L 675 670.09375 L 75 670.09375 Z M 75 75 " clip-rule="nonzero"/></clipPath><clipPath id="7ece402b3c"><path d="M 150 75 L 600 75 C 641.421875 75 675 108.578125 675 150 L 675 595.09375 C 675 636.515625 641.421875 670.09375 600 670.09375 L 150 670.09375 C 108.578125 670.09375 75 636.515625 75 595.09375 L 75 150 C 75 108.578125 108.578125 75 150 75 Z M 150 75 " clip-rule="nonzero"/></clipPath><clipPath id="b8c1a1da36"><path d="M 165.667969 191.664062 L 592.417969 191.664062 L 592.417969 471 L 165.667969 471 Z M 165.667969 191.664062 " clip-rule="nonzero"/></clipPath><clipPath id="d1b8fbe682"><path d="M 165.667969 274 L 592.417969 274 L 592.417969 553.164062 L 165.667969 553.164062 Z M 165.667969 274 " clip-rule="nonzero"/></clipPath></defs><g clip-path="url(#02de41394f)"><g clip-path="url(#7ece402b3c)"><path fill="#f8d31d" d="M 75 75 L 674.742188 75 L 674.742188 670.09375 L 75 670.09375 Z M 75 75 " fill-opacity="1" fill-rule="nonzero"/></g></g><path fill="#fff589" d="M 168.382812 194.371094 L 589.777344 194.371094 L 589.777344 467.703125 L 168.382812 467.703125 Z M 168.382812 194.371094 " fill-opacity="1" fill-rule="nonzero"/><g clip-path="url(#b8c1a1da36)"><path fill="#3d3d3d" d="M 168.382812 191.667969 C 168.023438 191.667969 167.679688 191.734375 167.347656 191.871094 C 167.015625 192.007812 166.71875 192.203125 166.464844 192.457031 C 166.210938 192.710938 166.015625 193 165.875 193.332031 C 165.738281 193.664062 165.667969 194.011719 165.664062 194.371094 L 165.664062 467.707031 C 165.667969 468.066406 165.738281 468.410156 165.875 468.742188 C 166.015625 469.074219 166.210938 469.367188 166.464844 469.617188 C 166.71875 469.871094 167.015625 470.066406 167.347656 470.203125 C 167.679688 470.339844 168.023438 470.40625 168.382812 470.40625 L 589.777344 470.40625 C 590.136719 470.40625 590.480469 470.339844 590.816406 470.203125 C 591.148438 470.066406 591.441406 469.871094 591.695312 469.617188 C 591.949219 469.367188 592.148438 469.074219 592.285156 468.742188 C 592.425781 468.410156 592.496094 468.066406 592.496094 467.707031 L 592.496094 194.371094 C 592.496094 194.011719 592.425781 193.664062 592.285156 193.332031 C 592.148438 193.003906 591.949219 192.710938 591.695312 192.457031 C 591.441406 192.203125 591.148438 192.007812 590.816406 191.871094 C 590.480469 191.734375 590.136719 191.667969 589.777344 191.667969 Z M 171.105469 197.085938 L 587.074219 197.085938 L 587.074219 464.988281 L 171.105469 464.988281 Z M 171.105469 197.085938 " fill-opacity="1" fill-rule="nonzero"/></g><path fill="#ffffff" d="M 168.382812 277.269531 L 589.777344 277.269531 L 589.777344 550.597656 L 168.382812 550.597656 Z M 168.382812 277.269531 " fill-opacity="1" fill-rule="nonzero"/><g clip-path="url(#d1b8fbe682)"><path fill="#3d3d3d" d="M 168.382812 274.554688 C 168.023438 274.554688 167.675781 274.625 167.34375 274.761719 C 167.007812 274.898438 166.714844 275.09375 166.460938 275.351562 C 166.203125 275.605469 166.007812 275.898438 165.871094 276.234375 C 165.730469 276.566406 165.664062 276.914062 165.664062 277.273438 L 165.664062 550.59375 C 165.664062 550.953125 165.730469 551.300781 165.871094 551.636719 C 166.007812 551.96875 166.203125 552.261719 166.460938 552.519531 C 166.714844 552.773438 167.007812 552.96875 167.34375 553.105469 C 167.675781 553.246094 168.023438 553.3125 168.382812 553.3125 L 589.777344 553.3125 C 590.136719 553.3125 590.484375 553.246094 590.816406 553.105469 C 591.152344 552.96875 591.445312 552.773438 591.703125 552.515625 C 591.957031 552.261719 592.152344 551.96875 592.289062 551.632812 C 592.429688 551.300781 592.496094 550.953125 592.496094 550.59375 L 592.496094 277.273438 C 592.496094 276.914062 592.429688 276.566406 592.289062 276.234375 C 592.152344 275.898438 591.957031 275.605469 591.703125 275.351562 C 591.445312 275.09375 591.152344 274.898438 590.816406 274.761719 C 590.484375 274.625 590.136719 274.554688 589.777344 274.554688 Z M 171.105469 279.972656 L 587.074219 279.972656 L 587.074219 547.894531 L 171.105469 547.894531 Z M 171.105469 279.972656 " fill-opacity="1" fill-rule="nonzero"/></g></svg>