<svg xmlns="http://www.w3.org/2000/svg" xmlns:xlink="http://www.w3.org/1999/xlink" width="1000" zoomAndPan="magnify" viewBox="0 0 750 749.999995" height="1000" preserveAspectRatio="xMidYMid meet" version="1.0"><defs><clipPath id="83c21f47a7"><path d="M 155 75 L 624 75 L 624 675 L 155 675 Z M 155 75 " clip-rule="nonzero"/></clipPath></defs><path fill="#f7be26" d="M 196.726562 131.195312 C 196.726562 133.09375 195.1875 134.628906 193.289062 134.628906 L 184.261719 134.628906 C 182.363281 134.628906 180.828125 133.09375 180.828125 131.195312 L 180.828125 115.296875 C 180.828125 113.394531 182.363281 111.855469 184.261719 111.855469 L 193.289062 111.855469 C 195.1875 111.855469 196.726562 113.394531 196.726562 115.296875 Z M 196.726562 176.957031 C 196.726562 178.859375 195.1875 180.394531 193.289062 180.394531 L 184.261719 180.394531 C 182.363281 180.394531 180.828125 178.859375 180.828125 176.957031 L 180.828125 161.054688 C 180.828125 159.160156 182.363281 157.621094 184.261719 157.621094 L 193.289062 157.621094 C 195.1875 157.621094 196.726562 159.160156 196.726562 161.054688 Z M 196.726562 222.707031 C 196.726562 224.617188 195.1875 226.148438 193.289062 226.148438 L 184.261719 226.148438 C 182.363281 226.148438 180.828125 224.617188 180.828125 222.707031 L 180.828125 206.808594 C 180.828125 204.917969 182.363281 203.375 184.261719 203.375 L 193.289062 203.375 C 195.1875 203.375 196.726562 204.917969 196.726562 206.808594 Z M 196.726562 268.472656 C 196.726562 270.367188 195.1875 271.90625 193.289062 271.90625 L 184.261719 271.90625 C 182.363281 271.90625 180.828125 270.367188 180.828125 268.472656 L 180.828125 252.574219 C 180.828125 250.671875 182.363281 249.132812 184.261719 249.132812 L 193.289062 249.132812 C 195.1875 249.132812 196.726562 250.671875 196.726562 252.574219 Z M 196.726562 314.226562 C 196.726562 316.121094 195.1875 317.660156 193.289062 317.660156 L 184.261719 317.660156 C 182.363281 317.660156 180.828125 316.121094 180.828125 314.226562 L 180.828125 298.324219 C 180.828125 296.421875 182.363281 294.882812 184.261719 294.882812 L 193.289062 294.882812 C 195.1875 294.882812 196.726562 296.421875 196.726562 298.324219 Z M 196.726562 359.984375 C 196.726562 361.886719 195.1875 363.429688 193.289062 363.429688 L 184.261719 363.429688 C 182.363281 363.429688 180.828125 361.886719 180.828125 359.984375 L 180.828125 344.089844 C 180.828125 342.1875 182.363281 340.648438 184.261719 340.648438 L 193.289062 340.648438 C 195.1875 340.648438 196.726562 342.1875 196.726562 344.089844 Z M 196.726562 405.734375 C 196.726562 407.644531 195.1875 409.183594 193.289062 409.183594 L 184.261719 409.183594 C 182.363281 409.183594 180.828125 407.644531 180.828125 405.734375 L 180.828125 389.835938 C 180.828125 387.949219 182.363281 386.402344 184.261719 386.402344 L 193.289062 386.402344 C 195.1875 386.402344 196.726562 387.949219 196.726562 389.835938 Z M 196.726562 451.503906 C 196.726562 453.398438 195.1875 454.941406 193.289062 454.941406 L 184.261719 454.941406 C 182.363281 454.941406 180.828125 453.398438 180.828125 451.503906 L 180.828125 435.609375 C 180.828125 433.699219 182.363281 432.160156 184.261719 432.160156 L 193.289062 432.160156 C 195.1875 432.160156 196.726562 433.699219 196.726562 435.609375 Z M 196.726562 497.261719 C 196.726562 499.15625 195.1875 500.695312 193.289062 500.695312 L 184.261719 500.695312 C 182.363281 500.695312 180.828125 499.15625 180.828125 497.261719 L 180.828125 481.359375 C 180.828125 479.457031 182.363281 477.917969 184.261719 477.917969 L 193.289062 477.917969 C 195.1875 477.917969 196.726562 479.457031 196.726562 481.359375 Z M 196.726562 543.011719 C 196.726562 544.914062 195.1875 546.460938 193.289062 546.460938 L 184.261719 546.460938 C 182.363281 546.460938 180.828125 544.914062 180.828125 543.011719 L 180.828125 527.113281 C 180.828125 525.21875 182.363281 523.679688 184.261719 523.679688 L 193.289062 523.679688 C 195.1875 523.679688 196.726562 525.21875 196.726562 527.113281 Z M 196.726562 588.765625 C 196.726562 590.671875 195.1875 592.210938 193.289062 592.210938 L 184.261719 592.210938 C 182.363281 592.210938 180.828125 590.671875 180.828125 588.765625 L 180.828125 572.871094 C 180.828125 570.976562 182.363281 569.4375 184.261719 569.4375 L 193.289062 569.4375 C 195.1875 569.4375 196.726562 570.976562 196.726562 572.871094 Z M 196.726562 634.539062 C 196.726562 636.425781 195.1875 637.972656 193.289062 637.972656 L 184.261719 637.972656 C 182.363281 637.972656 180.828125 636.425781 180.828125 634.539062 L 180.828125 618.636719 C 180.828125 616.726562 182.363281 615.195312 184.261719 615.195312 L 193.289062 615.195312 C 195.1875 615.195312 196.726562 616.726562 196.726562 618.636719 Z M 159.757812 79.683594 L 159.757812 670.136719 L 619.648438 670.136719 L 619.648438 79.683594 L 159.757812 79.683594 " fill-opacity="1" fill-rule="nonzero"/><g clip-path="url(#83c21f47a7)"><path fill="#0e0d0c" d="M 196.726562 131.195312 L 192.253906 131.195312 L 193.289062 131.195312 L 192.554688 130.457031 C 192.371094 130.628906 192.246094 130.925781 192.253906 131.195312 L 193.289062 131.195312 L 192.554688 130.457031 L 193.289062 131.195312 L 193.289062 130.15625 C 193.015625 130.15625 192.726562 130.28125 192.554688 130.457031 L 193.289062 131.195312 L 193.289062 130.15625 L 184.261719 130.15625 L 184.261719 131.191406 L 184.996094 130.457031 C 184.820312 130.28125 184.53125 130.15625 184.261719 130.15625 L 184.261719 131.191406 L 184.996094 130.457031 L 184.253906 131.195312 L 185.300781 131.195312 C 185.300781 130.925781 185.175781 130.628906 184.996094 130.457031 L 184.253906 131.195312 L 185.300781 131.195312 L 185.300781 115.296875 L 184.273438 115.296875 L 184.996094 116.023438 C 185.183594 115.847656 185.300781 115.5625 185.300781 115.296875 L 184.273438 115.296875 L 184.996094 116.023438 L 184.261719 115.289062 L 184.261719 116.332031 C 184.53125 116.332031 184.828125 116.203125 184.996094 116.023438 L 184.261719 115.289062 L 184.261719 116.332031 L 193.289062 116.332031 L 193.289062 115.28125 L 192.554688 116.023438 C 192.722656 116.203125 193.015625 116.332031 193.289062 116.332031 L 193.289062 115.28125 L 192.554688 116.023438 L 193.273438 115.296875 L 192.253906 115.296875 C 192.246094 115.5625 192.371094 115.847656 192.554688 116.023438 L 193.273438 115.296875 L 192.253906 115.296875 L 192.253906 131.195312 L 201.203125 131.195312 L 201.203125 115.296875 C 201.203125 113.128906 200.308594 111.121094 198.886719 109.703125 C 197.46875 108.277344 195.460938 107.378906 193.289062 107.378906 L 184.261719 107.378906 C 182.085938 107.378906 180.078125 108.277344 178.667969 109.703125 C 177.238281 111.121094 176.34375 113.128906 176.351562 115.296875 L 176.351562 131.195312 C 176.34375 133.363281 177.238281 135.371094 178.667969 136.789062 C 180.085938 138.210938 182.085938 139.105469 184.261719 139.105469 L 193.289062 139.105469 C 195.460938 139.105469 197.460938 138.210938 198.882812 136.789062 C 200.308594 135.371094 201.203125 133.363281 201.203125 131.195312 Z M 196.726562 176.957031 L 192.253906 176.957031 L 193.273438 176.957031 L 192.554688 176.226562 C 192.371094 176.402344 192.246094 176.691406 192.253906 176.957031 L 193.273438 176.957031 L 192.554688 176.226562 L 193.289062 176.960938 L 193.289062 175.921875 C 193.015625 175.921875 192.722656 176.046875 192.554688 176.226562 L 193.289062 176.960938 L 193.289062 175.921875 L 184.261719 175.921875 L 184.261719 176.960938 L 184.996094 176.226562 C 184.828125 176.046875 184.53125 175.921875 184.261719 175.921875 L 184.261719 176.960938 L 184.996094 176.226562 L 184.273438 176.957031 L 185.300781 176.957031 C 185.300781 176.691406 185.183594 176.402344 184.996094 176.226562 L 184.273438 176.957031 L 185.300781 176.957031 L 185.300781 161.054688 L 184.261719 161.054688 L 184.996094 161.796875 C 185.175781 161.621094 185.300781 161.328125 185.300781 161.054688 L 184.261719 161.054688 L 184.996094 161.796875 L 184.261719 161.054688 L 184.261719 162.097656 C 184.53125 162.097656 184.820312 161.972656 184.996094 161.796875 L 184.261719 161.054688 L 184.261719 162.097656 L 193.289062 162.097656 L 193.289062 161.054688 L 192.554688 161.796875 C 192.726562 161.972656 193.015625 162.097656 193.289062 162.097656 L 193.289062 161.054688 L 192.554688 161.796875 L 193.289062 161.054688 L 192.253906 161.054688 C 192.246094 161.328125 192.371094 161.613281 192.554688 161.796875 L 193.289062 161.054688 L 192.253906 161.054688 L 192.253906 176.957031 L 201.203125 176.957031 L 201.203125 161.054688 C 201.203125 158.886719 200.308594 156.878906 198.882812 155.460938 C 197.460938 154.042969 195.460938 153.144531 193.289062 153.144531 L 184.261719 153.144531 C 182.085938 153.144531 180.085938 154.042969 178.667969 155.460938 C 177.238281 156.878906 176.34375 158.886719 176.351562 161.054688 L 176.351562 176.957031 C 176.34375 179.125 177.238281 181.128906 178.667969 182.550781 C 180.078125 183.976562 182.085938 184.871094 184.261719 184.871094 L 193.289062 184.871094 C 195.460938 184.871094 197.46875 183.976562 198.886719 182.550781 C 200.308594 181.128906 201.203125 179.125 201.203125 176.957031 Z M 196.726562 222.707031 L 192.253906 222.707031 L 193.273438 222.707031 L 192.554688 221.980469 C 192.371094 222.15625 192.246094 222.441406 192.253906 222.707031 L 193.273438 222.707031 L 192.554688 221.980469 L 193.289062 222.722656 L 193.289062 221.671875 C 193.015625 221.671875 192.722656 221.796875 192.554688 221.980469 L 193.289062 222.722656 L 193.289062 221.671875 L 184.261719 221.671875 L 184.261719 222.714844 L 184.996094 221.980469 C 184.828125 221.796875 184.53125 221.671875 184.261719 221.671875 L 184.261719 222.714844 L 184.996094 221.980469 L 184.273438 222.707031 L 185.300781 222.707031 C 185.300781 222.441406 185.183594 222.15625 184.996094 221.980469 L 184.273438 222.707031 L 185.300781 222.707031 L 185.300781 206.808594 L 184.261719 206.808594 L 184.996094 207.546875 C 185.175781 207.375 185.300781 207.085938 185.300781 206.808594 L 184.261719 206.808594 L 184.996094 207.546875 L 184.261719 206.8125 L 184.261719 207.847656 C 184.53125 207.855469 184.820312 207.730469 184.996094 207.546875 L 184.261719 206.8125 L 184.261719 207.847656 L 193.289062 207.847656 L 193.289062 206.808594 L 192.554688 207.546875 C 192.726562 207.730469 193.015625 207.855469 193.289062 207.847656 L 193.289062 206.808594 L 192.554688 207.546875 L 193.289062 206.808594 L 192.253906 206.808594 C 192.246094 207.085938 192.371094 207.375 192.554688 207.546875 L 193.289062 206.808594 L 192.253906 206.808594 L 192.253906 222.707031 L 201.203125 222.707031 L 201.203125 206.808594 C 201.203125 204.640625 200.308594 202.632812 198.882812 201.21875 C 197.460938 199.792969 195.460938 198.898438 193.289062 198.898438 L 184.261719 198.898438 C 182.085938 198.898438 180.085938 199.792969 178.667969 201.21875 C 177.238281 202.632812 176.34375 204.640625 176.351562 206.808594 L 176.351562 222.707031 C 176.34375 224.875 177.238281 226.882812 178.667969 228.300781 C 180.078125 229.734375 182.085938 230.628906 184.261719 230.625 L 193.289062 230.625 C 195.460938 230.628906 197.46875 229.726562 198.886719 228.300781 C 200.308594 226.882812 201.203125 224.875 201.203125 222.707031 Z M 196.726562 268.472656 L 192.253906 268.472656 L 193.292969 268.472656 L 192.554688 267.738281 C 192.371094 267.90625 192.246094 268.195312 192.253906 268.472656 L 193.292969 268.472656 L 192.554688 267.738281 L 193.289062 268.472656 L 193.289062 267.429688 C 193.015625 267.429688 192.726562 267.558594 192.554688 267.738281 L 193.289062 268.472656 L 193.289062 267.429688 L 184.261719 267.429688 L 184.261719 268.472656 L 184.996094 267.730469 C 184.820312 267.558594 184.53125 267.429688 184.261719 267.429688 L 184.261719 268.472656 L 184.996094 267.730469 L 184.253906 268.472656 L 185.300781 268.472656 C 185.300781 268.195312 185.175781 267.90625 184.996094 267.730469 L 184.253906 268.472656 L 185.300781 268.472656 L 185.300781 252.574219 L 184.273438 252.574219 L 185 253.300781 C 185.183594 253.125 185.300781 252.839844 185.300781 252.574219 L 184.273438 252.574219 L 185 253.300781 L 184.261719 252.558594 L 184.261719 253.601562 C 184.539062 253.609375 184.828125 253.480469 185 253.300781 L 184.261719 252.558594 L 184.261719 253.601562 L 193.289062 253.601562 L 193.289062 252.558594 L 192.554688 253.300781 C 192.722656 253.472656 193.015625 253.609375 193.289062 253.601562 L 193.289062 252.558594 L 192.554688 253.300781 L 193.273438 252.574219 L 192.253906 252.574219 C 192.246094 252.839844 192.371094 253.125 192.554688 253.300781 L 193.273438 252.574219 L 192.253906 252.574219 L 192.253906 268.472656 L 201.203125 268.472656 L 201.203125 252.574219 C 201.203125 250.40625 200.308594 248.398438 198.886719 246.980469 C 197.46875 245.550781 195.460938 244.648438 193.289062 244.65625 L 184.261719 244.65625 C 182.085938 244.648438 180.078125 245.550781 178.660156 246.980469 C 177.238281 248.398438 176.34375 250.40625 176.351562 252.574219 L 176.351562 268.472656 C 176.34375 270.640625 177.238281 272.648438 178.667969 274.066406 C 180.085938 275.488281 182.085938 276.382812 184.261719 276.382812 L 193.289062 276.382812 C 195.460938 276.382812 197.460938 275.488281 198.882812 274.066406 C 200.308594 272.648438 201.203125 270.640625 201.203125 268.472656 Z M 196.726562 314.226562 L 192.253906 314.226562 L 193.289062 314.226562 L 192.554688 313.492188 C 192.371094 313.664062 192.246094 313.945312 192.253906 314.226562 L 193.289062 314.226562 L 192.554688 313.492188 L 193.289062 314.226562 L 193.289062 313.183594 C 193.015625 313.183594 192.726562 313.308594 192.554688 313.492188 L 193.289062 314.226562 L 193.289062 313.183594 L 184.261719 313.183594 L 184.261719 314.226562 L 184.996094 313.492188 C 184.828125 313.308594 184.539062 313.183594 184.261719 313.183594 L 184.261719 314.226562 L 184.996094 313.492188 L 184.253906 314.226562 L 185.300781 314.226562 C 185.300781 313.945312 185.175781 313.664062 184.996094 313.492188 L 184.253906 314.226562 L 185.300781 314.226562 L 185.300781 298.324219 L 184.265625 298.324219 L 184.996094 299.058594 C 185.183594 298.882812 185.300781 298.589844 185.300781 298.324219 L 184.265625 298.324219 L 184.996094 299.058594 L 184.261719 298.316406 L 184.261719 299.359375 C 184.53125 299.367188 184.820312 299.242188 184.996094 299.058594 L 184.261719 298.316406 L 184.261719 299.359375 L 193.289062 299.359375 L 193.289062 298.316406 L 192.554688 299.058594 C 192.726562 299.242188 193.015625 299.367188 193.289062 299.359375 L 193.289062 298.316406 L 192.554688 299.058594 L 193.28125 298.324219 L 192.253906 298.324219 C 192.246094 298.589844 192.371094 298.882812 192.554688 299.058594 L 193.28125 298.324219 L 192.253906 298.324219 L 192.253906 314.226562 L 201.203125 314.226562 L 201.203125 298.324219 C 201.203125 296.15625 200.308594 294.148438 198.882812 292.730469 C 197.460938 291.304688 195.460938 290.410156 193.289062 290.410156 L 184.261719 290.410156 C 182.09375 290.410156 180.085938 291.304688 178.667969 292.730469 C 177.238281 294.148438 176.34375 296.15625 176.351562 298.324219 L 176.351562 314.226562 C 176.34375 316.398438 177.238281 318.398438 178.667969 319.820312 C 180.078125 321.238281 182.085938 322.140625 184.261719 322.132812 L 193.289062 322.132812 C 195.460938 322.140625 197.46875 321.238281 198.882812 319.820312 C 200.308594 318.398438 201.203125 316.398438 201.203125 314.226562 Z M 196.726562 359.984375 L 192.253906 359.984375 L 193.273438 359.984375 L 192.554688 359.257812 C 192.371094 359.433594 192.246094 359.71875 192.253906 359.984375 L 193.273438 359.984375 L 192.554688 359.257812 L 193.289062 360 L 193.289062 358.957031 C 193.015625 358.949219 192.722656 359.082031 192.554688 359.257812 L 193.289062 360 L 193.289062 358.957031 L 184.261719 358.957031 L 184.261719 360 L 185 359.257812 C 184.828125 359.074219 184.539062 358.949219 184.261719 358.957031 L 184.261719 360 L 185 359.257812 L 184.273438 359.984375 L 185.300781 359.984375 C 185.300781 359.71875 185.183594 359.433594 185 359.257812 L 184.273438 359.984375 L 185.300781 359.984375 L 185.300781 344.089844 L 184.261719 344.089844 L 184.996094 344.816406 C 185.175781 344.644531 185.300781 344.355469 185.300781 344.089844 L 184.261719 344.089844 L 184.996094 344.816406 L 184.261719 344.082031 L 184.261719 345.125 C 184.53125 345.125 184.820312 345 184.996094 344.816406 L 184.261719 344.082031 L 184.261719 345.125 L 193.289062 345.125 L 193.289062 344.082031 L 192.554688 344.816406 C 192.726562 345 193.015625 345.125 193.289062 345.125 L 193.289062 344.082031 L 192.554688 344.816406 L 193.289062 344.089844 L 192.253906 344.089844 C 192.246094 344.355469 192.371094 344.644531 192.554688 344.816406 L 193.289062 344.089844 L 192.253906 344.089844 L 192.253906 359.984375 L 201.203125 359.984375 L 201.203125 344.089844 C 201.203125 341.914062 200.308594 339.910156 198.882812 338.496094 C 197.46875 337.070312 195.460938 336.175781 193.289062 336.175781 L 184.261719 336.175781 C 182.085938 336.175781 180.085938 337.070312 178.667969 338.488281 C 177.238281 339.910156 176.34375 341.914062 176.351562 344.089844 L 176.351562 359.984375 C 176.34375 362.152344 177.238281 364.160156 178.660156 365.578125 C 180.078125 367.003906 182.085938 367.90625 184.261719 367.898438 L 193.289062 367.898438 C 195.460938 367.90625 197.46875 367.003906 198.886719 365.578125 C 200.308594 364.160156 201.203125 362.152344 201.203125 359.984375 Z M 196.726562 405.734375 L 192.253906 405.734375 L 193.273438 405.734375 L 192.554688 405.015625 C 192.371094 405.191406 192.246094 405.46875 192.253906 405.734375 L 193.273438 405.734375 L 192.554688 405.015625 L 193.289062 405.75 L 193.289062 404.707031 C 193.015625 404.707031 192.722656 404.835938 192.554688 405.015625 L 193.289062 405.75 L 193.289062 404.707031 L 184.261719 404.707031 L 184.261719 405.75 L 185 405.015625 C 184.828125 404.835938 184.539062 404.707031 184.261719 404.707031 L 184.261719 405.75 L 185 405.015625 L 184.273438 405.734375 L 185.300781 405.734375 C 185.300781 405.46875 185.183594 405.191406 185 405.015625 L 184.273438 405.734375 L 185.300781 405.734375 L 185.300781 389.835938 L 184.261719 389.835938 L 184.996094 390.578125 C 185.175781 390.402344 185.300781 390.113281 185.300781 389.835938 L 184.261719 389.835938 L 184.996094 390.578125 L 184.261719 389.84375 L 184.261719 390.878906 C 184.53125 390.882812 184.820312 390.757812 184.996094 390.578125 L 184.261719 389.84375 L 184.261719 390.878906 L 193.289062 390.878906 L 193.289062 389.835938 L 192.554688 390.578125 C 192.726562 390.757812 193.015625 390.882812 193.289062 390.878906 L 193.289062 389.835938 L 192.554688 390.578125 L 193.289062 389.835938 L 192.253906 389.835938 C 192.246094 390.113281 192.371094 390.402344 192.554688 390.578125 L 193.289062 389.835938 L 192.253906 389.835938 L 192.253906 405.734375 L 201.203125 405.734375 L 201.203125 389.835938 C 201.203125 387.667969 200.308594 385.660156 198.882812 384.25 C 197.460938 382.820312 195.460938 381.925781 193.289062 381.925781 L 184.261719 381.925781 C 182.085938 381.925781 180.085938 382.820312 178.667969 384.25 C 177.238281 385.660156 176.34375 387.667969 176.351562 389.835938 L 176.351562 405.734375 C 176.34375 407.910156 177.238281 409.917969 178.660156 411.335938 C 180.078125 412.761719 182.085938 413.660156 184.261719 413.660156 L 193.289062 413.660156 C 195.460938 413.660156 197.46875 412.761719 198.886719 411.335938 C 200.308594 409.910156 201.203125 407.910156 201.203125 405.734375 Z M 196.726562 451.503906 L 192.253906 451.503906 L 193.289062 451.503906 L 192.554688 450.769531 C 192.371094 450.941406 192.246094 451.222656 192.253906 451.503906 L 193.289062 451.503906 L 192.554688 450.769531 L 193.289062 451.507812 L 193.289062 450.46875 C 193.015625 450.460938 192.722656 450.585938 192.554688 450.769531 L 193.289062 451.507812 L 193.289062 450.46875 L 184.261719 450.46875 L 184.261719 451.503906 L 184.996094 450.769531 C 184.828125 450.585938 184.539062 450.460938 184.261719 450.46875 L 184.261719 451.503906 L 184.996094 450.769531 L 184.261719 451.503906 L 185.300781 451.503906 C 185.300781 451.222656 185.175781 450.941406 184.996094 450.769531 L 184.261719 451.503906 L 185.300781 451.503906 L 185.300781 435.609375 L 184.273438 435.609375 L 184.996094 436.328125 C 185.183594 436.152344 185.300781 435.867188 185.300781 435.609375 L 184.273438 435.609375 L 184.996094 436.328125 L 184.261719 435.59375 L 184.261719 436.636719 C 184.53125 436.636719 184.828125 436.511719 184.996094 436.328125 L 184.261719 435.59375 L 184.261719 436.636719 L 193.289062 436.636719 L 193.289062 435.585938 L 192.554688 436.328125 C 192.722656 436.511719 193.015625 436.636719 193.289062 436.636719 L 193.289062 435.585938 L 192.554688 436.328125 L 193.273438 435.609375 L 192.253906 435.609375 C 192.246094 435.867188 192.371094 436.152344 192.554688 436.328125 L 193.273438 435.609375 L 192.253906 435.609375 L 192.253906 451.503906 L 201.203125 451.503906 L 201.203125 435.609375 C 201.203125 433.433594 200.308594 431.425781 198.886719 430.007812 C 197.46875 428.582031 195.460938 427.6875 193.289062 427.6875 L 184.261719 427.6875 C 182.085938 427.6875 180.078125 428.582031 178.667969 430.007812 C 177.238281 431.425781 176.34375 433.433594 176.351562 435.609375 L 176.351562 451.503906 C 176.34375 453.667969 177.238281 455.675781 178.667969 457.097656 C 180.078125 458.515625 182.085938 459.417969 184.261719 459.410156 L 193.289062 459.410156 C 195.460938 459.417969 197.46875 458.515625 198.882812 457.097656 C 200.308594 455.675781 201.203125 453.667969 201.203125 451.503906 Z M 196.726562 497.261719 L 192.253906 497.261719 L 193.289062 497.261719 L 192.554688 496.519531 C 192.371094 496.695312 192.246094 496.980469 192.253906 497.261719 L 193.289062 497.261719 L 192.554688 496.519531 L 193.289062 497.261719 L 193.289062 496.21875 C 193.015625 496.21875 192.726562 496.34375 192.554688 496.519531 L 193.289062 497.261719 L 193.289062 496.21875 L 184.261719 496.21875 L 184.261719 497.253906 L 184.996094 496.519531 C 184.828125 496.34375 184.539062 496.21875 184.261719 496.21875 L 184.261719 497.253906 L 184.996094 496.519531 L 184.253906 497.261719 L 185.300781 497.261719 C 185.300781 496.980469 185.175781 496.695312 184.996094 496.519531 L 184.253906 497.261719 L 185.300781 497.261719 L 185.300781 481.359375 L 184.273438 481.359375 L 184.996094 482.085938 C 185.183594 481.914062 185.300781 481.625 185.300781 481.359375 L 184.273438 481.359375 L 184.996094 482.085938 L 184.261719 481.347656 L 184.261719 482.386719 C 184.53125 482.394531 184.828125 482.269531 184.996094 482.085938 L 184.261719 481.347656 L 184.261719 482.386719 L 193.289062 482.386719 L 193.289062 481.347656 L 192.554688 482.085938 C 192.722656 482.261719 193.015625 482.394531 193.289062 482.386719 L 193.289062 481.347656 L 192.554688 482.085938 L 193.273438 481.359375 L 192.253906 481.359375 C 192.246094 481.625 192.371094 481.914062 192.554688 482.085938 L 193.273438 481.359375 L 192.253906 481.359375 L 192.253906 497.261719 L 201.203125 497.261719 L 201.203125 481.359375 C 201.203125 479.191406 200.308594 477.179688 198.886719 475.757812 C 197.46875 474.332031 195.460938 473.4375 193.289062 473.445312 L 184.261719 473.445312 C 182.085938 473.4375 180.078125 474.332031 178.667969 475.757812 C 177.238281 477.179688 176.34375 479.191406 176.351562 481.359375 L 176.351562 497.261719 C 176.34375 499.429688 177.238281 501.433594 178.667969 502.847656 C 180.078125 504.273438 182.085938 505.167969 184.261719 505.167969 L 193.289062 505.167969 C 195.460938 505.167969 197.46875 504.273438 198.882812 502.847656 C 200.308594 501.433594 201.203125 499.429688 201.203125 497.261719 Z M 196.726562 543.011719 L 192.253906 543.011719 L 193.273438 543.011719 L 192.554688 542.285156 C 192.371094 542.460938 192.246094 542.746094 192.253906 543.011719 L 193.273438 543.011719 L 192.554688 542.285156 L 193.289062 543.027344 L 193.289062 541.984375 C 193.015625 541.976562 192.722656 542.105469 192.554688 542.285156 L 193.289062 543.027344 L 193.289062 541.984375 L 184.261719 541.984375 L 184.261719 543.027344 L 184.996094 542.285156 C 184.828125 542.105469 184.53125 541.976562 184.261719 541.984375 L 184.261719 543.027344 L 184.996094 542.285156 L 184.273438 543.011719 L 185.300781 543.011719 C 185.300781 542.746094 185.183594 542.460938 184.996094 542.285156 L 184.273438 543.011719 L 185.300781 543.011719 L 185.300781 527.113281 L 184.261719 527.113281 L 184.996094 527.847656 C 185.175781 527.679688 185.300781 527.390625 185.300781 527.113281 L 184.261719 527.113281 L 184.996094 527.847656 L 184.261719 527.113281 L 184.261719 528.152344 C 184.539062 528.152344 184.828125 528.027344 184.996094 527.847656 L 184.261719 527.113281 L 184.261719 528.152344 L 193.289062 528.152344 L 193.289062 527.113281 L 192.554688 527.847656 C 192.726562 528.027344 193.015625 528.152344 193.289062 528.152344 L 193.289062 527.113281 L 192.554688 527.847656 L 193.289062 527.113281 L 192.253906 527.113281 C 192.246094 527.390625 192.371094 527.679688 192.554688 527.847656 L 193.289062 527.113281 L 192.253906 527.113281 L 192.253906 543.011719 L 201.203125 543.011719 L 201.203125 527.113281 C 201.203125 524.9375 200.308594 522.9375 198.882812 521.523438 C 197.46875 520.097656 195.460938 519.203125 193.289062 519.203125 L 184.261719 519.203125 C 182.085938 519.203125 180.078125 520.097656 178.667969 521.523438 C 177.238281 522.9375 176.34375 524.9375 176.351562 527.113281 L 176.351562 543.011719 C 176.34375 545.179688 177.238281 547.1875 178.667969 548.613281 C 180.078125 550.039062 182.085938 550.933594 184.261719 550.929688 L 193.289062 550.929688 C 195.460938 550.933594 197.46875 550.039062 198.886719 548.613281 C 200.308594 547.1875 201.203125 545.179688 201.203125 543.011719 Z M 196.726562 588.765625 L 192.253906 588.765625 L 193.273438 588.765625 L 192.554688 588.042969 C 192.371094 588.21875 192.246094 588.507812 192.253906 588.765625 L 193.273438 588.765625 L 192.554688 588.042969 L 193.289062 588.777344 L 193.289062 587.738281 C 193.015625 587.738281 192.722656 587.863281 192.554688 588.042969 L 193.289062 588.777344 L 193.289062 587.738281 L 184.261719 587.738281 L 184.261719 588.777344 L 184.996094 588.042969 C 184.828125 587.863281 184.53125 587.738281 184.261719 587.738281 L 184.261719 588.777344 L 184.996094 588.042969 L 184.273438 588.765625 L 185.300781 588.765625 C 185.300781 588.507812 185.183594 588.21875 184.996094 588.042969 L 184.273438 588.765625 L 185.300781 588.765625 L 185.300781 572.871094 L 184.261719 572.871094 L 184.996094 573.605469 C 185.175781 573.429688 185.300781 573.144531 185.300781 572.871094 L 184.261719 572.871094 L 184.996094 573.605469 L 184.261719 572.871094 L 184.261719 573.90625 C 184.539062 573.914062 184.828125 573.785156 184.996094 573.605469 L 184.261719 572.871094 L 184.261719 573.90625 L 193.289062 573.90625 L 193.289062 572.863281 L 192.554688 573.605469 C 192.722656 573.78125 193.015625 573.914062 193.289062 573.90625 L 193.289062 572.863281 L 192.554688 573.605469 L 193.289062 572.871094 L 192.253906 572.871094 C 192.246094 573.144531 192.371094 573.429688 192.554688 573.605469 L 193.289062 572.871094 L 192.253906 572.871094 L 192.253906 588.765625 L 201.203125 588.765625 L 201.203125 572.871094 C 201.203125 570.703125 200.308594 568.695312 198.882812 567.277344 C 197.46875 565.855469 195.460938 564.957031 193.289062 564.960938 L 184.261719 564.960938 C 182.085938 564.957031 180.078125 565.855469 178.667969 567.277344 C 177.238281 568.695312 176.34375 570.703125 176.351562 572.871094 L 176.351562 588.765625 C 176.34375 590.9375 177.238281 592.945312 178.667969 594.367188 C 180.078125 595.792969 182.085938 596.6875 184.261719 596.6875 L 193.289062 596.6875 C 195.460938 596.6875 197.46875 595.792969 198.886719 594.367188 C 200.308594 592.945312 201.203125 590.9375 201.203125 588.765625 Z M 196.726562 634.539062 L 192.253906 634.539062 L 193.289062 634.539062 L 192.554688 633.796875 C 192.371094 633.972656 192.246094 634.257812 192.253906 634.539062 L 193.289062 634.539062 L 192.554688 633.796875 L 193.289062 634.53125 L 193.289062 633.496094 C 193.015625 633.488281 192.726562 633.613281 192.554688 633.796875 L 193.289062 634.53125 L 193.289062 633.496094 L 184.261719 633.496094 L 184.261719 634.53125 L 184.996094 633.796875 C 184.820312 633.613281 184.53125 633.488281 184.261719 633.496094 L 184.261719 634.53125 L 184.996094 633.796875 L 184.253906 634.53125 L 185.300781 634.539062 C 185.300781 634.257812 185.175781 633.972656 184.996094 633.796875 L 184.253906 634.53125 L 185.300781 634.539062 L 185.300781 618.636719 L 184.273438 618.636719 L 184.996094 619.363281 C 185.183594 619.1875 185.300781 618.902344 185.300781 618.636719 L 184.273438 618.636719 L 184.996094 619.363281 L 184.261719 618.621094 L 184.261719 619.671875 C 184.53125 619.671875 184.828125 619.546875 184.996094 619.363281 L 184.261719 618.621094 L 184.261719 619.671875 L 193.289062 619.671875 L 193.289062 618.621094 L 192.554688 619.363281 C 192.722656 619.546875 193.015625 619.671875 193.289062 619.671875 L 193.289062 618.621094 L 192.554688 619.363281 L 193.273438 618.636719 L 192.253906 618.636719 C 192.246094 618.902344 192.371094 619.1875 192.554688 619.363281 L 193.273438 618.636719 L 192.253906 618.636719 L 192.253906 634.539062 L 201.203125 634.539062 L 201.203125 618.636719 C 201.203125 616.46875 200.308594 614.457031 198.886719 613.035156 C 197.46875 611.617188 195.460938 610.714844 193.289062 610.722656 L 184.261719 610.722656 C 182.085938 610.714844 180.078125 611.609375 178.667969 613.035156 C 177.238281 614.457031 176.34375 616.46875 176.351562 618.636719 L 176.351562 634.539062 C 176.34375 636.707031 177.238281 638.710938 178.667969 640.125 C 180.085938 641.550781 182.085938 642.445312 184.261719 642.4375 L 193.289062 642.4375 C 195.460938 642.445312 197.460938 641.550781 198.882812 640.125 C 200.308594 638.710938 201.203125 636.707031 201.203125 634.539062 Z M 159.757812 79.683594 L 155.28125 79.683594 L 155.28125 670.136719 C 155.28125 671.316406 155.765625 672.472656 156.597656 673.304688 C 157.429688 674.136719 158.582031 674.613281 159.757812 674.613281 L 619.648438 674.613281 C 620.828125 674.613281 621.984375 674.136719 622.816406 673.304688 C 623.648438 672.472656 624.121094 671.316406 624.121094 670.136719 L 624.121094 79.683594 C 624.121094 78.5 623.648438 77.347656 622.816406 76.515625 C 621.984375 75.683594 620.828125 75.199219 619.648438 75.199219 L 159.757812 75.199219 C 158.582031 75.199219 157.429688 75.683594 156.597656 76.515625 C 155.765625 77.347656 155.28125 78.5 155.28125 79.683594 L 159.757812 79.683594 L 159.757812 84.160156 L 615.171875 84.160156 L 615.171875 665.660156 L 164.234375 665.660156 L 164.234375 79.683594 L 159.757812 79.683594 L 159.757812 84.160156 L 159.757812 79.683594 " fill-opacity="1" fill-rule="nonzero"/></g><path fill="#bdbcbc" d="M 134.347656 638.65625 C 131.257812 638.65625 128.738281 636.132812 128.738281 633.042969 C 128.738281 629.949219 131.257812 627.433594 134.347656 627.433594 L 182.363281 627.433594 C 185.457031 627.433594 187.972656 629.949219 187.972656 633.042969 C 187.972656 636.132812 185.457031 638.65625 182.363281 638.65625 L 134.347656 638.65625 " fill-opacity="1" fill-rule="nonzero"/><path fill="#0e0d0c" d="M 182.363281 624.75 L 134.347656 624.75 C 129.773438 624.75 126.054688 628.46875 126.054688 633.042969 C 126.054688 637.613281 129.773438 641.339844 134.347656 641.339844 L 182.363281 641.339844 C 186.9375 641.339844 190.65625 637.613281 190.65625 633.042969 C 190.65625 628.46875 186.9375 624.75 182.363281 624.75 Z M 182.363281 630.117188 C 183.980469 630.117188 185.289062 631.425781 185.289062 633.042969 C 185.289062 634.664062 183.980469 635.972656 182.363281 635.972656 L 134.347656 635.972656 C 132.730469 635.972656 131.425781 634.664062 131.425781 633.042969 C 131.425781 631.425781 132.730469 630.117188 134.347656 630.117188 L 182.363281 630.117188 " fill-opacity="1" fill-rule="nonzero"/><path fill="#bdbcbc" d="M 134.347656 625.214844 C 131.257812 625.214844 128.738281 622.699219 128.738281 619.601562 C 128.738281 616.511719 131.257812 613.992188 134.347656 613.992188 L 182.363281 613.992188 C 185.457031 613.992188 187.972656 616.511719 187.972656 619.601562 C 187.972656 622.699219 185.457031 625.214844 182.363281 625.214844 L 134.347656 625.214844 " fill-opacity="1" fill-rule="nonzero"/><path fill="#0e0d0c" d="M 182.363281 611.308594 L 134.347656 611.308594 C 129.773438 611.308594 126.054688 615.027344 126.054688 619.601562 C 126.054688 624.183594 129.773438 627.902344 134.347656 627.902344 L 182.363281 627.902344 C 186.9375 627.902344 190.65625 624.183594 190.65625 619.601562 C 190.65625 615.027344 186.9375 611.308594 182.363281 611.308594 Z M 182.363281 616.679688 C 183.980469 616.679688 185.289062 617.992188 185.289062 619.601562 C 185.289062 621.21875 183.980469 622.53125 182.363281 622.53125 L 134.347656 622.53125 C 132.730469 622.53125 131.425781 621.21875 131.425781 619.601562 C 131.425781 617.992188 132.730469 616.679688 134.347656 616.679688 L 182.363281 616.679688 " fill-opacity="1" fill-rule="nonzero"/><path fill="#bdbcbc" d="M 134.347656 593.101562 C 131.257812 593.101562 128.738281 590.582031 128.738281 587.492188 C 128.738281 584.394531 131.257812 581.882812 134.347656 581.882812 L 182.363281 581.882812 C 185.457031 581.882812 187.972656 584.394531 187.972656 587.492188 C 187.972656 590.582031 185.457031 593.101562 182.363281 593.101562 L 134.347656 593.101562 " fill-opacity="1" fill-rule="nonzero"/><path fill="#0e0d0c" d="M 182.363281 579.199219 L 134.347656 579.199219 C 129.773438 579.199219 126.054688 582.910156 126.054688 587.492188 C 126.054688 592.066406 129.773438 595.785156 134.347656 595.785156 L 182.363281 595.785156 C 186.9375 595.785156 190.65625 592.066406 190.65625 587.492188 C 190.65625 582.910156 186.9375 579.199219 182.363281 579.199219 Z M 182.363281 584.570312 C 183.980469 584.570312 185.289062 585.871094 185.289062 587.492188 C 185.289062 589.105469 183.980469 590.414062 182.363281 590.414062 L 134.347656 590.414062 C 132.730469 590.414062 131.425781 589.105469 131.425781 587.492188 C 131.425781 585.871094 132.730469 584.570312 134.347656 584.570312 L 182.363281 584.570312 " fill-opacity="1" fill-rule="nonzero"/><path fill="#bdbcbc" d="M 134.347656 579.660156 C 131.257812 579.660156 128.738281 577.144531 128.738281 574.050781 C 128.738281 570.960938 131.257812 568.445312 134.347656 568.445312 L 182.363281 568.445312 C 185.457031 568.445312 187.972656 570.960938 187.972656 574.050781 C 187.972656 577.144531 185.457031 579.660156 182.363281 579.660156 L 134.347656 579.660156 " fill-opacity="1" fill-rule="nonzero"/><path fill="#0e0d0c" d="M 182.363281 565.757812 L 134.347656 565.757812 C 129.773438 565.757812 126.054688 569.480469 126.054688 574.050781 C 126.054688 578.625 129.773438 582.34375 134.347656 582.34375 L 182.363281 582.34375 C 186.9375 582.34375 190.65625 578.625 190.65625 574.050781 C 190.65625 569.480469 186.9375 565.757812 182.363281 565.757812 Z M 182.363281 571.128906 C 183.980469 571.128906 185.289062 572.4375 185.289062 574.050781 C 185.289062 575.667969 183.980469 576.976562 182.363281 576.976562 L 134.347656 576.976562 C 132.730469 576.976562 131.425781 575.667969 131.425781 574.050781 C 131.425781 572.4375 132.730469 571.128906 134.347656 571.128906 L 182.363281 571.128906 " fill-opacity="1" fill-rule="nonzero"/><path fill="#bdbcbc" d="M 134.347656 546.929688 C 131.257812 546.929688 128.738281 544.410156 128.738281 541.320312 C 128.738281 538.230469 131.257812 535.710938 134.347656 535.710938 L 182.363281 535.710938 C 185.457031 535.710938 187.972656 538.230469 187.972656 541.320312 C 187.972656 544.410156 185.457031 546.929688 182.363281 546.929688 L 134.347656 546.929688 " fill-opacity="1" fill-rule="nonzero"/><path fill="#0e0d0c" d="M 182.363281 533.027344 L 134.347656 533.027344 C 129.773438 533.027344 126.054688 536.746094 126.054688 541.320312 C 126.054688 545.894531 129.773438 549.613281 134.347656 549.613281 L 182.363281 549.613281 C 186.9375 549.613281 190.65625 545.894531 190.65625 541.320312 C 190.65625 536.746094 186.9375 533.027344 182.363281 533.027344 Z M 182.363281 538.398438 C 183.980469 538.398438 185.289062 539.707031 185.289062 541.320312 C 185.289062 542.9375 183.980469 544.242188 182.363281 544.242188 L 134.347656 544.242188 C 132.730469 544.242188 131.425781 542.9375 131.425781 541.320312 C 131.425781 539.707031 132.730469 538.398438 134.347656 538.398438 L 182.363281 538.398438 " fill-opacity="1" fill-rule="nonzero"/><path fill="#bdbcbc" d="M 134.347656 533.488281 C 131.257812 533.488281 128.738281 530.980469 128.738281 527.886719 C 128.738281 524.789062 131.257812 522.273438 134.347656 522.273438 L 182.363281 522.273438 C 185.457031 522.273438 187.972656 524.789062 187.972656 527.886719 C 187.972656 530.980469 185.457031 533.488281 182.363281 533.488281 L 134.347656 533.488281 " fill-opacity="1" fill-rule="nonzero"/><path fill="#0e0d0c" d="M 182.363281 519.589844 L 134.347656 519.589844 C 129.773438 519.589844 126.054688 523.308594 126.054688 527.886719 C 126.054688 532.453125 129.773438 536.175781 134.347656 536.175781 L 182.363281 536.175781 C 186.9375 536.175781 190.65625 532.453125 190.65625 527.886719 C 190.65625 523.308594 186.9375 519.589844 182.363281 519.589844 Z M 182.363281 524.957031 C 183.980469 524.957031 185.289062 526.265625 185.289062 527.886719 C 185.289062 529.503906 183.980469 530.804688 182.363281 530.804688 L 134.347656 530.804688 C 132.730469 530.804688 131.425781 529.503906 131.425781 527.886719 C 131.425781 526.265625 132.730469 524.957031 134.347656 524.957031 L 182.363281 524.957031 " fill-opacity="1" fill-rule="nonzero"/><path fill="#bdbcbc" d="M 134.347656 501.371094 C 131.257812 501.371094 128.738281 498.863281 128.738281 495.765625 C 128.738281 492.675781 131.257812 490.15625 134.347656 490.15625 L 182.363281 490.15625 C 185.457031 490.15625 187.972656 492.675781 187.972656 495.765625 C 187.972656 498.863281 185.457031 501.371094 182.363281 501.371094 L 134.347656 501.371094 " fill-opacity="1" fill-rule="nonzero"/><path fill="#0e0d0c" d="M 182.363281 487.472656 L 134.347656 487.472656 C 129.773438 487.472656 126.054688 491.199219 126.054688 495.765625 C 126.054688 500.34375 129.773438 504.058594 134.347656 504.058594 L 182.363281 504.058594 C 186.9375 504.058594 190.65625 500.34375 190.65625 495.765625 C 190.65625 491.199219 186.9375 487.472656 182.363281 487.472656 Z M 182.363281 492.839844 C 183.980469 492.839844 185.289062 494.15625 185.289062 495.765625 C 185.289062 497.386719 183.980469 498.6875 182.363281 498.6875 L 134.347656 498.6875 C 132.730469 498.6875 131.425781 497.386719 131.425781 495.765625 C 131.425781 494.15625 132.730469 492.839844 134.347656 492.839844 L 182.363281 492.839844 " fill-opacity="1" fill-rule="nonzero"/><path fill="#bdbcbc" d="M 134.347656 487.941406 C 131.257812 487.941406 128.738281 485.421875 128.738281 482.332031 C 128.738281 479.242188 131.257812 476.722656 134.347656 476.722656 L 182.363281 476.722656 C 185.457031 476.722656 187.972656 479.242188 187.972656 482.332031 C 187.972656 485.421875 185.457031 487.941406 182.363281 487.941406 L 134.347656 487.941406 " fill-opacity="1" fill-rule="nonzero"/><path fill="#0e0d0c" d="M 182.363281 474.039062 L 134.347656 474.039062 C 129.773438 474.039062 126.054688 477.757812 126.054688 482.332031 C 126.054688 486.90625 129.773438 490.625 134.347656 490.625 L 182.363281 490.625 C 186.9375 490.625 190.65625 486.90625 190.65625 482.332031 C 190.65625 477.757812 186.9375 474.039062 182.363281 474.039062 Z M 182.363281 479.410156 C 183.980469 479.410156 185.289062 480.710938 185.289062 482.332031 C 185.289062 483.945312 183.980469 485.253906 182.363281 485.253906 L 134.347656 485.253906 C 132.730469 485.253906 131.425781 483.945312 131.425781 482.332031 C 131.425781 480.710938 132.730469 479.410156 134.347656 479.410156 L 182.363281 479.410156 " fill-opacity="1" fill-rule="nonzero"/><path fill="#bdbcbc" d="M 134.347656 455.878906 C 131.257812 455.878906 128.738281 453.363281 128.738281 450.269531 C 128.738281 447.179688 131.257812 444.664062 134.347656 444.664062 L 182.363281 444.664062 C 185.457031 444.664062 187.972656 447.179688 187.972656 450.269531 C 187.972656 453.363281 185.457031 455.878906 182.363281 455.878906 L 134.347656 455.878906 " fill-opacity="1" fill-rule="nonzero"/><path fill="#0e0d0c" d="M 182.363281 441.976562 L 134.347656 441.976562 C 129.773438 441.976562 126.054688 445.699219 126.054688 450.269531 C 126.054688 454.84375 129.773438 458.566406 134.347656 458.566406 L 182.363281 458.566406 C 186.9375 458.566406 190.65625 454.84375 190.65625 450.269531 C 190.65625 445.699219 186.9375 441.976562 182.363281 441.976562 Z M 182.363281 447.347656 C 183.980469 447.347656 185.289062 448.65625 185.289062 450.269531 C 185.289062 451.886719 183.980469 453.195312 182.363281 453.195312 L 134.347656 453.195312 C 132.730469 453.195312 131.425781 451.886719 131.425781 450.269531 C 131.425781 448.65625 132.730469 447.347656 134.347656 447.347656 L 182.363281 447.347656 " fill-opacity="1" fill-rule="nonzero"/><path fill="#bdbcbc" d="M 134.347656 442.441406 C 131.257812 442.441406 128.738281 439.929688 128.738281 436.832031 C 128.738281 433.742188 131.257812 431.230469 134.347656 431.230469 L 182.363281 431.230469 C 185.457031 431.230469 187.972656 433.742188 187.972656 436.832031 C 187.972656 439.929688 185.457031 442.441406 182.363281 442.441406 L 134.347656 442.441406 " fill-opacity="1" fill-rule="nonzero"/><path fill="#0e0d0c" d="M 182.363281 428.546875 L 134.347656 428.546875 C 129.773438 428.546875 126.054688 432.265625 126.054688 436.832031 C 126.054688 441.40625 129.773438 445.125 134.347656 445.125 L 182.363281 445.125 C 186.9375 445.125 190.65625 441.40625 190.65625 436.832031 C 190.65625 432.265625 186.9375 428.546875 182.363281 428.546875 Z M 182.363281 433.914062 C 183.980469 433.914062 185.289062 435.214844 185.289062 436.832031 C 185.289062 438.453125 183.980469 439.753906 182.363281 439.753906 L 134.347656 439.753906 C 132.730469 439.753906 131.425781 438.453125 131.425781 436.832031 C 131.425781 435.214844 132.730469 433.914062 134.347656 433.914062 L 182.363281 433.914062 " fill-opacity="1" fill-rule="nonzero"/><path fill="#bdbcbc" d="M 134.347656 410.332031 C 131.257812 410.332031 128.738281 407.8125 128.738281 404.722656 C 128.738281 401.625 131.257812 399.105469 134.347656 399.105469 L 182.363281 399.105469 C 185.457031 399.105469 187.972656 401.625 187.972656 404.722656 C 187.972656 407.8125 185.457031 410.332031 182.363281 410.332031 L 134.347656 410.332031 " fill-opacity="1" fill-rule="nonzero"/><path fill="#0e0d0c" d="M 182.363281 396.421875 L 134.347656 396.421875 C 129.773438 396.421875 126.054688 400.140625 126.054688 404.722656 C 126.054688 409.296875 129.773438 413.015625 134.347656 413.015625 L 182.363281 413.015625 C 186.9375 413.015625 190.65625 409.296875 190.65625 404.722656 C 190.65625 400.140625 186.9375 396.421875 182.363281 396.421875 Z M 182.363281 401.792969 C 183.980469 401.792969 185.289062 403.105469 185.289062 404.722656 C 185.289062 406.332031 183.980469 407.644531 182.363281 407.644531 L 134.347656 407.644531 C 132.730469 407.644531 131.425781 406.332031 131.425781 404.722656 C 131.425781 403.105469 132.730469 401.792969 134.347656 401.792969 L 182.363281 401.792969 " fill-opacity="1" fill-rule="nonzero"/><path fill="#bdbcbc" d="M 134.347656 396.890625 C 131.257812 396.890625 128.738281 394.375 128.738281 391.28125 C 128.738281 388.191406 131.257812 385.667969 134.347656 385.667969 L 182.363281 385.667969 C 185.457031 385.667969 187.972656 388.191406 187.972656 391.28125 C 187.972656 394.375 185.457031 396.890625 182.363281 396.890625 L 134.347656 396.890625 " fill-opacity="1" fill-rule="nonzero"/><path fill="#0e0d0c" d="M 182.363281 382.984375 L 134.347656 382.984375 C 129.773438 382.984375 126.054688 386.710938 126.054688 391.28125 C 126.054688 395.855469 129.773438 399.574219 134.347656 399.574219 L 182.363281 399.574219 C 186.9375 399.574219 190.65625 395.855469 190.65625 391.28125 C 190.65625 386.710938 186.9375 382.984375 182.363281 382.984375 Z M 182.363281 388.351562 C 183.980469 388.351562 185.289062 389.667969 185.289062 391.28125 C 185.289062 392.898438 183.980469 394.207031 182.363281 394.207031 L 134.347656 394.207031 C 132.730469 394.207031 131.425781 392.898438 131.425781 391.28125 C 131.425781 389.667969 132.730469 388.351562 134.347656 388.351562 L 182.363281 388.351562 " fill-opacity="1" fill-rule="nonzero"/><path fill="#bdbcbc" d="M 134.347656 364.160156 C 131.257812 364.160156 128.738281 361.640625 128.738281 358.550781 C 128.738281 355.460938 131.257812 352.941406 134.347656 352.941406 L 182.363281 352.941406 C 185.457031 352.941406 187.972656 355.460938 187.972656 358.550781 C 187.972656 361.640625 185.457031 364.160156 182.363281 364.160156 L 134.347656 364.160156 " fill-opacity="1" fill-rule="nonzero"/><path fill="#0e0d0c" d="M 182.363281 350.257812 L 134.347656 350.257812 C 129.773438 350.257812 126.054688 353.976562 126.054688 358.550781 C 126.054688 363.125 129.773438 366.84375 134.347656 366.84375 L 182.363281 366.84375 C 186.9375 366.84375 190.65625 363.125 190.65625 358.550781 C 190.65625 353.976562 186.9375 350.257812 182.363281 350.257812 Z M 182.363281 355.628906 C 183.980469 355.628906 185.289062 356.9375 185.289062 358.550781 C 185.289062 360.167969 183.980469 361.472656 182.363281 361.472656 L 134.347656 361.472656 C 132.730469 361.472656 131.425781 360.167969 131.425781 358.550781 C 131.425781 356.9375 132.730469 355.628906 134.347656 355.628906 L 182.363281 355.628906 " fill-opacity="1" fill-rule="nonzero"/><path fill="#bdbcbc" d="M 134.347656 350.726562 C 131.257812 350.726562 128.738281 348.207031 128.738281 345.109375 C 128.738281 342.019531 131.257812 339.503906 134.347656 339.503906 L 182.363281 339.503906 C 185.457031 339.503906 187.972656 342.019531 187.972656 345.109375 C 187.972656 348.207031 185.457031 350.726562 182.363281 350.726562 L 134.347656 350.726562 " fill-opacity="1" fill-rule="nonzero"/><path fill="#0e0d0c" d="M 182.363281 336.816406 L 134.347656 336.816406 C 129.773438 336.816406 126.054688 340.539062 126.054688 345.109375 C 126.054688 349.691406 129.773438 353.410156 134.347656 353.410156 L 182.363281 353.410156 C 186.9375 353.410156 190.65625 349.691406 190.65625 345.109375 C 190.65625 340.539062 186.9375 336.816406 182.363281 336.816406 Z M 182.363281 342.1875 C 183.980469 342.1875 185.289062 343.503906 185.289062 345.109375 C 185.289062 346.726562 183.980469 348.042969 182.363281 348.042969 L 134.347656 348.042969 C 132.730469 348.042969 131.425781 346.726562 131.425781 345.109375 C 131.425781 343.503906 132.730469 342.1875 134.347656 342.1875 L 182.363281 342.1875 " fill-opacity="1" fill-rule="nonzero"/><path fill="#bdbcbc" d="M 134.347656 318.601562 C 131.257812 318.601562 128.738281 316.09375 128.738281 313 C 128.738281 309.902344 131.257812 307.386719 134.347656 307.386719 L 182.363281 307.386719 C 185.457031 307.386719 187.972656 309.902344 187.972656 313 C 187.972656 316.09375 185.457031 318.601562 182.363281 318.601562 L 134.347656 318.601562 " fill-opacity="1" fill-rule="nonzero"/><path fill="#0e0d0c" d="M 182.363281 304.703125 L 134.347656 304.703125 C 129.773438 304.703125 126.054688 308.421875 126.054688 313 C 126.054688 317.566406 129.773438 321.289062 134.347656 321.289062 L 182.363281 321.289062 C 186.9375 321.289062 190.65625 317.566406 190.65625 313 C 190.65625 308.421875 186.9375 304.703125 182.363281 304.703125 Z M 182.363281 310.070312 C 183.980469 310.070312 185.289062 311.378906 185.289062 313 C 185.289062 314.609375 183.980469 315.917969 182.363281 315.917969 L 134.347656 315.917969 C 132.730469 315.917969 131.425781 314.609375 131.425781 313 C 131.425781 311.378906 132.730469 310.070312 134.347656 310.070312 L 182.363281 310.070312 " fill-opacity="1" fill-rule="nonzero"/><path fill="#bdbcbc" d="M 134.347656 305.171875 C 131.257812 305.171875 128.738281 302.652344 128.738281 299.5625 C 128.738281 296.464844 131.257812 293.945312 134.347656 293.945312 L 182.363281 293.945312 C 185.457031 293.945312 187.972656 296.464844 187.972656 299.5625 C 187.972656 302.652344 185.457031 305.171875 182.363281 305.171875 L 134.347656 305.171875 " fill-opacity="1" fill-rule="nonzero"/><path fill="#0e0d0c" d="M 182.363281 291.261719 L 134.347656 291.261719 C 129.773438 291.261719 126.054688 294.980469 126.054688 299.5625 C 126.054688 304.136719 129.773438 307.855469 134.347656 307.855469 L 182.363281 307.855469 C 186.9375 307.855469 190.65625 304.136719 190.65625 299.5625 C 190.65625 294.980469 186.9375 291.261719 182.363281 291.261719 Z M 182.363281 296.632812 C 183.980469 296.632812 185.289062 297.945312 185.289062 299.5625 C 185.289062 301.171875 183.980469 302.484375 182.363281 302.484375 L 134.347656 302.484375 C 132.730469 302.484375 131.425781 301.171875 131.425781 299.5625 C 131.425781 297.945312 132.730469 296.632812 134.347656 296.632812 L 182.363281 296.632812 " fill-opacity="1" fill-rule="nonzero"/><path fill="#bdbcbc" d="M 134.347656 273.101562 C 131.257812 273.101562 128.738281 270.585938 128.738281 267.496094 C 128.738281 264.398438 131.257812 261.886719 134.347656 261.886719 L 182.363281 261.886719 C 185.457031 261.886719 187.972656 264.398438 187.972656 267.496094 C 187.972656 270.585938 185.457031 273.101562 182.363281 273.101562 L 134.347656 273.101562 " fill-opacity="1" fill-rule="nonzero"/><path fill="#0e0d0c" d="M 182.363281 259.203125 L 134.347656 259.203125 C 129.773438 259.203125 126.054688 262.914062 126.054688 267.496094 C 126.054688 272.066406 129.773438 275.789062 134.347656 275.789062 L 182.363281 275.789062 C 186.9375 275.789062 190.65625 272.066406 190.65625 267.496094 C 190.65625 262.914062 186.9375 259.203125 182.363281 259.203125 Z M 182.363281 264.570312 C 183.980469 264.570312 185.289062 265.871094 185.289062 267.496094 C 185.289062 269.101562 183.980469 270.417969 182.363281 270.417969 L 134.347656 270.417969 C 132.730469 270.417969 131.425781 269.101562 131.425781 267.496094 C 131.425781 265.871094 132.730469 264.570312 134.347656 264.570312 L 182.363281 264.570312 " fill-opacity="1" fill-rule="nonzero"/><path fill="#bdbcbc" d="M 134.347656 259.664062 C 131.257812 259.664062 128.738281 257.144531 128.738281 254.054688 C 128.738281 250.964844 131.257812 248.445312 134.347656 248.445312 L 182.363281 248.445312 C 185.457031 248.445312 187.972656 250.964844 187.972656 254.054688 C 187.972656 257.144531 185.457031 259.664062 182.363281 259.664062 L 134.347656 259.664062 " fill-opacity="1" fill-rule="nonzero"/><path fill="#0e0d0c" d="M 182.363281 245.761719 L 134.347656 245.761719 C 129.773438 245.761719 126.054688 249.480469 126.054688 254.054688 C 126.054688 258.628906 129.773438 262.347656 134.347656 262.347656 L 182.363281 262.347656 C 186.9375 262.347656 190.65625 258.628906 190.65625 254.054688 C 190.65625 249.480469 186.9375 245.761719 182.363281 245.761719 Z M 182.363281 251.132812 C 183.980469 251.132812 185.289062 252.441406 185.289062 254.054688 C 185.289062 255.671875 183.980469 256.976562 182.363281 256.976562 L 134.347656 256.976562 C 132.730469 256.976562 131.425781 255.671875 131.425781 254.054688 C 131.425781 252.441406 132.730469 251.132812 134.347656 251.132812 L 182.363281 251.132812 " fill-opacity="1" fill-rule="nonzero"/><path fill="#bdbcbc" d="M 134.347656 227.546875 C 131.257812 227.546875 128.738281 225.027344 128.738281 221.9375 C 128.738281 218.847656 131.257812 216.332031 134.347656 216.332031 L 182.363281 216.332031 C 185.457031 216.332031 187.972656 218.847656 187.972656 221.9375 C 187.972656 225.027344 185.457031 227.546875 182.363281 227.546875 L 134.347656 227.546875 " fill-opacity="1" fill-rule="nonzero"/><path fill="#0e0d0c" d="M 182.363281 213.644531 L 134.347656 213.644531 C 129.773438 213.644531 126.054688 217.367188 126.054688 221.9375 C 126.054688 226.511719 129.773438 230.230469 134.347656 230.230469 L 182.363281 230.230469 C 186.9375 230.230469 190.65625 226.511719 190.65625 221.9375 C 190.65625 217.367188 186.9375 213.644531 182.363281 213.644531 Z M 182.363281 219.015625 C 183.980469 219.015625 185.289062 220.316406 185.289062 221.9375 C 185.289062 223.554688 183.980469 224.859375 182.363281 224.859375 L 134.347656 224.859375 C 132.730469 224.859375 131.425781 223.554688 131.425781 221.9375 C 131.425781 220.316406 132.730469 219.015625 134.347656 219.015625 L 182.363281 219.015625 " fill-opacity="1" fill-rule="nonzero"/><path fill="#bdbcbc" d="M 134.347656 214.105469 C 131.257812 214.105469 128.738281 211.597656 128.738281 208.507812 C 128.738281 205.40625 131.257812 202.890625 134.347656 202.890625 L 182.363281 202.890625 C 185.457031 202.890625 187.972656 205.40625 187.972656 208.507812 C 187.972656 211.597656 185.457031 214.105469 182.363281 214.105469 L 134.347656 214.105469 " fill-opacity="1" fill-rule="nonzero"/><path fill="#0e0d0c" d="M 182.363281 200.207031 L 134.347656 200.207031 C 129.773438 200.207031 126.054688 203.925781 126.054688 208.507812 C 126.054688 213.070312 129.773438 216.792969 134.347656 216.792969 L 182.363281 216.792969 C 186.9375 216.792969 190.65625 213.070312 190.65625 208.507812 C 190.65625 203.925781 186.9375 200.207031 182.363281 200.207031 Z M 182.363281 205.574219 C 183.980469 205.574219 185.289062 206.882812 185.289062 208.507812 C 185.289062 210.113281 183.980469 211.421875 182.363281 211.421875 L 134.347656 211.421875 C 132.730469 211.421875 131.425781 210.113281 131.425781 208.507812 C 131.425781 206.882812 132.730469 205.574219 134.347656 205.574219 L 182.363281 205.574219 " fill-opacity="1" fill-rule="nonzero"/><path fill="#bdbcbc" d="M 134.347656 181.375 C 131.257812 181.375 128.738281 178.863281 128.738281 175.773438 C 128.738281 172.675781 131.257812 170.167969 134.347656 170.167969 L 182.363281 170.167969 C 185.457031 170.167969 187.972656 172.675781 187.972656 175.773438 C 187.972656 178.863281 185.457031 181.375 182.363281 181.375 L 134.347656 181.375 " fill-opacity="1" fill-rule="nonzero"/><path fill="#0e0d0c" d="M 182.363281 167.480469 L 134.347656 167.480469 C 129.773438 167.480469 126.054688 171.199219 126.054688 175.773438 C 126.054688 180.339844 129.773438 184.058594 134.347656 184.058594 L 182.363281 184.058594 C 186.9375 184.058594 190.65625 180.339844 190.65625 175.773438 C 190.65625 171.199219 186.9375 167.480469 182.363281 167.480469 Z M 182.363281 172.851562 C 183.980469 172.851562 185.289062 174.152344 185.289062 175.773438 C 185.289062 177.390625 183.980469 178.691406 182.363281 178.691406 L 134.347656 178.691406 C 132.730469 178.691406 131.425781 177.390625 131.425781 175.773438 C 131.425781 174.152344 132.730469 172.851562 134.347656 172.851562 L 182.363281 172.851562 " fill-opacity="1" fill-rule="nonzero"/><path fill="#bdbcbc" d="M 134.347656 167.941406 C 131.257812 167.941406 128.738281 165.425781 128.738281 162.335938 C 128.738281 159.238281 131.257812 156.726562 134.347656 156.726562 L 182.363281 156.726562 C 185.457031 156.726562 187.972656 159.238281 187.972656 162.335938 C 187.972656 165.425781 185.457031 167.941406 182.363281 167.941406 L 134.347656 167.941406 " fill-opacity="1" fill-rule="nonzero"/><path fill="#0e0d0c" d="M 182.363281 154.042969 L 134.347656 154.042969 C 129.773438 154.042969 126.054688 157.761719 126.054688 162.335938 C 126.054688 166.90625 129.773438 170.628906 134.347656 170.628906 L 182.363281 170.628906 C 186.9375 170.628906 190.65625 166.90625 190.65625 162.335938 C 190.65625 157.761719 186.9375 154.042969 182.363281 154.042969 Z M 182.363281 159.410156 C 183.980469 159.410156 185.289062 160.71875 185.289062 162.335938 C 185.289062 163.949219 183.980469 165.257812 182.363281 165.257812 L 134.347656 165.257812 C 132.730469 165.257812 131.425781 163.949219 131.425781 162.335938 C 131.425781 160.71875 132.730469 159.410156 134.347656 159.410156 L 182.363281 159.410156 " fill-opacity="1" fill-rule="nonzero"/><path fill="#bdbcbc" d="M 134.347656 135.824219 C 131.257812 135.824219 128.738281 133.308594 128.738281 130.21875 C 128.738281 127.128906 131.257812 124.601562 134.347656 124.601562 L 182.363281 124.601562 C 185.457031 124.601562 187.972656 127.128906 187.972656 130.21875 C 187.972656 133.308594 185.457031 135.824219 182.363281 135.824219 L 134.347656 135.824219 " fill-opacity="1" fill-rule="nonzero"/><path fill="#0e0d0c" d="M 182.363281 121.917969 L 134.347656 121.917969 C 129.773438 121.917969 126.054688 125.644531 126.054688 130.21875 C 126.054688 134.789062 129.773438 138.511719 134.347656 138.511719 L 182.363281 138.511719 C 186.9375 138.511719 190.65625 134.789062 190.65625 130.21875 C 190.65625 125.644531 186.9375 121.917969 182.363281 121.917969 Z M 182.363281 127.289062 C 183.980469 127.289062 185.289062 128.601562 185.289062 130.21875 C 185.289062 131.832031 183.980469 133.140625 182.363281 133.140625 L 134.347656 133.140625 C 132.730469 133.140625 131.425781 131.832031 131.425781 130.21875 C 131.425781 128.601562 132.730469 127.289062 134.347656 127.289062 L 182.363281 127.289062 " fill-opacity="1" fill-rule="nonzero"/><path fill="#bdbcbc" d="M 134.347656 122.386719 C 131.257812 122.386719 128.738281 119.875 128.738281 116.777344 C 128.738281 113.6875 131.257812 111.171875 134.347656 111.171875 L 182.363281 111.171875 C 185.457031 111.171875 187.972656 113.6875 187.972656 116.777344 C 187.972656 119.875 185.457031 122.386719 182.363281 122.386719 L 134.347656 122.386719 " fill-opacity="1" fill-rule="nonzero"/><path fill="#0e0d0c" d="M 182.363281 108.484375 L 134.347656 108.484375 C 129.773438 108.484375 126.054688 112.207031 126.054688 116.777344 C 126.054688 121.351562 129.773438 125.070312 134.347656 125.070312 L 182.363281 125.070312 C 186.9375 125.070312 190.65625 121.351562 190.65625 116.777344 C 190.65625 112.207031 186.9375 108.484375 182.363281 108.484375 Z M 182.363281 113.855469 C 183.980469 113.855469 185.289062 115.164062 185.289062 116.777344 C 185.289062 118.394531 183.980469 119.703125 182.363281 119.703125 L 134.347656 119.703125 C 132.730469 119.703125 131.425781 118.394531 131.425781 116.777344 C 131.425781 115.164062 132.730469 113.855469 134.347656 113.855469 L 182.363281 113.855469 " fill-opacity="1" fill-rule="nonzero"/></svg>