<svg xmlns="http://www.w3.org/2000/svg" xmlns:xlink="http://www.w3.org/1999/xlink" width="1000" zoomAndPan="magnify" viewBox="0 0 750 749.999995" height="1000" preserveAspectRatio="xMidYMid meet" version="1.0"><defs><clipPath id="5b70ea1df5"><path d="M 32 109 L 578 109 L 578 641.796875 L 32 641.796875 Z M 32 109 " clip-rule="nonzero"/></clipPath></defs><g clip-path="url(#5b70ea1df5)"><path fill="#d2e9d9" d="M 254.941406 641.320312 C 249.804688 641.292969 244.648438 641.222656 239.511719 641.125 C 187.738281 640.082031 124.507812 641.09375 81.042969 608.511719 C 61.5 593.855469 50.011719 570.789062 43.828125 547.632812 C 35.746094 517.308594 34.960938 485.910156 34.058594 454.75 C 33.113281 422.367188 31.847656 389.96875 33.59375 357.609375 C 35.464844 322.972656 39.167969 288.417969 44.675781 254.171875 C 49.617188 223.410156 54.390625 191.910156 74.46875 166.855469 C 81.421875 158.175781 89.984375 151.128906 99.742188 145.703125 C 135.757812 125.675781 176.6875 123.042969 216.957031 118.898438 C 287.296875 111.65625 357.65625 111.019531 428.238281 109.976562 C 434.542969 109.878906 440.910156 108.683594 447.230469 109.160156 C 463.378906 110.371094 479.613281 111.105469 495.3125 115.8125 C 513.40625 121.238281 527.5 132.105469 538.550781 147.226562 C 547.15625 159.007812 552.757812 172.15625 556.984375 186.035156 C 560.515625 197.660156 563.78125 209.34375 566.007812 221.292969 C 567.878906 231.371094 569.386719 241.488281 570.230469 251.734375 C 574.835938 307.964844 579.609375 364.402344 577.355469 420.871094 C 575.3125 472.183594 570.261719 533.007812 541.777344 577.339844 C 521.769531 608.484375 488.019531 624.058594 452.382812 629.566406 C 387.519531 639.574219 320.527344 641.671875 254.941406 641.320312 Z M 254.941406 641.320312 " fill-opacity="1" fill-rule="nonzero"/></g><path fill="#3c2d21" d="M 404.792969 339.363281 C 415.285156 383.472656 400.21875 433.34375 357.414062 461.246094 C 318.710938 486.488281 267.558594 487.894531 229.570312 460.429688 C 167.378906 415.445312 170.011719 317.589844 232.046875 273.550781 C 262.730469 251.761719 305.871094 247.195312 340.464844 262.191406 C 375.3125 277.296875 397.035156 306.75 404.792969 339.363281 Z M 404.792969 339.363281 " fill-opacity="1" fill-rule="nonzero"/><path fill="#8b694c" d="M 166.128906 252.4375 C 161.425781 252.636719 156.734375 252.425781 152.738281 252.507812 C 142.148438 252.734375 100.9375 257.597656 100.980469 240.023438 C 101.007812 226.03125 126.902344 226.578125 135.839844 226.464844 C 147.867188 226.3125 173.320312 223.875 183.65625 230.976562 C 189.921875 235.289062 189.457031 243.011719 183.769531 247.480469 C 179.136719 251.128906 172.632812 252.171875 166.128906 252.4375 Z M 166.128906 252.4375 " fill-opacity="1" fill-rule="nonzero"/><path fill="#8d6c4f" d="M 431.839844 557.257812 C 431.757812 562.910156 432.109375 568.589844 431.335938 574.210938 C 430.953125 576.988281 426.730469 592.589844 421.308594 584.808594 C 420.605469 583.796875 420.378906 582.542969 420.210938 581.316406 C 418.269531 567.671875 420.296875 553.679688 420.875 540.011719 C 421.140625 533.796875 419.296875 522.449219 423.222656 517.09375 C 424.183594 515.800781 425.800781 514.882812 427.390625 515.164062 C 430.265625 515.671875 431.195312 519.28125 431.417969 522.183594 C 431.839844 527.691406 431.757812 533.148438 431.699219 538.65625 C 431.65625 541.179688 431.96875 548.816406 431.839844 557.257812 Z M 431.839844 557.257812 " fill-opacity="1" fill-rule="nonzero"/><path fill="#8c6a4d" d="M 446.117188 533.613281 C 446.511719 528.988281 447.035156 524.394531 447.738281 519.886719 C 447.976562 518.351562 448.328125 516.6875 449.511719 515.6875 C 451.117188 514.347656 453.707031 514.855469 455.15625 516.363281 C 460.167969 521.605469 457.226562 536.347656 457.171875 542.871094 C 457.074219 553.75 459.945312 571.308594 455.101562 581.316406 C 454.214844 583.132812 452.328125 584.625 450.3125 584.386719 C 445.0625 583.753906 445.441406 574.875 445.34375 571.167969 C 445.035156 558.867188 445.0625 546.097656 446.117188 533.613281 Z M 446.117188 533.613281 " fill-opacity="1" fill-rule="nonzero"/><path fill="#8d6c4f" d="M 144.839844 213.136719 C 140.136719 213.121094 136.375 211.628906 133.363281 208.554688 C 128.914062 204.015625 129.675781 197.4375 135.164062 194.25 C 140.417969 191.207031 145.867188 191.207031 151.132812 194.378906 C 155.214844 196.84375 157.015625 200.621094 156.230469 204.734375 C 155.382812 209.132812 152.34375 211.375 148.332031 212.558594 C 147.089844 212.9375 145.753906 212.996094 144.839844 213.136719 Z M 144.839844 213.136719 " fill-opacity="1" fill-rule="nonzero"/><path fill="#8b6a4c" d="M 662.523438 611.164062 C 649.175781 608.554688 639.011719 600.734375 630.269531 590.898438 C 613.949219 572.535156 604.304688 550.71875 598.277344 527.171875 C 589.929688 494.535156 589.675781 461.570312 594.28125 428.382812 C 598.167969 400.3125 604.191406 372.621094 608.867188 344.703125 C 613.429688 317.503906 617.847656 290.261719 617.160156 262.542969 C 616.835938 249.15625 614.484375 236.09375 609.191406 223.648438 C 604.417969 212.472656 596.152344 205.117188 584.988281 200.734375 C 579.582031 198.605469 573.976562 198.832031 568.359375 199.027344 C 565.175781 199.140625 562.023438 199.675781 558.8125 199.308594 C 554.996094 198.859375 552.027344 197.226562 550.617188 193.449219 C 549.238281 189.753906 550.984375 186.867188 553.28125 184.257812 C 555.433594 181.820312 558.292969 180.34375 561.21875 179.058594 C 567.625 176.269531 574.34375 174.664062 581.3125 174.085938 C 584.355469 174.453125 587.394531 174.453125 590.4375 174.097656 C 610.554688 175.621094 625.890625 185.683594 638.195312 201.042969 C 656.457031 223.832031 668.691406 249.410156 673.703125 278.296875 C 675.367188 287.894531 676.886719 297.507812 676.828125 307.285156 C 675.800781 308.0625 675.914062 308.792969 676.914062 309.484375 C 676.929688 314.757812 676.929688 320.011719 676.941406 325.28125 C 675.519531 327.113281 675.519531 328.976562 676.828125 330.863281 C 676.5625 345.84375 676.507812 360.839844 675.972656 375.804688 C 674.902344 405.441406 680.292969 433.976562 690.023438 461.796875 C 695.710938 478.046875 701.90625 494.125 707.707031 510.34375 C 712.453125 523.605469 715.945312 537.21875 716.972656 551.296875 C 718.042969 566.054688 715.269531 580.03125 706.960938 592.546875 C 700.074219 602.933594 690.207031 608.867188 678.082031 611.261719 C 672.886719 611.234375 667.707031 611.191406 662.523438 611.164062 Z M 644.320312 264.472656 C 644.546875 262.640625 643.769531 261.261719 642.234375 259.472656 C 642.125 261.667969 641.898438 263.121094 642.40625 264.574219 C 642.320312 269.449219 642.304688 274.324219 642.125 279.199219 C 641.066406 306.964844 636.28125 334.230469 631.394531 361.488281 C 629.988281 369.378906 628.199219 377.242188 626.746094 385.089844 C 625.15625 393.703125 623.722656 402.398438 622.328125 411.078125 C 619.609375 427.933594 617.355469 444.828125 616.527344 461.894531 C 615.5 482.851562 618.214844 503.46875 623.410156 523.71875 C 627.253906 538.699219 633.394531 552.777344 642.234375 565.574219 C 646.320312 571.476562 651.050781 576.777344 656.667969 581.246094 C 660.242188 584.089844 664.1875 586.175781 668.847656 586.558594 C 679.039062 587.375 687.601562 580.765625 690.175781 569.605469 C 691.992188 561.753906 692.445312 553.792969 691.078125 545.730469 C 688.769531 532.160156 684.417969 519.222656 679.617188 506.386719 C 674.296875 492.167969 668.675781 478.058594 664.058594 463.585938 C 655.386719 436.429688 650.007812 408.796875 650.9375 380.117188 C 651.289062 369.238281 651.175781 358.359375 651.289062 347.480469 C 651.445312 331.554688 652.894531 315.628906 651.316406 299.691406 C 650.09375 287.699219 648.105469 275.929688 644.320312 264.472656 Z M 644.320312 264.472656 " fill-opacity="1" fill-rule="nonzero"/><path fill="#8e6d50" d="M 310.191406 277.847656 C 335.070312 281.214844 358.554688 294.25 373.394531 317.460938 C 408.652344 372.605469 378.492188 444.828125 314.597656 458.726562 C 305.363281 460.726562 296.042969 461.050781 286.648438 460.246094 C 284.582031 458.738281 282.199219 459.246094 279.890625 459.230469 C 242.015625 451.199219 217.125 428.550781 206.394531 391.519531 C 198.976562 365.910156 203.410156 341.234375 217.828125 318.855469 C 238.160156 287.246094 275.511719 273.15625 310.191406 277.847656 Z M 310.359375 285.316406 C 277.5 279.230469 242.664062 295.746094 224.5 323.734375 C 213.253906 341.082031 210.15625 360.515625 213.238281 380.933594 C 220.53125 429.3125 266.882812 459.824219 313.597656 449.621094 C 353.023438 441.011719 380.167969 405.132812 379.308594 366.628906 C 378.507812 331.046875 352.9375 298.269531 319.246094 287.542969 C 316.316406 286.613281 313.34375 285.867188 310.359375 285.316406 Z M 310.359375 285.316406 " fill-opacity="1" fill-rule="nonzero"/></svg>