<svg xmlns="http://www.w3.org/2000/svg" xmlns:xlink="http://www.w3.org/1999/xlink" width="1000" zoomAndPan="magnify" viewBox="0 0 750 749.999995" height="1000" preserveAspectRatio="xMidYMid meet" version="1.0"><defs><clipPath id="02c0eb194f"><path d="M 75 75 L 675 75 L 675 670.09375 L 75 670.09375 Z M 75 75 " clip-rule="nonzero"/></clipPath><clipPath id="6ea4720c1f"><path d="M 150 75 L 600 75 C 641.421875 75 675 108.578125 675 150 L 675 595.09375 C 675 636.515625 641.421875 670.09375 600 670.09375 L 150 670.09375 C 108.578125 670.09375 75 636.515625 75 595.09375 L 75 150 C 75 108.578125 108.578125 75 150 75 Z M 150 75 " clip-rule="nonzero"/></clipPath></defs><g clip-path="url(#02c0eb194f)"><g clip-path="url(#6ea4720c1f)"><path fill="#fcf6f6" d="M 75 75 L 674.742188 75 L 674.742188 670.09375 L 75 670.09375 Z M 75 75 " fill-opacity="1" fill-rule="nonzero"/></g></g><path fill="#fed3bb" d="M 404.832031 535.851562 C 364.734375 535.851562 324.582031 536.203125 284.554688 533.417969 C 247.265625 530.820312 201.828125 528.929688 168.792969 510.035156 C 149.5625 499.046875 143.597656 479.179688 141.621094 458.179688 C 137.9375 418.972656 141.054688 375.28125 149.484375 336.859375 C 156.195312 306.296875 167.308594 267.375 200.203125 256.097656 C 239.308594 242.710938 283.769531 247.070312 324.433594 246.535156 C 330.0625 246.457031 329.835938 246.4375 332.144531 241.445312 C 335.441406 234.296875 337.832031 226.722656 342.179688 220.039062 C 349.710938 208.453125 365.558594 210.839844 377.34375 211.464844 C 395.714844 212.4375 414.09375 213.417969 432.464844 214.390625 C 442.1875 214.910156 452.355469 216.25 457.527344 225.542969 C 461.464844 232.605469 464.234375 240.167969 466.816406 247.808594 C 470.746094 259.433594 506.703125 253.945312 515.699219 254.445312 C 553.128906 256.53125 603.09375 261.660156 608.328125 306.804688 C 611.929688 337.910156 609.425781 369.324219 609.386719 400.503906 C 609.347656 431.023438 607.503906 471.09375 592.746094 498.496094 C 584.824219 513.199219 573.089844 523.3125 556.542969 527.429688 C 547.167969 529.761719 537.6875 531.234375 528.070312 532.132812 C 487.113281 535.957031 445.929688 535.851562 404.832031 535.851562 Z M 404.832031 535.851562 " fill-opacity="1" fill-rule="nonzero"/><path fill="#3c2e22" d="M 369.746094 324.09375 C 389.289062 318.183594 411.335938 318.824219 429.628906 328.089844 C 447.1875 336.972656 461.183594 352.242188 468.914062 370.289062 C 474.742188 383.902344 476.945312 399.03125 474.847656 413.714844 C 469.074219 454.089844 432.324219 484.117188 391.78125 483.34375 C 389.589844 483.304688 387.398438 483.171875 385.214844 482.957031 C 380.820312 482.519531 375.71875 481.972656 371.617188 480.699219 C 341.640625 471.453125 322.125 451.746094 314.546875 421.398438 C 305.003906 383.203125 325.433594 341.609375 362.230469 326.746094 C 364.679688 325.746094 367.183594 324.859375 369.746094 324.09375 Z M 369.746094 324.09375 " fill-opacity="1" fill-rule="nonzero"/><path fill="#e6a66e" d="M 231.917969 334.40625 C 224.488281 334.292969 217.621094 332.421875 211.488281 328.078125 C 203.359375 322.320312 200.46875 313.085938 204.066406 303.800781 C 205.835938 299.25 208.253906 294.972656 211.75 291.613281 C 222.816406 280.941406 244.996094 278.949219 255.277344 294.105469 C 260.996094 302.527344 261.535156 312.007812 256.976562 321.234375 C 252.527344 330.242188 244.335938 333.59375 234.816406 334.414062 C 233.863281 334.472656 232.890625 334.40625 231.917969 334.40625 Z M 231.917969 334.40625 " fill-opacity="1" fill-rule="nonzero"/><path fill="#e6a66f" d="M 238.164062 255.117188 C 236.640625 255.117188 234.054688 255.183594 231.484375 255.097656 C 228.722656 255.003906 226.863281 253.550781 226.371094 250.828125 C 225.273438 244.664062 224.292969 238.46875 225.3125 232.160156 C 226.011719 227.855469 228.335938 224.65625 232.257812 222.871094 C 241.527344 218.667969 251.1875 216.523438 261.382812 218.546875 C 265.371094 219.339844 268.402344 221.585938 270.386719 225.25 C 273.761719 231.492188 275.121094 238.253906 275.5 245.222656 C 275.707031 249.035156 274.09375 250.90625 269.972656 252.011719 C 266.078125 253.058594 262.070312 253.632812 258.054688 253.917969 C 251.78125 254.359375 245.507812 254.683594 238.164062 255.117188 Z M 238.164062 255.117188 " fill-opacity="1" fill-rule="nonzero"/><path fill="#8d6b4e" d="M 400.789062 337.578125 C 402.28125 337.738281 403.785156 337.957031 405.277344 338.21875 C 431.046875 342.835938 450.691406 361.84375 456.695312 387.171875 C 466.003906 426.453125 438.152344 459.867188 403.453125 466.121094 C 366.277344 472.8125 332.644531 443.816406 328.078125 407.8125 C 322.816406 366.265625 361.164062 333.320312 400.789062 337.578125 Z M 383.324219 454.382812 C 398.160156 457.242188 414.199219 454.195312 426.953125 443.882812 C 437.707031 435.1875 444.53125 422.429688 446.640625 408.839844 C 451.296875 378.8125 429.488281 350.203125 399.3125 347.398438 C 357.640625 343.519531 331.8125 380.125 341.347656 416.347656 C 346.789062 437 364.046875 450.671875 383.324219 454.382812 Z M 383.324219 454.382812 " fill-opacity="1" fill-rule="nonzero"/><path fill="#e6a66e" d="M 440.789062 257.796875 C 412.109375 256.617188 383.398438 256.644531 354.710938 256.109375 C 352.101562 256.0625 349.558594 255.703125 347.101562 254.871094 C 345.675781 254.390625 344.511719 253.53125 344.457031 251.792969 C 344.390625 249.886719 345.402344 248.714844 347.113281 248.234375 C 351.328125 247.042969 355.671875 246.796875 360.011719 246.675781 C 384.855469 245.957031 409.707031 246.589844 434.550781 246.429688 C 438.40625 246.402344 442.265625 245.703125 446.121094 246.421875 C 447.226562 246.628906 448.386719 246.609375 449.445312 246.929688 C 452.320312 247.808594 453.898438 249.695312 453.886719 251.992188 C 453.867188 254.265625 452.195312 256.230469 449.40625 257.023438 C 446.59375 257.816406 443.710938 258.136719 440.789062 257.796875 Z M 440.789062 257.796875 " fill-opacity="1" fill-rule="nonzero"/></svg>