<svg xmlns="http://www.w3.org/2000/svg" xmlns:xlink="http://www.w3.org/1999/xlink" width="1000" zoomAndPan="magnify" viewBox="0 0 750 749.999995" height="1000" preserveAspectRatio="xMidYMid meet" version="1.0"><defs><g/><clipPath id="aeed4aea85"><path d="M 304.269531 254.609375 L 719.996094 254.609375 L 719.996094 495.390625 L 304.269531 495.390625 Z M 304.269531 254.609375 " clip-rule="nonzero"/></clipPath><clipPath id="0fc1699f34"><path d="M 360.519531 254.609375 L 663.234375 254.609375 C 694.300781 254.609375 719.488281 279.792969 719.488281 310.859375 L 719.488281 439.140625 C 719.488281 470.207031 694.300781 495.390625 663.234375 495.390625 L 360.519531 495.390625 C 329.453125 495.390625 304.269531 470.207031 304.269531 439.140625 L 304.269531 310.859375 C 304.269531 279.792969 329.453125 254.609375 360.519531 254.609375 Z M 360.519531 254.609375 " clip-rule="nonzero"/></clipPath></defs><g clip-path="url(#aeed4aea85)"><g clip-path="url(#0fc1699f34)"><path fill="#fa8bf7" d="M 304.269531 254.609375 L 719.058594 254.609375 L 719.058594 495.390625 L 304.269531 495.390625 Z M 304.269531 254.609375 " fill-opacity="1" fill-rule="nonzero"/></g></g><g fill="#000000" fill-opacity="1"><g transform="translate(30.513643, 445.279701)"><g><path d="M 25 0 L 25 -49.8125 L 0.875 -151.203125 L 30.8125 -151.203125 L 39.25 -99.984375 L 47.703125 -151.203125 L 77.625 -151.203125 L 53.515625 -49.8125 L 53.515625 0 Z M 25 0 "/></g></g></g><g fill="#000000" fill-opacity="1"><g transform="translate(109.017817, 445.279701)"><g><path d="M 43.65625 1.40625 C 17.957031 1.40625 5.109375 -11.910156 5.109375 -38.546875 L 5.109375 -90.296875 C 5.109375 -102.503906 8.539062 -112.21875 15.40625 -119.4375 C 22.269531 -126.65625 31.6875 -130.265625 43.65625 -130.265625 C 55.625 -130.265625 65.039062 -126.65625 71.90625 -119.4375 C 78.769531 -112.21875 82.203125 -102.503906 82.203125 -90.296875 L 82.203125 -38.546875 C 82.203125 -11.910156 69.351562 1.40625 43.65625 1.40625 Z M 43.65625 -22.359375 C 46.125 -22.359375 47.941406 -23.238281 49.109375 -25 C 50.285156 -26.757812 50.875 -29.164062 50.875 -32.21875 L 50.875 -95.234375 C 50.875 -102.742188 48.46875 -106.5 43.65625 -106.5 C 38.84375 -106.5 36.4375 -102.742188 36.4375 -95.234375 L 36.4375 -32.21875 C 36.4375 -29.164062 37.019531 -26.757812 38.1875 -25 C 39.363281 -23.238281 41.1875 -22.359375 43.65625 -22.359375 Z M 43.65625 -22.359375 "/></g></g></g><g fill="#000000" fill-opacity="1"><g transform="translate(196.498917, 445.279701)"><g><path d="M 30.984375 1.40625 C 21.359375 1.40625 14.753906 -1.46875 11.171875 -7.21875 C 7.597656 -12.96875 5.8125 -21.535156 5.8125 -32.921875 L 5.8125 -128.859375 L 36.796875 -128.859375 L 36.796875 -39.078125 C 36.796875 -38.253906 36.796875 -36.050781 36.796875 -32.46875 C 36.796875 -28.894531 37.351562 -26.375 38.46875 -24.90625 C 39.582031 -23.4375 41.3125 -22.703125 43.65625 -22.703125 C 46.820312 -22.703125 48.816406 -24.019531 49.640625 -26.65625 C 50.460938 -29.300781 50.875 -33.085938 50.875 -38.015625 L 50.875 -39.078125 L 51.046875 -128.859375 L 81.671875 -128.859375 L 81.671875 0 L 50.875 0 L 50.875 -13.734375 C 48.757812 -8.335938 46.289062 -4.460938 43.46875 -2.109375 C 40.65625 0.234375 36.492188 1.40625 30.984375 1.40625 Z M 30.984375 1.40625 "/></g></g></g><g fill="#ffffff" fill-opacity="1"><g transform="translate(346.053149, 445.279701)"><g><path d="M 19.71875 0 L 19.71875 -122.171875 L 1.765625 -122.171875 L 1.765625 -151.203125 L 67.953125 -151.203125 L 67.953125 -122.171875 L 50 -122.171875 L 50 0 Z M 19.71875 0 "/></g></g></g><g fill="#ffffff" fill-opacity="1"><g transform="translate(415.756412, 445.279701)"><g><path d="M 30.984375 1.40625 C 21.359375 1.40625 14.753906 -1.46875 11.171875 -7.21875 C 7.597656 -12.96875 5.8125 -21.535156 5.8125 -32.921875 L 5.8125 -128.859375 L 36.796875 -128.859375 L 36.796875 -39.078125 C 36.796875 -38.253906 36.796875 -36.050781 36.796875 -32.46875 C 36.796875 -28.894531 37.351562 -26.375 38.46875 -24.90625 C 39.582031 -23.4375 41.3125 -22.703125 43.65625 -22.703125 C 46.820312 -22.703125 48.816406 -24.019531 49.640625 -26.65625 C 50.460938 -29.300781 50.875 -33.085938 50.875 -38.015625 L 50.875 -39.078125 L 51.046875 -128.859375 L 81.671875 -128.859375 L 81.671875 0 L 50.875 0 L 50.875 -13.734375 C 48.757812 -8.335938 46.289062 -4.460938 43.46875 -2.109375 C 40.65625 0.234375 36.492188 1.40625 30.984375 1.40625 Z M 30.984375 1.40625 "/></g></g></g><g fill="#ffffff" fill-opacity="1"><g transform="translate(503.589546, 445.279701)"><g><path d="M 55.984375 1.40625 C 47.523438 1.40625 41.476562 -3.640625 37.84375 -13.734375 L 37.84375 0 L 6.15625 0 L 6.15625 -152.09375 L 37.84375 -152.09375 L 37.84375 -122.6875 C 42.769531 -127.738281 48.519531 -130.265625 55.09375 -130.265625 C 65.070312 -130.265625 72.234375 -127.300781 76.578125 -121.375 C 80.921875 -115.445312 83.09375 -106.910156 83.09375 -95.765625 L 83.09375 -33.625 C 83.09375 -23.0625 80.859375 -14.582031 76.390625 -8.1875 C 71.929688 -1.789062 65.128906 1.40625 55.984375 1.40625 Z M 45.59375 -22.53125 C 47.707031 -22.53125 49.203125 -23.203125 50.078125 -24.546875 C 50.960938 -25.898438 51.488281 -27.601562 51.65625 -29.65625 C 51.832031 -31.707031 51.921875 -34.90625 51.921875 -39.25 L 51.921875 -92.9375 C 51.921875 -97.519531 51.507812 -100.925781 50.6875 -103.15625 C 49.875 -105.382812 48.117188 -106.5 45.421875 -106.5 C 42.484375 -106.5 40.484375 -105.382812 39.421875 -103.15625 C 38.367188 -100.925781 37.84375 -97.640625 37.84375 -93.296875 L 37.84375 -39.25 C 37.84375 -33.625 38.3125 -29.429688 39.25 -26.671875 C 40.1875 -23.910156 42.300781 -22.53125 45.59375 -22.53125 Z M 45.59375 -22.53125 "/></g></g></g><g fill="#ffffff" fill-opacity="1"><g transform="translate(591.774716, 445.279701)"><g><path d="M 42.25 1.40625 C 28.988281 1.40625 19.484375 -2.226562 13.734375 -9.5 C 7.984375 -16.78125 5.109375 -27.640625 5.109375 -42.078125 L 5.109375 -93.828125 C 5.109375 -105.679688 8.507812 -114.71875 15.3125 -120.9375 C 22.125 -127.15625 31.628906 -130.265625 43.828125 -130.265625 C 68.585938 -130.265625 80.96875 -118.117188 80.96875 -93.828125 L 80.96875 -84.5 C 80.96875 -75.101562 80.851562 -67.472656 80.625 -61.609375 L 35.90625 -61.609375 L 35.90625 -36.609375 C 35.90625 -32.148438 36.375 -28.660156 37.3125 -26.140625 C 38.257812 -23.617188 40.253906 -22.359375 43.296875 -22.359375 C 45.648438 -22.359375 47.320312 -23.0625 48.3125 -24.46875 C 49.3125 -25.875 49.898438 -27.484375 50.078125 -29.296875 C 50.253906 -31.117188 50.34375 -33.789062 50.34375 -37.3125 L 50.34375 -49.8125 L 80.96875 -49.8125 L 80.96875 -42.421875 C 80.96875 -27.398438 78.0625 -16.335938 72.25 -9.234375 C 66.445312 -2.140625 56.445312 1.40625 42.25 1.40625 Z M 50.34375 -76.921875 L 50.34375 -93.46875 C 50.34375 -102.738281 48.054688 -107.375 43.484375 -107.375 C 38.316406 -107.375 35.734375 -102.738281 35.734375 -93.46875 L 35.734375 -76.921875 Z M 50.34375 -76.921875 "/></g></g></g></svg>