<svg xmlns="http://www.w3.org/2000/svg" xmlns:xlink="http://www.w3.org/1999/xlink" width="1000" zoomAndPan="magnify" viewBox="0 0 750 749.999995" height="1000" preserveAspectRatio="xMidYMid meet" version="1.0"><defs><g/><clipPath id="76e233f199"><path d="M 75 75 L 680 75 L 680 675 L 75 675 Z M 75 75 " clip-rule="nonzero"/></clipPath><clipPath id="32318b1f76"><path d="M 150 75 L 604.945312 75 C 624.835938 75 643.914062 82.902344 657.980469 96.96875 C 672.042969 111.03125 679.945312 130.109375 679.945312 150 L 679.945312 600 C 679.945312 619.890625 672.042969 638.96875 657.980469 653.03125 C 643.914062 667.097656 624.835938 675 604.945312 675 L 150 675 C 130.109375 675 111.03125 667.097656 96.96875 653.03125 C 82.902344 638.96875 75 619.890625 75 600 L 75 150 C 75 130.109375 82.902344 111.03125 96.96875 96.96875 C 111.03125 82.902344 130.109375 75 150 75 Z M 150 75 " clip-rule="nonzero"/></clipPath><clipPath id="1c5915d3bd"><path d="M 159.839844 351.992188 L 589 351.992188 L 589 600.621094 L 159.839844 600.621094 Z M 159.839844 351.992188 " clip-rule="nonzero"/></clipPath><clipPath id="48f001a534"><path d="M 234.839844 351.992188 L 513.585938 351.992188 C 555.007812 351.992188 588.585938 385.570312 588.585938 426.992188 L 588.585938 525.621094 C 588.585938 567.042969 555.007812 600.621094 513.585938 600.621094 L 234.839844 600.621094 C 193.417969 600.621094 159.839844 567.042969 159.839844 525.621094 L 159.839844 426.992188 C 159.839844 385.570312 193.417969 351.992188 234.839844 351.992188 Z M 234.839844 351.992188 " clip-rule="nonzero"/></clipPath></defs><g clip-path="url(#76e233f199)"><g clip-path="url(#32318b1f76)"><path fill="#ff4f83" d="M 75 75 L 679.6875 75 L 679.6875 675 L 75 675 Z M 75 75 " fill-opacity="1" fill-rule="nonzero"/></g></g><g clip-path="url(#1c5915d3bd)"><g clip-path="url(#48f001a534)"><path fill="#fa8bf7" d="M 159.839844 351.992188 L 588.144531 351.992188 L 588.144531 600.621094 L 159.839844 600.621094 Z M 159.839844 351.992188 " fill-opacity="1" fill-rule="nonzero"/></g></g><g fill="#000000" fill-opacity="1"><g transform="translate(243.15204, 330.924945)"><g><path d="M 25.8125 0 L 25.8125 -51.4375 L 0.90625 -156.140625 L 31.8125 -156.140625 L 40.53125 -103.25 L 49.265625 -156.140625 L 80.15625 -156.140625 L 55.25 -51.4375 L 55.25 0 Z M 25.8125 0 "/></g></g></g><g fill="#000000" fill-opacity="1"><g transform="translate(324.214986, 330.924945)"><g><path d="M 45.078125 1.453125 C 18.535156 1.453125 5.265625 -12.300781 5.265625 -39.8125 L 5.265625 -93.25 C 5.265625 -105.851562 8.804688 -115.878906 15.890625 -123.328125 C 22.984375 -130.773438 32.710938 -134.5 45.078125 -134.5 C 57.441406 -134.5 67.164062 -130.773438 74.25 -123.328125 C 81.34375 -115.878906 84.890625 -105.851562 84.890625 -93.25 L 84.890625 -39.8125 C 84.890625 -12.300781 71.617188 1.453125 45.078125 1.453125 Z M 45.078125 -23.078125 C 47.617188 -23.078125 49.492188 -23.984375 50.703125 -25.796875 C 51.921875 -27.617188 52.53125 -30.109375 52.53125 -33.265625 L 52.53125 -98.328125 C 52.53125 -106.085938 50.046875 -109.96875 45.078125 -109.96875 C 40.109375 -109.96875 37.625 -106.085938 37.625 -98.328125 L 37.625 -33.265625 C 37.625 -30.109375 38.226562 -27.617188 39.4375 -25.796875 C 40.65625 -23.984375 42.535156 -23.078125 45.078125 -23.078125 Z M 45.078125 -23.078125 "/></g></g></g><g fill="#000000" fill-opacity="1"><g transform="translate(414.547454, 330.924945)"><g><path d="M 31.984375 1.453125 C 22.054688 1.453125 15.242188 -1.515625 11.546875 -7.453125 C 7.847656 -13.390625 6 -22.234375 6 -33.984375 L 6 -133.046875 L 37.984375 -133.046875 L 37.984375 -40.359375 C 37.984375 -39.503906 37.984375 -37.226562 37.984375 -33.53125 C 37.984375 -29.832031 38.554688 -27.226562 39.703125 -25.71875 C 40.859375 -24.207031 42.648438 -23.453125 45.078125 -23.453125 C 48.347656 -23.453125 50.40625 -24.8125 51.25 -27.53125 C 52.101562 -30.257812 52.53125 -34.171875 52.53125 -39.265625 L 52.53125 -40.359375 L 52.71875 -133.046875 L 84.34375 -133.046875 L 84.34375 0 L 52.53125 0 L 52.53125 -14.171875 C 50.351562 -8.597656 47.804688 -4.597656 44.890625 -2.171875 C 41.984375 0.242188 37.679688 1.453125 31.984375 1.453125 Z M 31.984375 1.453125 "/></g></g></g><g fill="#ffffff" fill-opacity="1"><g transform="translate(202.982484, 548.876048)"><g><path d="M 20.359375 0 L 20.359375 -126.140625 L 1.8125 -126.140625 L 1.8125 -156.140625 L 70.15625 -156.140625 L 70.15625 -126.140625 L 51.625 -126.140625 L 51.625 0 Z M 20.359375 0 "/></g></g></g><g fill="#ffffff" fill-opacity="1"><g transform="translate(274.957661, 548.876048)"><g><path d="M 31.984375 1.453125 C 22.054688 1.453125 15.242188 -1.515625 11.546875 -7.453125 C 7.847656 -13.390625 6 -22.234375 6 -33.984375 L 6 -133.046875 L 37.984375 -133.046875 L 37.984375 -40.359375 C 37.984375 -39.503906 37.984375 -37.226562 37.984375 -33.53125 C 37.984375 -29.832031 38.554688 -27.226562 39.703125 -25.71875 C 40.859375 -24.207031 42.648438 -23.453125 45.078125 -23.453125 C 48.347656 -23.453125 50.40625 -24.8125 51.25 -27.53125 C 52.101562 -30.257812 52.53125 -34.171875 52.53125 -39.265625 L 52.53125 -40.359375 L 52.71875 -133.046875 L 84.34375 -133.046875 L 84.34375 0 L 52.53125 0 L 52.53125 -14.171875 C 50.351562 -8.597656 47.804688 -4.597656 44.890625 -2.171875 C 41.984375 0.242188 37.679688 1.453125 31.984375 1.453125 Z M 31.984375 1.453125 "/></g></g></g><g fill="#ffffff" fill-opacity="1"><g transform="translate(365.653638, 548.876048)"><g><path d="M 57.796875 1.453125 C 49.078125 1.453125 42.835938 -3.753906 39.078125 -14.171875 L 39.078125 0 L 6.359375 0 L 6.359375 -157.046875 L 39.078125 -157.046875 L 39.078125 -126.6875 C 44.171875 -131.894531 50.109375 -134.5 56.890625 -134.5 C 67.191406 -134.5 74.582031 -131.4375 79.0625 -125.3125 C 83.550781 -119.195312 85.796875 -110.382812 85.796875 -98.875 L 85.796875 -34.71875 C 85.796875 -23.8125 83.492188 -15.054688 78.890625 -8.453125 C 74.285156 -1.847656 67.253906 1.453125 57.796875 1.453125 Z M 47.078125 -23.265625 C 49.253906 -23.265625 50.796875 -23.960938 51.703125 -25.359375 C 52.617188 -26.753906 53.164062 -28.507812 53.34375 -30.625 C 53.53125 -32.75 53.625 -36.050781 53.625 -40.53125 L 53.625 -95.96875 C 53.625 -100.695312 53.195312 -104.210938 52.34375 -106.515625 C 51.5 -108.816406 49.679688 -109.96875 46.890625 -109.96875 C 43.859375 -109.96875 41.796875 -108.816406 40.703125 -106.515625 C 39.617188 -104.210938 39.078125 -100.816406 39.078125 -96.328125 L 39.078125 -40.53125 C 39.078125 -34.71875 39.5625 -30.382812 40.53125 -27.53125 C 41.5 -24.6875 43.679688 -23.265625 47.078125 -23.265625 Z M 47.078125 -23.265625 "/></g></g></g><g fill="#ffffff" fill-opacity="1"><g transform="translate(456.713123, 548.876048)"><g><path d="M 43.625 1.453125 C 29.925781 1.453125 20.109375 -2.300781 14.171875 -9.8125 C 8.234375 -17.320312 5.265625 -28.53125 5.265625 -43.4375 L 5.265625 -96.875 C 5.265625 -109.113281 8.78125 -118.441406 15.8125 -124.859375 C 22.84375 -131.285156 32.660156 -134.5 45.265625 -134.5 C 70.828125 -134.5 83.609375 -121.957031 83.609375 -96.875 L 83.609375 -87.25 C 83.609375 -77.550781 83.488281 -69.675781 83.25 -63.625 L 37.078125 -63.625 L 37.078125 -37.8125 C 37.078125 -33.207031 37.5625 -29.597656 38.53125 -26.984375 C 39.5 -24.378906 41.5625 -23.078125 44.71875 -23.078125 C 47.132812 -23.078125 48.859375 -23.804688 49.890625 -25.265625 C 50.921875 -26.722656 51.523438 -28.390625 51.703125 -30.265625 C 51.890625 -32.140625 51.984375 -34.894531 51.984375 -38.53125 L 51.984375 -51.4375 L 83.609375 -51.4375 L 83.609375 -43.8125 C 83.609375 -28.300781 80.609375 -16.878906 74.609375 -9.546875 C 68.617188 -2.210938 58.289062 1.453125 43.625 1.453125 Z M 51.984375 -79.4375 L 51.984375 -96.515625 C 51.984375 -106.085938 49.617188 -110.875 44.890625 -110.875 C 39.554688 -110.875 36.890625 -106.085938 36.890625 -96.515625 L 36.890625 -79.4375 Z M 51.984375 -79.4375 "/></g></g></g></svg>