<svg xmlns="http://www.w3.org/2000/svg" xmlns:xlink="http://www.w3.org/1999/xlink" width="1000" zoomAndPan="magnify" viewBox="0 0 750 749.999995" height="1000" preserveAspectRatio="xMidYMid meet" version="1.0"><defs><clipPath id="b728d47311"><path d="M 17.882812 110.734375 L 731.882812 110.734375 L 731.882812 619 L 17.882812 619 Z M 17.882812 110.734375 " clip-rule="nonzero"/></clipPath></defs><g clip-path="url(#b728d47311)"><path fill="#ff4f83" d="M 56.527344 128.511719 C 56.527344 128.511719 17.902344 135.542969 17.902344 233.96875 C 17.902344 332.390625 20.101562 575.769531 37.214844 592.519531 C 84.75 639.046875 281.777344 606.660156 475.285156 611.894531 C 668.792969 617.125 732.125 610.097656 732.125 553.851562 C 732.125 497.609375 714.53125 209.363281 714.53125 163.664062 C 714.53125 117.964844 703.980469 110.933594 566.761719 110.933594 C 429.546875 110.933594 56.527344 128.511719 56.527344 128.511719 Z M 56.527344 128.511719 " fill-opacity="1" fill-rule="nonzero"/></g><path fill="#ffffff" d="M 242.753906 251.859375 C 242.753906 251.859375 250.671875 454.867188 255.949219 470.683594 C 261.226562 486.5 263.867188 504.953125 332.46875 483.863281 C 401.078125 462.773438 509.265625 383.679688 509.265625 383.679688 C 509.265625 383.679688 543.570312 359.949219 509.265625 341.496094 C 474.960938 323.042969 274.414062 238.675781 274.414062 238.675781 C 274.414062 238.675781 241.667969 225.429688 242.75 251.859375 Z M 242.753906 251.859375 " fill-opacity="1" fill-rule="nonzero"/></svg>